<?xml version="1.0" encoding="UTF-8"?>
<!DOCTYPE svg PUBLIC "-//W3C//DTD SVG 1.1//EN" "http://www.w3.org/Graphics/SVG/1.1/DTD/svg11.dtd">
<svg xmlns="http://www.w3.org/2000/svg" version="1.1" width="721px" height="226px" style="shape-rendering:geometricPrecision; text-rendering:geometricPrecision; image-rendering:optimizeQuality; fill-rule:evenodd; clip-rule:evenodd" xmlns:xlink="http://www.w3.org/1999/xlink">
<g><path style="opacity:0.098" fill="#bdd0d8" d="M 34.5,62.5 C 34.7845,60.5853 34.4511,58.9187 33.5,57.5C 30.7628,57.4013 28.0961,57.7347 25.5,58.5C 24.8333,58.5 24.1667,58.5 23.5,58.5C 27.0156,57.2833 30.5156,55.9499 34,54.5C 35.7428,57.1557 35.9095,59.8223 34.5,62.5 Z"/></g>
<g><path style="opacity:0.835" fill="#73b0cf" d="M 23.5,58.5 C 24.1667,58.5 24.8333,58.5 25.5,58.5C 24.1667,60.5 22.5,62.1667 20.5,63.5C 20.5,62.8333 20.5,62.1667 20.5,61.5C 20.5,59.5 21.5,58.5 23.5,58.5 Z"/></g>
<g><path style="opacity:1" fill="#0da4be" d="M 125.5,62.5 C 125.657,63.8734 125.49,65.2068 125,66.5C 123.768,63.7703 122.935,63.937 122.5,67C 124.351,75.7135 125.018,84.5468 124.5,93.5C 121.402,93.5875 121.068,93.0875 123.5,92C 123,91.5 122.5,91 122,90.5C 121.163,82.3485 120.33,74.3485 119.5,66.5C 118.089,64.461 116.089,63.461 113.5,63.5C 113.5,61.5 113.5,59.5 113.5,57.5C 118.588,56.8548 122.588,58.5215 125.5,62.5 Z"/></g>
<g><path style="opacity:0.867" fill="#6fc1e7" d="M 33.5,57.5 C 34.4511,58.9187 34.7845,60.5853 34.5,62.5C 33.713,64.1042 32.3797,64.7709 30.5,64.5C 29.8333,64.5 29.1667,64.5 28.5,64.5C 29.5521,62.744 31.2188,62.0773 33.5,62.5C 33.5,60.8333 33.5,59.1667 33.5,57.5 Z"/></g>
<g><path style="opacity:0.453" fill="#a4c9d4" d="M 101.5,74.5 C 98.7318,72.9128 96.0652,71.0795 93.5,69C 90.4388,66.9653 87.1055,65.7986 83.5,65.5C 76.1228,62.8394 68.7895,62.8394 61.5,65.5C 55.3083,67.5598 49.6416,70.5598 44.5,74.5C 45.5676,72.2598 47.2342,70.4264 49.5,69C 66.0175,58.9373 82.3509,59.2706 98.5,70C 99.8825,71.2708 100.883,72.7708 101.5,74.5 Z"/></g>
<g><path style="opacity:1" fill="#1994d9" d="M 33.5,57.5 C 33.5,59.1667 33.5,60.8333 33.5,62.5C 31.2188,62.0773 29.5521,62.744 28.5,64.5C 28.6716,65.4916 28.3382,66.1583 27.5,66.5C 26.5056,76.9869 26.1722,87.6536 26.5,98.5C 25.7021,101.171 25.0354,104.004 24.5,107C 23.0795,108.419 22.0795,110.086 21.5,112C 21.5699,112.765 21.9033,113.265 22.5,113.5C 23.9447,116.324 25.1114,119.324 26,122.5C 26.3333,134.167 26.6667,145.833 27,157.5C 27.2784,158.416 27.7784,159.082 28.5,159.5C 29.6222,160.947 31.1222,161.947 33,162.5C 33.4828,163.448 33.6495,164.448 33.5,165.5C 31.8333,165.5 30.1667,165.5 28.5,165.5C 27.1667,165.5 25.8333,165.5 24.5,165.5C 21.7485,162.428 20.2485,158.761 20,154.5C 19.6667,143.833 19.3333,133.167 19,122.5C 18.0646,119.405 16.2313,117.071 13.5,115.5C 13.3379,113.473 13.5045,111.473 14,109.5C 15.4813,108.529 16.3146,107.196 16.5,105.5C 17.0722,103.745 17.9055,102.078 19,100.5C 19.2262,88.1345 19.7262,75.8012 20.5,63.5C 22.5,62.1667 24.1667,60.5 25.5,58.5C 28.0961,57.7347 30.7628,57.4013 33.5,57.5 Z"/></g>
<g><path style="opacity:0.388" fill="#b9d9de" d="M 126.5,62.5 C 126.167,62.5 125.833,62.5 125.5,62.5C 122.588,58.5215 118.588,56.8548 113.5,57.5C 113.5,59.5 113.5,61.5 113.5,63.5C 116.089,63.461 118.089,64.461 119.5,66.5C 119.5,77.1667 119.5,87.8333 119.5,98.5C 118.395,88.1922 117.895,77.8589 118,67.5C 116.58,65.578 114.747,64.2446 112.5,63.5C 111.22,61.2984 111.22,59.1317 112.5,57C 116.261,56.2617 119.928,56.5951 123.5,58C 125.141,59.129 126.141,60.629 126.5,62.5 Z"/></g>
<g><path style="opacity:1" fill="#149dcb" d="M 83.5,65.5 C 83.6882,67.1033 83.1882,68.4366 82,69.5C 79.7574,68.8629 77.4241,68.5296 75,68.5C 72.3897,68.5332 70.223,69.1999 68.5,70.5C 66.5,70.5 64.5,70.5 62.5,70.5C 64.18,68.2736 63.8466,66.6069 61.5,65.5C 68.7895,62.8394 76.1228,62.8394 83.5,65.5 Z"/></g>
<g><path style="opacity:1" fill="#179bd2" d="M 61.5,65.5 C 63.8466,66.6069 64.18,68.2736 62.5,70.5C 59.5129,71.1557 56.8462,72.489 54.5,74.5C 52.5486,75.7737 51.2152,77.4404 50.5,79.5C 48.9382,79.7329 47.6049,80.3995 46.5,81.5C 46.6567,80.1266 46.49,78.7932 46,77.5C 44.0083,78.6647 42.175,79.998 40.5,81.5C 41.8333,79.1667 43.1667,76.8333 44.5,74.5C 49.6416,70.5598 55.3083,67.5598 61.5,65.5 Z"/></g>
<g><path style="opacity:1" fill="#32a8ca" d="M 83.5,65.5 C 87.1055,65.7986 90.4388,66.9653 93.5,69C 96.0652,71.0795 98.7318,72.9128 101.5,74.5C 101.5,75.1667 101.5,75.8333 101.5,76.5C 101.662,78.5273 101.495,80.5273 101,82.5C 100.329,81.7476 99.4959,81.4142 98.5,81.5C 97.7298,79.0646 96.0632,77.7313 93.5,77.5C 92.8559,74.1956 90.8559,72.8622 87.5,73.5C 86.391,73.4431 85.391,73.1098 84.5,72.5C 82.1799,70.7739 79.5133,70.1072 76.5,70.5C 73.8333,70.5 71.1667,70.5 68.5,70.5C 70.223,69.1999 72.3897,68.5332 75,68.5C 77.4241,68.5296 79.7574,68.8629 82,69.5C 83.1882,68.4366 83.6882,67.1033 83.5,65.5 Z"/></g>
<g><path style="opacity:0.063" fill="#cddde4" d="M 28.5,64.5 C 29.1667,64.5 29.8333,64.5 30.5,64.5C 28.9963,71.5107 27.9963,78.5107 27.5,85.5C 27.5,79.1667 27.5,72.8333 27.5,66.5C 28.3382,66.1583 28.6716,65.4916 28.5,64.5 Z"/></g>
<g><path style="opacity:0.104" fill="#d8dcbe" d="M 626.5,82.5 C 626.5,82.1667 626.5,81.8333 626.5,81.5C 630.494,79.3464 631.827,76.1797 630.5,72C 623.645,70.9653 616.978,71.632 610.5,74C 609.619,74.7083 608.953,75.5416 608.5,76.5C 607.833,76.8333 607.167,77.1667 606.5,77.5C 607.767,73.7427 610.434,71.5761 614.5,71C 619.442,69.6721 624.442,69.3388 629.5,70C 630.416,70.3742 631.25,70.8742 632,71.5C 633.098,75.5052 632.265,79.0052 629.5,82C 628.552,82.4828 627.552,82.6495 626.5,82.5 Z"/></g>
<g><path style="opacity:0.006" fill="#bbc4c6" d="M 76.5,70.5 C 79.5133,70.1072 82.1799,70.7739 84.5,72.5C 84.44,73.0431 84.1067,73.3764 83.5,73.5C 81.1148,72.3385 78.7814,71.3385 76.5,70.5 Z"/></g>
<g><path style="opacity:0.999" fill="#cad234" d="M 626.5,81.5 C 623.99,81.0535 621.99,81.7202 620.5,83.5C 619.833,84.1667 619.167,84.8333 618.5,85.5C 617.523,88.2869 617.19,91.2869 617.5,94.5C 613.167,94.5 608.833,94.5 604.5,94.5C 604.5,91.5 604.5,88.5 604.5,85.5C 605.576,82.3516 606.909,79.3516 608.5,76.5C 608.953,75.5416 609.619,74.7083 610.5,74C 616.978,71.632 623.645,70.9653 630.5,72C 631.827,76.1797 630.494,79.3464 626.5,81.5 Z"/></g>
<g><path style="opacity:0.714" fill="#89c1cf" d="M 87.5,73.5 C 90.8559,72.8622 92.8559,74.1956 93.5,77.5C 91.1475,76.6597 89.1475,75.3264 87.5,73.5 Z"/></g>
<g><path style="opacity:0.125" fill="#acc2c6" d="M 101.5,74.5 C 103.5,74.5 104.5,75.5 104.5,77.5C 103.391,77.4431 102.391,77.1098 101.5,76.5C 101.5,75.8333 101.5,75.1667 101.5,74.5 Z"/></g>
<g><path style="opacity:0.165" fill="#9fc5d3" d="M 62.5,70.5 C 64.5,70.5 66.5,70.5 68.5,70.5C 65.3609,71.8874 62.0276,73.054 58.5,74C 55.9528,76.054 53.2861,77.8874 50.5,79.5C 51.2152,77.4404 52.5486,75.7737 54.5,74.5C 56.8462,72.489 59.5129,71.1557 62.5,70.5 Z"/></g>
<g><path style="opacity:0.855" fill="#dde892" d="M 608.5,76.5 C 606.909,79.3516 605.576,82.3516 604.5,85.5C 604.167,85.5 603.833,85.5 603.5,85.5C 603.5,85.1667 603.5,84.8333 603.5,84.5C 603.707,81.7594 604.707,79.4261 606.5,77.5C 607.167,77.1667 607.833,76.8333 608.5,76.5 Z"/></g>
<g><path style="opacity:0.043" fill="#b9c4c7" d="M 104.5,77.5 C 106.741,78.2998 107.741,79.9664 107.5,82.5C 106.11,81.1007 105.11,79.4341 104.5,77.5 Z"/></g>
<g><path style="opacity:1" fill="#8ec95b" d="M 478.5,81.5 C 480.81,82.325 482.81,83.6583 484.5,85.5C 486.123,88.2153 486.79,91.2153 486.5,94.5C 482.587,94.8132 478.921,94.1466 475.5,92.5C 473.025,90.122 470.025,88.7886 466.5,88.5C 461.729,86.9528 457.063,87.2861 452.5,89.5C 451.5,89.5 450.5,89.5 449.5,89.5C 448.971,85.6494 449.638,82.1494 451.5,79C 457.5,78.3333 463.5,78.3333 469.5,79C 472.312,80.5489 475.312,81.3822 478.5,81.5 Z"/></g>
<g><path style="opacity:0.557" fill="#93cfdd" d="M 93.5,77.5 C 96.0632,77.7313 97.7298,79.0646 98.5,81.5C 99.1098,82.391 99.4431,83.391 99.5,84.5C 97.5293,82.1918 95.5293,79.8585 93.5,77.5 Z"/></g>
<g><path style="opacity:1" fill="#90cb6d" d="M 478.5,81.5 C 475.312,81.3822 472.312,80.5489 469.5,79C 463.5,78.3333 457.5,78.3333 451.5,79C 449.638,82.1494 448.971,85.6494 449.5,89.5C 450.5,89.5 451.5,89.5 452.5,89.5C 449.424,91.5726 447.09,94.2392 445.5,97.5C 441.627,95.5698 437.294,94.9031 432.5,95.5C 433.079,92.6689 434.412,90.3356 436.5,88.5C 436.461,89.5832 436.127,90.5832 435.5,91.5C 445.14,94.6967 449.14,91.3633 447.5,81.5C 445.784,81.6287 444.117,81.962 442.5,82.5C 447.599,78.1167 453.599,76.45 460.5,77.5C 467.085,76.776 473.085,78.1093 478.5,81.5 Z"/></g>
<g><path style="opacity:0.373" fill="#dfe79a" d="M 626.5,81.5 C 626.5,81.8333 626.5,82.1667 626.5,82.5C 624.435,82.5172 622.435,82.8505 620.5,83.5C 621.99,81.7202 623.99,81.0535 626.5,81.5 Z"/></g>
<g><path style="opacity:0.19" fill="#d6d9ba" d="M 655.5,82.5 C 650.833,82.5 646.167,82.5 641.5,82.5C 642.641,81.661 643.974,80.9943 645.5,80.5C 648.971,81.0973 652.305,81.764 655.5,82.5 Z"/></g>
<g><path style="opacity:0.955" fill="#5ebca8" d="M 248.5,90.5 C 248.5,90.8333 248.5,91.1667 248.5,91.5C 248.5,92.8333 248.5,94.1667 248.5,95.5C 246.167,95.5 243.833,95.5 241.5,95.5C 238.833,95.5 236.167,95.5 233.5,95.5C 233.5,93.8333 233.5,92.1667 233.5,90.5C 234.21,88.1073 234.877,85.6073 235.5,83C 239.537,82.3933 243.537,82.56 247.5,83.5C 247.198,86.0593 247.532,88.3926 248.5,90.5 Z"/></g>
<g><path style="opacity:0.182" fill="#d5d9bd" d="M 641.5,82.5 C 641.5,82.8333 641.5,83.1667 641.5,83.5C 642.089,87.9707 641.423,91.9707 639.5,95.5C 637.097,95.448 634.764,95.7814 632.5,96.5C 632.611,95.8826 632.944,95.3826 633.5,95C 640.102,95.7348 642.102,93.0682 639.5,87C 639.525,85.124 640.191,83.624 641.5,82.5 Z"/></g>
<g><path style="opacity:1" fill="#1fb498" d="M 235.5,84.5 C 239.167,84.5 242.833,84.5 246.5,84.5C 246.5,87.8333 246.5,91.1667 246.5,94.5C 242.486,94.6655 238.486,94.4988 234.5,94C 235.451,90.9433 235.784,87.7766 235.5,84.5 Z"/></g>
<g><path style="opacity:0.183" fill="#b9e1d8" d="M 248.5,90.5 C 247.532,88.3926 247.198,86.0593 247.5,83.5C 243.537,82.56 239.537,82.3933 235.5,83C 234.877,85.6073 234.21,88.1073 233.5,90.5C 233.336,87.8127 233.503,85.146 234,82.5C 238.667,81.1667 243.333,81.1667 248,82.5C 248.497,85.146 248.664,87.8127 248.5,90.5 Z"/></g>
<g><path style="opacity:0.471" fill="#cedfc3" d="M 487.5,87.5 C 486.5,86.8333 485.5,86.1667 484.5,85.5C 482.81,83.6583 480.81,82.325 478.5,81.5C 473.085,78.1093 467.085,76.776 460.5,77.5C 453.599,76.45 447.599,78.1167 442.5,82.5C 440.167,84.1667 438.167,86.1667 436.5,88.5C 434.412,90.3356 433.079,92.6689 432.5,95.5C 431.167,97.8333 429.833,100.167 428.5,102.5C 430.892,90.2689 437.892,81.7689 449.5,77C 461.495,74.1321 472.828,75.7987 483.5,82C 485.464,83.451 486.797,85.2843 487.5,87.5 Z"/></g>
<g><path style="opacity:1" fill="#85c761" d="M 436.5,88.5 C 438.167,86.1667 440.167,84.1667 442.5,82.5C 444.117,81.962 445.784,81.6287 447.5,81.5C 449.14,91.3633 445.14,94.6967 435.5,91.5C 436.127,90.5832 436.461,89.5832 436.5,88.5 Z"/></g>
<g><path style="opacity:0.267" fill="#9fc6d6" d="M 50.5,79.5 C 43.9002,87.6358 41.2335,96.9691 42.5,107.5C 42.7038,110.518 43.0371,113.518 43.5,116.5C 42.2616,114.786 41.595,112.786 41.5,110.5C 40.5998,105.228 40.2665,99.8947 40.5,94.5C 41.3554,89.5834 43.3554,85.2501 46.5,81.5C 47.6049,80.3995 48.9382,79.7329 50.5,79.5 Z"/></g>
<g><path style="opacity:0.671" fill="#9ecbd4" d="M 107.5,82.5 C 109.915,85.3399 111.248,88.6733 111.5,92.5C 109.085,89.6601 107.752,86.3267 107.5,82.5 Z"/></g>
<g><path style="opacity:0.337" fill="#d8dd90" d="M 641.5,83.5 C 641.5,83.1667 641.5,82.8333 641.5,82.5C 646.167,82.5 650.833,82.5 655.5,82.5C 655.5,82.8333 655.5,83.1667 655.5,83.5C 655.5,87.5 655.5,91.5 655.5,95.5C 654.517,91.7016 654.183,87.7016 654.5,83.5C 650.167,83.5 645.833,83.5 641.5,83.5 Z"/></g>
<g><path style="opacity:0.561" fill="#a0c9da" d="M 44.5,74.5 C 43.1667,76.8333 41.8333,79.1667 40.5,81.5C 38.4062,84.097 37.0729,87.097 36.5,90.5C 35.8333,91.1667 35.1667,91.8333 34.5,92.5C 35.4912,87.5153 37.3245,82.8487 40,78.5C 41.3073,76.8082 42.8073,75.4749 44.5,74.5 Z"/></g>
<g><path style="opacity:0.92" fill="#a4cf73" d="M 484.5,85.5 C 485.5,86.1667 486.5,86.8333 487.5,87.5C 487.5,88.5 487.5,89.5 487.5,90.5C 487.5,94.1667 487.5,97.8333 487.5,101.5C 484.833,101.5 482.167,101.5 479.5,101.5C 478.833,101.5 478.5,101.167 478.5,100.5C 481.167,100.5 483.833,100.5 486.5,100.5C 486.5,98.8333 486.5,97.1667 486.5,95.5C 483.5,95.5 480.5,95.5 477.5,95.5C 477.5,96.8333 477.5,98.1667 477.5,99.5C 476.593,97.3432 475.927,95.0098 475.5,92.5C 478.921,94.1466 482.587,94.8132 486.5,94.5C 486.79,91.2153 486.123,88.2153 484.5,85.5 Z"/></g>
<g><path style="opacity:0.016" fill="#d1d5c2" d="M 603.5,84.5 C 603.5,84.8333 603.5,85.1667 603.5,85.5C 603.658,88.9023 603.324,92.2356 602.5,95.5C 602.167,95.5 601.833,95.5 601.5,95.5C 599.097,95.448 596.764,95.7814 594.5,96.5C 596.176,94.1663 598.509,93.1663 601.5,93.5C 601.858,90.3112 602.525,87.3112 603.5,84.5 Z"/></g>
<g><path style="opacity:0.176" fill="#d5e5ca" d="M 466.5,88.5 C 464.5,88.5 462.5,88.5 460.5,88.5C 451.92,89.9125 446.753,94.9125 445,103.5C 444.739,107.706 444.239,111.873 443.5,116C 444.341,120.551 445.341,125.051 446.5,129.5C 444.18,126.679 443.013,123.346 443,119.5C 442.324,114.129 442.491,108.796 443.5,103.5C 443.595,101.214 444.262,99.2143 445.5,97.5C 447.09,94.2392 449.424,91.5726 452.5,89.5C 457.063,87.2861 461.729,86.9528 466.5,88.5 Z"/></g>
<g><path style="opacity:0.043" fill="#c9cec3" d="M 460.5,88.5 C 462.5,88.5 464.5,88.5 466.5,88.5C 470.025,88.7886 473.025,90.122 475.5,92.5C 475.927,95.0098 476.593,97.3432 477.5,99.5C 477.5,100.167 477.833,100.5 478.5,100.5C 478.5,101.167 478.833,101.5 479.5,101.5C 481.948,102.473 484.615,102.806 487.5,102.5C 484.523,104.372 481.356,105.038 478,104.5C 476.06,99.6715 473.56,95.1715 470.5,91C 467.048,90.1153 463.714,89.282 460.5,88.5 Z"/></g>
<g><path style="opacity:0.053" fill="#cbcdc9" d="M 487.5,87.5 C 489.432,91.0312 491.098,94.6978 492.5,98.5C 491.5,98.5 490.5,98.5 489.5,98.5C 489.737,99.791 489.404,100.791 488.5,101.5C 488.815,97.6286 488.482,93.9619 487.5,90.5C 487.5,89.5 487.5,88.5 487.5,87.5 Z"/></g>
<g><path style="opacity:0.162" fill="#c1d6c3" d="M 364.5,94.5 C 364.328,95.4916 364.662,96.1583 365.5,96.5C 365.5,96.8333 365.5,97.1667 365.5,97.5C 365.337,99.8568 365.503,102.19 366,104.5C 367.955,105.453 369.622,106.787 371,108.5C 374.614,118.782 378.78,128.782 383.5,138.5C 383.5,139.833 383.5,141.167 383.5,142.5C 378.425,131.342 373.592,120.008 369,108.5C 367.89,106.963 366.39,106.297 364.5,106.5C 364.009,103.548 363.675,100.881 363.5,98.5C 361.985,101.811 361.485,105.144 362,108.5C 358.397,110.128 354.563,110.962 350.5,111C 349.364,112.145 348.364,113.312 347.5,114.5C 347.5,113.5 347.5,112.5 347.5,111.5C 351.511,109.962 355.677,108.628 360,107.5C 360.42,103.809 360.92,100.142 361.5,96.5C 358.5,96.5 355.5,96.5 352.5,96.5C 355.769,93.4403 359.269,93.1069 363,95.5C 363.383,94.944 363.883,94.6107 364.5,94.5 Z"/></g>
<g><path style="opacity:0.09" fill="#c7d8c7" d="M 364.5,94.5 C 373.506,94.3336 382.506,94.5002 391.5,95C 392.333,95.8333 393.167,96.6667 394,97.5C 394.708,96.6195 395.542,95.9528 396.5,95.5C 396.5,96.5 396.5,97.5 396.5,98.5C 395.167,98.5 393.833,98.5 392.5,98.5C 392.784,100.415 392.451,102.081 391.5,103.5C 391.802,100.941 391.468,98.6074 390.5,96.5C 382.167,96.5 373.833,96.5 365.5,96.5C 364.662,96.1583 364.328,95.4916 364.5,94.5 Z"/></g>
<g><path style="opacity:0.088" fill="#d5dfd2" d="M 397.5,95.5 C 405.99,94.3431 414.657,94.1764 423.5,95C 424.357,95.6891 425.023,96.5224 425.5,97.5C 424.787,99.7759 424.287,102.109 424,104.5C 422.67,105.582 421.17,106.249 419.5,106.5C 420.315,105.163 421.482,104.163 423,103.5C 423.796,100.961 423.629,98.6282 422.5,96.5C 414.35,95.5073 406.017,95.1739 397.5,95.5 Z"/></g>
<g><path style="opacity:0.129" fill="#e2e3d3" d="M 655.5,83.5 C 656.482,86.9619 656.815,90.6286 656.5,94.5C 659.187,94.3359 661.854,94.5026 664.5,95C 665.056,95.3826 665.389,95.8826 665.5,96.5C 665.167,96.5 664.833,96.5 664.5,96.5C 661.609,95.5975 658.609,95.2641 655.5,95.5C 655.5,91.5 655.5,87.5 655.5,83.5 Z"/></g>
<g><path style="opacity:0.557" fill="#87bcd5" d="M 27.5,66.5 C 27.5,72.8333 27.5,79.1667 27.5,85.5C 28.3726,89.7685 28.7059,94.1018 28.5,98.5C 28.1667,98.5 27.8333,98.5 27.5,98.5C 27.1667,98.5 26.8333,98.5 26.5,98.5C 26.1722,87.6536 26.5056,76.9869 27.5,66.5 Z"/></g>
<g><path style="opacity:1" fill="#0d95d6" d="M 46.5,81.5 C 43.3554,85.2501 41.3554,89.5834 40.5,94.5C 39.3503,99.3158 39.1837,104.316 40,109.5C 40.3826,110.056 40.8826,110.389 41.5,110.5C 41.595,112.786 42.2616,114.786 43.5,116.5C 44.1667,117.167 44.8333,117.833 45.5,118.5C 45.5,120.5 45.5,122.5 45.5,124.5C 43.8333,124.5 42.1667,124.5 40.5,124.5C 38.6284,120.739 37.2951,116.739 36.5,112.5C 35.1667,105.167 35.1667,97.8333 36.5,90.5C 37.0729,87.097 38.4062,84.097 40.5,81.5C 42.175,79.998 44.0083,78.6647 46,77.5C 46.49,78.7932 46.6567,80.1266 46.5,81.5 Z"/></g>
<g><path style="opacity:1" fill="#2aa5ca" d="M 76.5,126.5 C 75.8333,126.5 75.1667,126.5 74.5,126.5C 74.9227,124.219 74.256,122.552 72.5,121.5C 75.4729,119.194 78.1395,116.527 80.5,113.5C 81.9663,112.653 82.7996,111.32 83,109.5C 83.4986,105.848 83.6653,102.182 83.5,98.5C 80.1667,98.5 76.8333,98.5 73.5,98.5C 76.6893,97.8339 80.0227,97.1672 83.5,96.5C 82.9747,95.8076 82.3081,95.3076 81.5,95C 77.5,94.3333 73.5,94.3333 69.5,95C 67.8309,96.669 65.8309,97.5023 63.5,97.5C 63.5,97.1667 63.5,96.8333 63.5,96.5C 64.9649,95.2632 66.6316,94.2632 68.5,93.5C 89.4267,87.258 95.9267,94.258 88,114.5C 84.5872,119.076 80.7539,123.076 76.5,126.5 Z"/></g>
<g><path style="opacity:1" fill="#20a5c3" d="M 101.5,76.5 C 102.391,77.1098 103.391,77.4431 104.5,77.5C 105.11,79.4341 106.11,81.1007 107.5,82.5C 107.752,86.3267 109.085,89.6601 111.5,92.5C 111.5,92.8333 111.5,93.1667 111.5,93.5C 111.746,99.5594 111.413,105.559 110.5,111.5C 108.757,114.495 107.757,117.829 107.5,121.5C 105.916,123.751 103.916,125.751 101.5,127.5C 101.663,125.143 101.497,122.81 101,120.5C 100.617,121.056 100.117,121.389 99.5,121.5C 101.336,118.817 102.336,115.817 102.5,112.5C 104.164,111.051 104.998,109.051 105,106.5C 105.717,100.775 105.384,95.1087 104,89.5C 102.951,87.3825 101.451,85.7158 99.5,84.5C 99.4431,83.391 99.1098,82.391 98.5,81.5C 99.4959,81.4142 100.329,81.7476 101,82.5C 101.495,80.5273 101.662,78.5273 101.5,76.5 Z"/></g>
<g><path style="opacity:0.384" fill="#c0dcd4" d="M 248.5,91.5 C 249.404,92.209 249.737,93.209 249.5,94.5C 252.553,94.1107 255.22,94.7773 257.5,96.5C 254.482,96.2962 251.482,95.9629 248.5,95.5C 248.5,94.1667 248.5,92.8333 248.5,91.5 Z"/></g>
<g><path style="opacity:0.042" fill="#c0d1c9" d="M 300.5,96.5 C 294.167,96.5 287.833,96.5 281.5,96.5C 285.231,95.8045 289.065,95.1378 293,94.5C 295.607,95.1233 298.107,95.79 300.5,96.5 Z"/></g>
<g><path style="opacity:0.374" fill="#bdd8c6" d="M 344.5,96.5 C 337.646,96.176 330.979,96.5093 324.5,97.5C 323.539,99.2646 323.205,101.265 323.5,103.5C 321.994,100.531 322.327,97.6975 324.5,95C 330.339,94.6175 336.006,94.4508 341.5,94.5C 342.739,94.9424 343.739,95.6091 344.5,96.5 Z"/></g>
<g><path style="opacity:0.476" fill="#b3daac" d="M 396.5,95.5 C 396.833,95.5 397.167,95.5 397.5,95.5C 406.017,95.1739 414.35,95.5073 422.5,96.5C 414.167,96.5 405.833,96.5 397.5,96.5C 397.5,98.8333 397.5,101.167 397.5,103.5C 397.167,103.5 396.833,103.5 396.5,103.5C 396.5,101.833 396.5,100.167 396.5,98.5C 396.5,97.5 396.5,96.5 396.5,95.5 Z"/></g>
<g><path style="opacity:1" fill="#82c762" d="M 432.5,95.5 C 437.294,94.9031 441.627,95.5698 445.5,97.5C 444.262,99.2143 443.595,101.214 443.5,103.5C 442.778,103.918 442.278,104.584 442,105.5C 441.293,111.857 441.46,118.19 442.5,124.5C 442.291,125.994 441.624,127.161 440.5,128C 441.406,129.699 441.739,131.533 441.5,133.5C 443.95,133.298 446.283,133.631 448.5,134.5C 448.525,137.179 449.858,138.512 452.5,138.5C 452.5,141.833 452.5,145.167 452.5,148.5C 450.784,148.371 449.117,148.038 447.5,147.5C 439.833,144.5 434.5,139.167 431.5,131.5C 428.809,122.056 427.809,112.389 428.5,102.5C 429.833,100.167 431.167,97.8333 432.5,95.5 Z"/></g>
<g><path style="opacity:1" fill="#94c955" d="M 478.5,100.5 C 477.833,100.5 477.5,100.167 477.5,99.5C 477.5,98.1667 477.5,96.8333 477.5,95.5C 480.5,95.5 483.5,95.5 486.5,95.5C 486.5,97.1667 486.5,98.8333 486.5,100.5C 483.833,100.5 481.167,100.5 478.5,100.5 Z"/></g>
<g><path style="opacity:0.628" fill="#c7dbac" d="M 514.5,95.5 C 514.5,95.8333 514.5,96.1667 514.5,96.5C 508.167,96.5 501.833,96.5 495.5,96.5C 495.5,98.1667 495.5,99.8333 495.5,101.5C 494.539,99.7354 494.205,97.7354 494.5,95.5C 501.167,94.1667 507.833,94.1667 514.5,95.5 Z"/></g>
<g><path style="opacity:0.345" fill="#d8e1c0" d="M 572.5,96.5 C 565.833,96.5 559.167,96.5 552.5,96.5C 559.182,93.9964 565.848,93.9964 572.5,96.5 Z"/></g>
<g><path style="opacity:1" fill="#c7d132" d="M 601.5,95.5 C 601.833,95.5 602.167,95.5 602.5,95.5C 607.511,95.3341 612.511,95.5007 617.5,96C 616.115,97.9645 616.282,99.7979 618,101.5C 618.49,100.207 618.657,98.8734 618.5,97.5C 621.5,97.5 624.5,97.5 627.5,97.5C 627.326,99.861 626.993,102.194 626.5,104.5C 622.692,104.163 619.026,104.663 615.5,106C 616.832,115.567 617.832,125.067 618.5,134.5C 618.357,136.262 618.691,137.929 619.5,139.5C 621.422,140.711 623.255,142.044 625,143.5C 625.497,145.81 625.663,148.143 625.5,150.5C 615.833,150.5 606.167,150.5 596.5,150.5C 596.5,148.167 596.5,145.833 596.5,143.5C 597.262,141.738 598.596,140.738 600.5,140.5C 601.492,140.672 602.158,140.338 602.5,139.5C 604.478,128.549 605.144,117.216 604.5,105.5C 601.5,105.5 598.5,105.5 595.5,105.5C 595.5,102.833 595.5,100.167 595.5,97.5C 597.898,97.7406 599.898,97.0739 601.5,95.5 Z"/></g>
<g><path style="opacity:0.998" fill="#cdd653" d="M 603.5,85.5 C 603.833,85.5 604.167,85.5 604.5,85.5C 604.5,88.5 604.5,91.5 604.5,94.5C 608.833,94.5 613.167,94.5 617.5,94.5C 617.19,91.2869 617.523,88.2869 618.5,85.5C 618.5,88.8333 618.5,92.1667 618.5,95.5C 627.493,93.5271 630.493,96.8604 627.5,105.5C 624.579,106.407 621.579,106.74 618.5,106.5C 618.5,115.833 618.5,125.167 618.5,134.5C 617.832,125.067 616.832,115.567 615.5,106C 619.026,104.663 622.692,104.163 626.5,104.5C 626.993,102.194 627.326,99.861 627.5,97.5C 624.5,97.5 621.5,97.5 618.5,97.5C 618.657,98.8734 618.49,100.207 618,101.5C 616.282,99.7979 616.115,97.9645 617.5,96C 612.511,95.5007 607.511,95.3341 602.5,95.5C 603.324,92.2356 603.658,88.9023 603.5,85.5 Z"/></g>
<g><path style="opacity:0.071" fill="#b0cbd0" d="M 99.5,84.5 C 101.451,85.7158 102.951,87.3825 104,89.5C 105.384,95.1087 105.717,100.775 105,106.5C 104.998,109.051 104.164,111.051 102.5,112.5C 105.397,102.753 104.397,93.4198 99.5,84.5 Z"/></g>
<g><path style="opacity:0.231" fill="#b5dad5" d="M 196.5,95.5 C 202.166,94.8109 207.833,95.6443 213.5,98C 214.056,98.3826 214.389,98.8826 214.5,99.5C 208.565,97.8493 202.565,96.516 196.5,95.5 Z"/></g>
<g><path style="opacity:0.754" fill="#77c5a4" d="M 280.5,96.5 C 280.833,96.5 281.167,96.5 281.5,96.5C 287.833,96.5 294.167,96.5 300.5,96.5C 300.5,97.1667 300.5,97.8333 300.5,98.5C 300.167,98.5 299.833,98.5 299.5,98.5C 292.203,97.0256 284.87,97.3589 277.5,99.5C 278.306,98.2719 279.306,97.2719 280.5,96.5 Z"/></g>
<g><path style="opacity:0.862" fill="#7ac795" d="M 324.5,97.5 C 330.979,96.5093 337.646,96.176 344.5,96.5C 344.5,97.8333 344.5,99.1667 344.5,100.5C 343.596,99.791 343.263,98.791 343.5,97.5C 337.167,97.5 330.833,97.5 324.5,97.5 Z"/></g>
<g><path style="opacity:0.905" fill="#aed36c" d="M 514.5,96.5 C 516.308,97.9179 516.975,99.9179 516.5,102.5C 517.5,102.5 518.5,102.5 519.5,102.5C 518.745,104.466 517.579,104.8 516,103.5C 515.505,101.527 515.338,99.5273 515.5,97.5C 509.167,97.5 502.833,97.5 496.5,97.5C 496.298,99.9496 496.631,102.283 497.5,104.5C 495.952,104.179 495.285,103.179 495.5,101.5C 495.5,99.8333 495.5,98.1667 495.5,96.5C 501.833,96.5 508.167,96.5 514.5,96.5 Z"/></g>
<g><path style="opacity:0.884" fill="#c3df85" d="M 524.5,96.5 C 527.187,96.3359 529.854,96.5026 532.5,97C 533.811,99.2735 533.811,101.44 532.5,103.5C 532.739,101.533 532.406,99.6995 531.5,98C 528.779,97.3985 526.113,97.5651 523.5,98.5C 523.833,97.8333 524.167,97.1667 524.5,96.5 Z"/></g>
<g><path style="opacity:0.075" fill="#ced2c4" d="M 551.5,96.5 C 550.22,97.9313 548.553,98.5979 546.5,98.5C 547.78,97.0687 549.447,96.4021 551.5,96.5 Z"/></g>
<g><path style="opacity:0.782" fill="#bbd36a" d="M 551.5,96.5 C 551.833,96.5 552.167,96.5 552.5,96.5C 559.167,96.5 565.833,96.5 572.5,96.5C 573.167,97.1667 573.833,97.8333 574.5,98.5C 573.417,98.5394 572.417,98.8728 571.5,99.5C 570.476,98.1468 569.143,97.4802 567.5,97.5C 562.821,97.3342 558.155,97.5008 553.5,98C 551.073,99.5914 548.407,100.425 545.5,100.5C 545.833,99.8333 546.167,99.1667 546.5,98.5C 548.553,98.5979 550.22,97.9313 551.5,96.5 Z"/></g>
<g><path style="opacity:1" fill="#d4d22e" d="M 641.5,83.5 C 645.833,83.5 650.167,83.5 654.5,83.5C 654.183,87.7016 654.517,91.7016 655.5,95.5C 658.609,95.2641 661.609,95.5975 664.5,96.5C 664.665,99.5184 664.498,102.518 664,105.5C 660.943,106.451 657.777,106.784 654.5,106.5C 657.311,105.525 660.311,104.858 663.5,104.5C 663.5,102.167 663.5,99.8333 663.5,97.5C 658.819,97.3314 654.152,96.9981 649.5,96.5C 648.229,99.6864 647.229,103.02 646.5,106.5C 647.5,106.5 648.5,106.5 649.5,106.5C 649.432,114.21 649.432,121.71 649.5,129C 648.707,130.085 648.04,131.252 647.5,132.5C 649.104,134.179 649.771,136.179 649.5,138.5C 648.167,138.5 646.833,138.5 645.5,138.5C 645.337,140.857 645.503,143.19 646,145.5C 647.011,144.663 648.178,144.33 649.5,144.5C 649.5,145.833 649.5,147.167 649.5,148.5C 654.5,148.5 659.5,148.5 664.5,148.5C 659.36,149.488 654.026,149.821 648.5,149.5C 647.738,147.738 646.404,146.738 644.5,146.5C 644.371,144.784 644.038,143.117 643.5,141.5C 643.21,134.984 642.543,128.65 641.5,122.5C 641.5,117.167 641.5,111.833 641.5,106.5C 638.941,106.802 636.607,106.468 634.5,105.5C 633.612,102.946 633.279,100.279 633.5,97.5C 636.082,97.9746 638.082,97.3079 639.5,95.5C 641.423,91.9707 642.089,87.9707 641.5,83.5 Z"/></g>
<g><path style="opacity:1" fill="#d5d223" d="M 642.5,84.5 C 646.167,84.5 649.833,84.5 653.5,84.5C 653.5,87.8333 653.5,91.1667 653.5,94.5C 649.833,94.5 646.167,94.5 642.5,94.5C 642.5,91.1667 642.5,87.8333 642.5,84.5 Z"/></g>
<g><path style="opacity:1" fill="#d7d325" d="M 654.5,106.5 C 654.174,114.684 654.508,122.684 655.5,130.5C 655.56,133.341 656.226,136.007 657.5,138.5C 659.76,140.434 662.26,142.101 665,143.5C 665.494,145.134 665.66,146.801 665.5,148.5C 665.167,148.5 664.833,148.5 664.5,148.5C 659.5,148.5 654.5,148.5 649.5,148.5C 649.5,147.167 649.5,145.833 649.5,144.5C 648.178,144.33 647.011,144.663 646,145.5C 645.503,143.19 645.337,140.857 645.5,138.5C 646.833,138.5 648.167,138.5 649.5,138.5C 649.771,136.179 649.104,134.179 647.5,132.5C 648.04,131.252 648.707,130.085 649.5,129C 649.432,121.71 649.432,114.21 649.5,106.5C 648.5,106.5 647.5,106.5 646.5,106.5C 647.229,103.02 648.229,99.6864 649.5,96.5C 654.152,96.9981 658.819,97.3314 663.5,97.5C 663.5,99.8333 663.5,102.167 663.5,104.5C 660.311,104.858 657.311,105.525 654.5,106.5 Z"/></g>
<g><path style="opacity:0.596" fill="#9ecfcc" d="M 196.5,95.5 C 194.285,96.2679 191.952,96.9346 189.5,97.5C 183.036,99.0626 178.369,102.729 175.5,108.5C 176.499,101.664 180.499,97.4969 187.5,96C 190.482,95.502 193.482,95.3354 196.5,95.5 Z"/></g>
<g><path style="opacity:1" fill="#23b2a7" d="M 196.5,95.5 C 202.565,96.516 208.565,97.8493 214.5,99.5C 214.783,100.289 215.283,100.956 216,101.5C 216.499,105.821 216.666,110.154 216.5,114.5C 213.162,114.935 210.162,114.268 207.5,112.5C 207.067,109.805 205.734,107.638 203.5,106C 199.113,105.294 194.78,105.46 190.5,106.5C 189.691,104.708 189.191,102.708 189,100.5C 188.086,101.654 187.253,101.487 186.5,100C 188.119,99.7645 189.119,98.9311 189.5,97.5C 191.952,96.9346 194.285,96.2679 196.5,95.5 Z"/></g>
<g><path style="opacity:1" fill="#1db398" d="M 232.5,95.5 C 232.833,95.5 233.167,95.5 233.5,95.5C 236.167,95.5 238.833,95.5 241.5,95.5C 242.263,96.2679 243.263,96.7679 244.5,97C 243.376,97.2492 242.376,97.7492 241.5,98.5C 243.833,99.1667 246.167,99.8333 248.5,100.5C 247.726,101.711 246.893,101.711 246,100.5C 245.009,101.43 244.509,102.596 244.5,104C 245.435,113.47 245.768,122.97 245.5,132.5C 242.57,133.787 240.237,133.287 238.5,131C 239.648,122.912 239.815,114.746 239,106.5C 236.003,105.134 232.836,104.467 229.5,104.5C 227.656,102.721 226.99,100.388 227.5,97.5C 229.781,97.9227 231.448,97.256 232.5,95.5 Z"/></g>
<g><path style="opacity:1" fill="#44ba90" d="M 299.5,98.5 C 297.143,98.3367 294.81,98.5034 292.5,99C 293.5,100 294.5,101 295.5,102C 293.754,102.471 292.087,103.138 290.5,104C 291.76,105.113 292.927,105.28 294,104.5C 294.717,105.044 295.217,105.711 295.5,106.5C 291.988,105.945 288.988,106.612 286.5,108.5C 282.808,108.695 280.974,110.695 281,114.5C 280.333,120.5 280.333,126.5 281,132.5C 281.278,133.416 281.778,134.082 282.5,134.5C 283.422,136.816 285.089,138.483 287.5,139.5C 288.79,140.935 290.456,141.935 292.5,142.5C 294.086,144.173 294.753,146.173 294.5,148.5C 295.833,148.5 297.167,148.5 298.5,148.5C 292.69,149.49 286.69,149.823 280.5,149.5C 276.623,147.3 273.29,144.3 270.5,140.5C 273.984,142.116 274.984,141.116 273.5,137.5C 274.685,136.147 276.019,134.98 277.5,134C 277.167,133.667 276.833,133.333 276.5,133C 277.516,132.481 278.182,131.647 278.5,130.5C 277.846,129.496 277.013,128.496 276,127.5C 275.5,119.841 275.334,112.174 275.5,104.5C 273.784,104.629 272.117,104.962 270.5,105.5C 272.239,102.757 274.573,100.757 277.5,99.5C 284.87,97.3589 292.203,97.0256 299.5,98.5 Z"/></g>
<g><path style="opacity:1" fill="#68c273" d="M 365.5,97.5 C 371.332,96.7543 376.666,97.7543 381.5,100.5C 382.332,110.149 382.832,119.816 383,129.5C 383.645,130.646 384.478,131.646 385.5,132.5C 383.896,134.179 383.229,136.179 383.5,138.5C 378.78,128.782 374.614,118.782 371,108.5C 369.622,106.787 367.955,105.453 366,104.5C 365.503,102.19 365.337,99.8568 365.5,97.5 Z"/></g>
<g><path style="opacity:1" fill="#82c778" d="M 422.5,96.5 C 423.629,98.6282 423.796,100.961 423,103.5C 421.482,104.163 420.315,105.163 419.5,106.5C 419.167,106.5 418.833,106.5 418.5,106.5C 419.977,103.482 421.311,100.482 422.5,97.5C 414.873,96.994 407.54,98.1606 400.5,101C 403.724,103.839 404.058,106.672 401.5,109.5C 401.539,108.417 401.873,107.417 402.5,106.5C 400.456,105.935 398.79,104.935 397.5,103.5C 397.5,101.167 397.5,98.8333 397.5,96.5C 405.833,96.5 414.167,96.5 422.5,96.5 Z"/></g>
<g><path style="opacity:1" fill="#76c56a" d="M 418.5,106.5 C 417.21,107.058 416.377,108.058 416,109.5C 413.276,117.459 410.109,125.126 406.5,132.5C 405.5,132.5 404.5,132.5 403.5,132.5C 402.36,127.348 401.194,127.348 400,132.5C 399.359,126.472 399.526,120.472 400.5,114.5C 401.301,112.958 401.634,111.292 401.5,109.5C 404.058,106.672 403.724,103.839 400.5,101C 407.54,98.1606 414.873,96.994 422.5,97.5C 421.311,100.482 419.977,103.482 418.5,106.5 Z"/></g>
<g><path style="opacity:1" fill="#a1cb50" d="M 519.5,102.5 C 520.5,100.833 521.833,99.5 523.5,98.5C 526.113,97.5651 528.779,97.3985 531.5,98C 532.406,99.6995 532.739,101.533 532.5,103.5C 532.703,105.39 532.037,106.89 530.5,108C 528.414,108.315 526.414,108.815 524.5,109.5C 521.491,109.423 519.324,110.756 518,113.5C 517.333,121.833 517.333,130.167 518,138.5C 519.98,139.749 521.813,141.082 523.5,142.5C 523.5,144.833 523.5,147.167 523.5,149.5C 514.833,149.5 506.167,149.5 497.5,149.5C 496.903,149.265 496.57,148.765 496.5,148C 497.113,145.284 498.113,142.784 499.5,140.5C 501.062,140.267 502.395,139.6 503.5,138.5C 504.495,127.679 504.828,116.679 504.5,105.5C 503.167,105.5 501.833,105.5 500.5,105.5C 499.209,105.737 498.209,105.404 497.5,104.5C 496.631,102.283 496.298,99.9496 496.5,97.5C 502.833,97.5 509.167,97.5 515.5,97.5C 515.338,99.5273 515.505,101.527 516,103.5C 517.579,104.8 518.745,104.466 519.5,102.5 Z"/></g>
<g><path style="opacity:0.157" fill="#e2e7cf" d="M 572.5,96.5 C 577.305,96.8894 580.638,99.2228 582.5,103.5C 580.348,101.015 577.681,99.3485 574.5,98.5C 573.833,97.8333 573.167,97.1667 572.5,96.5 Z"/></g>
<g><path style="opacity:0.039" fill="#c7c8c7" d="M 28.5,98.5 C 29.7251,99.1522 30.3917,100.319 30.5,102C 30.1667,103.167 29.8333,104.333 29.5,105.5C 28.5258,103.257 28.1924,100.924 28.5,98.5 Z"/></g>
<g><path style="opacity:0.016" fill="#c3cdcb" d="M 233.5,90.5 C 233.5,92.1667 233.5,93.8333 233.5,95.5C 233.167,95.5 232.833,95.5 232.5,95.5C 230.064,95.317 227.897,95.9837 226,97.5C 225.264,100.592 225.431,103.592 226.5,106.5C 224.983,106.489 223.816,105.823 223,104.5C 221.869,105.604 221.035,105.271 220.5,103.5C 222.043,100.914 223.709,98.414 225.5,96C 227.677,94.7978 230.011,94.2978 232.5,94.5C 232.232,92.901 232.566,91.5676 233.5,90.5 Z"/></g>
<g><path style="opacity:0.614" fill="#9fcfb0" d="M 324.5,97.5 C 323.808,102.569 325.975,105.569 331,106.5C 331.825,116.675 331.658,126.675 330.5,136.5C 330.827,126.652 330.494,116.986 329.5,107.5C 326.775,107.063 324.775,105.73 323.5,103.5C 323.205,101.265 323.539,99.2646 324.5,97.5 Z"/></g>
<g><path style="opacity:0.433" fill="#c5dcac" d="M 487.5,90.5 C 488.482,93.9619 488.815,97.6286 488.5,101.5C 488.5,102.167 488.167,102.5 487.5,102.5C 484.615,102.806 481.948,102.473 479.5,101.5C 482.167,101.5 484.833,101.5 487.5,101.5C 487.5,97.8333 487.5,94.1667 487.5,90.5 Z"/></g>
<g><path style="opacity:0.725" fill="#c6d471" d="M 601.5,95.5 C 599.898,97.0739 597.898,97.7406 595.5,97.5C 595.5,100.167 595.5,102.833 595.5,105.5C 594.527,103.052 594.194,100.385 594.5,97.5C 594.5,97.1667 594.5,96.8333 594.5,96.5C 596.764,95.7814 599.097,95.448 601.5,95.5 Z"/></g>
<g><path style="opacity:0.721" fill="#40aedb" d="M 40.5,94.5 C 40.2665,99.8947 40.5998,105.228 41.5,110.5C 40.8826,110.389 40.3826,110.056 40,109.5C 39.1837,104.316 39.3503,99.3158 40.5,94.5 Z"/></g>
<g><path style="opacity:1" fill="#1eaeac" d="M 189.5,97.5 C 189.119,98.9311 188.119,99.7645 186.5,100C 187.253,101.487 188.086,101.654 189,100.5C 189.191,102.708 189.691,104.708 190.5,106.5C 189.258,108.611 189.258,110.611 190.5,112.5C 191.3,114.573 192.633,116.24 194.5,117.5C 192.148,118.952 191.815,120.952 193.5,123.5C 192.757,124.182 192.091,124.849 191.5,125.5C 188.794,125.425 186.127,125.092 183.5,124.5C 178.282,120.927 175.615,115.927 175.5,109.5C 175.5,109.167 175.5,108.833 175.5,108.5C 178.369,102.729 183.036,99.0626 189.5,97.5 Z"/></g>
<g><path style="opacity:1" fill="#5dc07d" d="M 352.5,96.5 C 355.5,96.5 358.5,96.5 361.5,96.5C 360.92,100.142 360.42,103.809 360,107.5C 355.677,108.628 351.511,109.962 347.5,111.5C 346.778,111.918 346.278,112.584 346,113.5C 345.177,122.01 345.343,130.344 346.5,138.5C 347.539,140.531 349.205,141.864 351.5,142.5C 351.5,144.5 351.5,146.5 351.5,148.5C 347.833,148.5 344.167,148.5 340.5,148.5C 340.739,146.533 340.406,144.699 339.5,143C 341.037,141.89 341.703,140.39 341.5,138.5C 339.5,138.5 337.5,138.5 335.5,138.5C 335.5,136.833 335.5,135.167 335.5,133.5C 337.167,133.5 338.833,133.5 340.5,133.5C 340.334,124.161 340.5,114.827 341,105.5C 342.959,103.312 345.126,101.979 347.5,101.5C 349.5,100.167 351.167,98.5 352.5,96.5 Z"/></g>
<g><path style="opacity:0.596" fill="#a9d7a6" d="M 390.5,96.5 C 391.468,98.6074 391.802,100.941 391.5,103.5C 391.5,104.167 391.167,104.5 390.5,104.5C 389.167,104.833 387.833,105.167 386.5,105.5C 387.183,103.824 388.517,103.157 390.5,103.5C 390.5,101.167 390.5,98.8333 390.5,96.5 Z"/></g>
<g><path style="opacity:0.125" fill="#dce7c8" d="M 514.5,96.5 C 514.5,96.1667 514.5,95.8333 514.5,95.5C 517.329,95.3249 518.996,96.6582 519.5,99.5C 520.94,98.0476 522.606,97.0476 524.5,96.5C 524.167,97.1667 523.833,97.8333 523.5,98.5C 521.833,99.5 520.5,100.833 519.5,102.5C 518.5,102.5 517.5,102.5 516.5,102.5C 516.975,99.9179 516.308,97.9179 514.5,96.5 Z"/></g>
<g><path style="opacity:0.686" fill="#dae16d" d="M 639.5,95.5 C 638.082,97.3079 636.082,97.9746 633.5,97.5C 633.279,100.279 633.612,102.946 634.5,105.5C 633.833,105.5 633.167,105.5 632.5,105.5C 632.5,102.5 632.5,99.5 632.5,96.5C 634.764,95.7814 637.097,95.448 639.5,95.5 Z"/></g>
<g><path style="opacity:0.224" fill="#bad0c4" d="M 300.5,96.5 C 302.924,97.0305 305.257,97.8638 307.5,99C 308.252,99.6708 308.586,100.504 308.5,101.5C 306.072,99.9565 303.406,98.9565 300.5,98.5C 300.5,97.8333 300.5,97.1667 300.5,96.5 Z"/></g>
<g><path style="opacity:0.176" fill="#cbe7d2" d="M 344.5,96.5 C 345.29,97.6085 345.79,98.9419 346,100.5C 348.069,98.9146 350.236,97.5813 352.5,96.5C 351.167,98.5 349.5,100.167 347.5,101.5C 346.209,101.737 345.209,101.404 344.5,100.5C 344.5,99.1667 344.5,97.8333 344.5,96.5 Z"/></g>
<g><path style="opacity:0.088" fill="#e6efd5" d="M 524.5,110.5 C 524.5,110.167 524.5,109.833 524.5,109.5C 526.414,108.815 528.414,108.315 530.5,108C 532.037,106.89 532.703,105.39 532.5,103.5C 533.811,101.44 533.811,99.2735 532.5,97C 529.854,96.5026 527.187,96.3359 524.5,96.5C 526.795,94.615 529.462,94.115 532.5,95C 534.987,99.3784 534.987,103.878 532.5,108.5C 530.057,110.055 527.39,110.722 524.5,110.5 Z"/></g>
<g><path style="opacity:0.435" fill="#b0cbd5" d="M 34.5,92.5 C 34.5,98.8333 34.5,105.167 34.5,111.5C 31.9147,105.175 31.9147,98.8416 34.5,92.5 Z"/></g>
<g><path style="opacity:0.008" fill="#c2cdcf" d="M 111.5,93.5 C 112.37,96.478 113.37,99.478 114.5,102.5C 113.412,106.32 112.079,109.986 110.5,113.5C 110.5,112.833 110.5,112.167 110.5,111.5C 111.413,105.559 111.746,99.5594 111.5,93.5 Z"/></g>
<g><path style="opacity:1" fill="#35acbf" d="M 125.5,62.5 C 125.833,62.5 126.167,62.5 126.5,62.5C 126.333,74.5046 126.5,86.5046 127,98.5C 128.484,102.132 130.484,105.466 133,108.5C 133.667,110.833 133.667,113.167 133,115.5C 130.957,117.208 129.29,119.208 128,121.5C 127.067,133.818 126.567,146.151 126.5,158.5C 126.5,159.167 126.5,159.833 126.5,160.5C 126.167,160.5 125.833,160.5 125.5,160.5C 125.5,152.167 125.5,143.833 125.5,135.5C 124.022,135.762 122.689,135.429 121.5,134.5C 122.025,132.012 122.858,129.679 124,127.5C 124.821,124.446 124.655,121.446 123.5,118.5C 122.935,120.544 121.935,122.21 120.5,123.5C 121.219,121.236 121.552,118.903 121.5,116.5C 123.101,115.481 124.101,113.981 124.5,112C 122.271,107.631 120.604,103.131 119.5,98.5C 119.5,87.8333 119.5,77.1667 119.5,66.5C 120.33,74.3485 121.163,82.3485 122,90.5C 122.5,91 123,91.5 123.5,92C 121.068,93.0875 121.402,93.5875 124.5,93.5C 125.018,84.5468 124.351,75.7135 122.5,67C 122.935,63.937 123.768,63.7703 125,66.5C 125.49,65.2068 125.657,63.8734 125.5,62.5 Z"/></g>
<g><path style="opacity:0.996" fill="#5cbdac" d="M 232.5,95.5 C 231.448,97.256 229.781,97.9227 227.5,97.5C 226.99,100.388 227.656,102.721 229.5,104.5C 230.833,105.167 232.167,105.833 233.5,106.5C 231.167,106.5 228.833,106.5 226.5,106.5C 225.431,103.592 225.264,100.592 226,97.5C 227.897,95.9837 230.064,95.317 232.5,95.5 Z"/></g>
<g><path style="opacity:1" fill="#49bc86" d="M 308.5,103.5 C 312.307,106.109 314.307,109.776 314.5,114.5C 314.5,120.167 314.5,125.833 314.5,131.5C 310.985,131.288 307.652,131.288 304.5,131.5C 304.167,131 303.833,130.5 303.5,130C 303.232,121.946 303.565,113.78 304.5,105.5C 303.167,104.833 301.833,104.167 300.5,103.5C 301.391,102.41 302.391,102.41 303.5,103.5C 304.192,102.975 304.692,102.308 305,101.5C 305.71,102.973 306.876,103.64 308.5,103.5 Z"/></g>
<g><path style="opacity:0.173" fill="#cbcfc2" d="M 546.5,98.5 C 546.167,99.1667 545.833,99.8333 545.5,100.5C 543.973,100.427 542.973,101.094 542.5,102.5C 541.539,104.265 541.205,106.265 541.5,108.5C 539.079,103.192 540.746,99.8582 546.5,98.5 Z"/></g>
<g><path style="opacity:1" fill="#38a9db" d="M 36.5,90.5 C 35.1667,97.8333 35.1667,105.167 36.5,112.5C 35.8333,112.167 35.1667,111.833 34.5,111.5C 34.5,105.167 34.5,98.8333 34.5,92.5C 35.1667,91.8333 35.8333,91.1667 36.5,90.5 Z"/></g>
<g><path style="opacity:0.031" fill="#b8d1d9" d="M 73.5,98.5 C 76.8333,98.5 80.1667,98.5 83.5,98.5C 83.6653,102.182 83.4986,105.848 83,109.5C 82.7996,111.32 81.9663,112.653 80.5,113.5C 82.1116,109.006 82.7783,104.339 82.5,99.5C 71.756,99.546 64.0893,104.546 59.5,114.5C 61.377,106.758 66.0437,101.425 73.5,98.5 Z"/></g>
<g><path style="opacity:0.231" fill="#b2c7bf" d="M 280.5,96.5 C 279.306,97.2719 278.306,98.2719 277.5,99.5C 274.573,100.757 272.239,102.757 270.5,105.5C 268.643,108.417 266.976,111.417 265.5,114.5C 266.902,105.436 271.902,99.4364 280.5,96.5 Z"/></g>
<g><path style="opacity:1" fill="#71c372" d="M 365.5,97.5 C 365.5,97.1667 365.5,96.8333 365.5,96.5C 373.833,96.5 382.167,96.5 390.5,96.5C 390.5,98.8333 390.5,101.167 390.5,103.5C 388.517,103.157 387.183,103.824 386.5,105.5C 385.167,106.5 385.167,107.5 386.5,108.5C 386.415,111.649 387.415,114.316 389.5,116.5C 389.34,118.199 389.506,119.866 390,121.5C 391.774,123.651 393.274,125.984 394.5,128.5C 395.477,126.589 396.143,124.589 396.5,122.5C 396.5,121.833 396.5,121.167 396.5,120.5C 397.956,118.63 399.289,116.63 400.5,114.5C 399.526,120.472 399.359,126.472 400,132.5C 401.194,127.348 402.36,127.348 403.5,132.5C 404.5,132.5 405.5,132.5 406.5,132.5C 403.739,142.234 400.072,151.567 395.5,160.5C 392.737,163.252 390.403,166.252 388.5,169.5C 383.621,170.69 378.787,170.69 374,169.5C 373.333,166.833 373.333,164.167 374,161.5C 382.904,160.275 386.904,155.275 386,146.5C 385.392,144.934 384.558,143.6 383.5,142.5C 383.5,141.167 383.5,139.833 383.5,138.5C 383.229,136.179 383.896,134.179 385.5,132.5C 384.478,131.646 383.645,130.646 383,129.5C 382.832,119.816 382.332,110.149 381.5,100.5C 376.666,97.7543 371.332,96.7543 365.5,97.5 Z"/></g>
<g><path style="opacity:0.149" fill="#e2e5cc" d="M 626.5,82.5 C 620.78,83.9255 618.614,87.5921 620,93.5C 624.215,94.2695 628.382,95.2695 632.5,96.5C 632.5,99.5 632.5,102.5 632.5,105.5C 631.686,103.369 631.186,101.036 631,98.5C 629.893,101.225 629.059,104.059 628.5,107C 625.681,107.983 623.014,108.483 620.5,108.5C 619.621,118.161 619.787,127.827 621,137.5C 622.624,139.158 624.291,140.825 626,142.5C 626.498,145.482 626.665,148.482 626.5,151.5C 615.986,151.828 605.653,151.494 595.5,150.5C 595.5,148.833 595.5,147.167 595.5,145.5C 595.5,144.833 595.5,144.167 595.5,143.5C 595.833,143.5 596.167,143.5 596.5,143.5C 596.5,145.833 596.5,148.167 596.5,150.5C 606.167,150.5 615.833,150.5 625.5,150.5C 625.663,148.143 625.497,145.81 625,143.5C 623.255,142.044 621.422,140.711 619.5,139.5C 618.691,137.929 618.357,136.262 618.5,134.5C 618.5,125.167 618.5,115.833 618.5,106.5C 621.579,106.74 624.579,106.407 627.5,105.5C 630.493,96.8604 627.493,93.5271 618.5,95.5C 618.5,92.1667 618.5,88.8333 618.5,85.5C 619.167,84.8333 619.833,84.1667 620.5,83.5C 622.435,82.8505 624.435,82.5172 626.5,82.5 Z"/></g>
<g><path style="opacity:0.22" fill="#c3ced2" d="M 20.5,61.5 C 20.5,62.1667 20.5,62.8333 20.5,63.5C 19.7262,75.8012 19.2262,88.1345 19,100.5C 17.9055,102.078 17.0722,103.745 16.5,105.5C 12.9088,107.782 11.5755,111.116 12.5,115.5C 10.7615,113.881 10.2615,111.881 11,109.5C 14.0823,106.341 16.4157,102.675 18,98.5C 18.3333,87.1667 18.6667,75.8333 19,64.5C 19.2321,63.2625 19.7321,62.2625 20.5,61.5 Z"/></g>
<g><path style="opacity:1" fill="#2cb59a" d="M 241.5,95.5 C 243.833,95.5 246.167,95.5 248.5,95.5C 251.482,95.9629 254.482,96.2962 257.5,96.5C 257.81,99.7131 257.477,102.713 256.5,105.5C 253.167,105.5 249.833,105.5 246.5,105.5C 246.334,113.507 246.5,121.507 247,129.5C 247.002,132.051 247.836,134.051 249.5,135.5C 249.5,136.5 249.5,137.5 249.5,138.5C 250.5,138.5 251.5,138.5 252.5,138.5C 253.552,140.256 255.219,140.923 257.5,140.5C 258.299,143.43 258.632,146.43 258.5,149.5C 253.489,149.666 248.489,149.499 243.5,149C 241.246,147.623 239.08,146.123 237,144.5C 235.892,131.729 235.059,119.062 234.5,106.5C 234.167,106.5 233.833,106.5 233.5,106.5C 232.167,105.833 230.833,105.167 229.5,104.5C 232.836,104.467 236.003,105.134 239,106.5C 239.815,114.746 239.648,122.912 238.5,131C 240.237,133.287 242.57,133.787 245.5,132.5C 245.768,122.97 245.435,113.47 244.5,104C 244.509,102.596 245.009,101.43 246,100.5C 246.893,101.711 247.726,101.711 248.5,100.5C 246.167,99.8333 243.833,99.1667 241.5,98.5C 242.376,97.7492 243.376,97.2492 244.5,97C 243.263,96.7679 242.263,96.2679 241.5,95.5 Z"/></g>
<g><path style="opacity:0.078" fill="#b5c6c1" d="M 257.5,96.5 C 260.406,98.915 261.073,101.915 259.5,105.5C 258.583,106.127 257.583,106.461 256.5,106.5C 256.5,106.167 256.5,105.833 256.5,105.5C 257.477,102.713 257.81,99.7131 257.5,96.5 Z"/></g>
<g><path style="opacity:0.131" fill="#cadbc9" d="M 390.5,104.5 C 388.959,105.667 387.625,107 386.5,108.5C 385.167,107.5 385.167,106.5 386.5,105.5C 387.833,105.167 389.167,104.833 390.5,104.5 Z"/></g>
<g><path style="opacity:0.072" fill="#b3ceca" d="M 214.5,99.5 C 215.496,99.4142 216.329,99.7476 217,100.5C 218.244,104.779 218.577,109.112 218,113.5C 217.617,114.056 217.117,114.389 216.5,114.5C 216.666,110.154 216.499,105.821 216,101.5C 215.283,100.956 214.783,100.289 214.5,99.5 Z"/></g>
<g><path style="opacity:0.024" fill="#beccd3" d="M 26.5,98.5 C 26.8333,98.5 27.1667,98.5 27.5,98.5C 26.6281,101.579 26.6281,104.579 27.5,107.5C 25.5946,109.049 25.2613,110.882 26.5,113C 25.9558,113.717 25.2891,114.217 24.5,114.5C 23.8333,114.167 23.1667,113.833 22.5,113.5C 21.9033,113.265 21.5699,112.765 21.5,112C 22.0795,110.086 23.0795,108.419 24.5,107C 25.0354,104.004 25.7021,101.171 26.5,98.5 Z"/></g>
<g><path style="opacity:0.008" fill="#c7c8c7" d="M 27.5,107.5 C 28.8333,108.167 28.8333,108.167 27.5,107.5 Z"/></g>
<g><path style="opacity:0.705" fill="#7ec3b2" d="M 256.5,105.5 C 256.5,105.833 256.5,106.167 256.5,106.5C 253.5,106.5 250.5,106.5 247.5,106.5C 247.179,112.026 247.512,117.36 248.5,122.5C 249.436,126.735 249.769,131.069 249.5,135.5C 247.836,134.051 247.002,132.051 247,129.5C 246.5,121.507 246.334,113.507 246.5,105.5C 249.833,105.5 253.167,105.5 256.5,105.5 Z"/></g>
<g><path style="opacity:0.227" fill="#abcec5" d="M 256.5,106.5 C 254.393,107.468 252.059,107.802 249.5,107.5C 249.084,112.493 248.751,117.493 248.5,122.5C 247.512,117.36 247.179,112.026 247.5,106.5C 250.5,106.5 253.5,106.5 256.5,106.5 Z"/></g>
<g><path style="opacity:1" fill="#39b892" d="M 270.5,140.5 C 265.976,132.849 264.31,124.515 265.5,115.5C 265.5,115.167 265.5,114.833 265.5,114.5C 266.976,111.417 268.643,108.417 270.5,105.5C 272.117,104.962 273.784,104.629 275.5,104.5C 275.334,112.174 275.5,119.841 276,127.5C 277.013,128.496 277.846,129.496 278.5,130.5C 278.182,131.647 277.516,132.481 276.5,133C 276.833,133.333 277.167,133.667 277.5,134C 276.019,134.98 274.685,136.147 273.5,137.5C 274.984,141.116 273.984,142.116 270.5,140.5 Z"/></g>
<g><path style="opacity:0.225" fill="#cbd3c1" d="M 494.5,95.5 C 494.205,97.7354 494.539,99.7354 495.5,101.5C 495.285,103.179 495.952,104.179 497.5,104.5C 498.209,105.404 499.209,105.737 500.5,105.5C 501.209,106.404 502.209,106.737 503.5,106.5C 503.5,117.167 503.5,127.833 503.5,138.5C 502.395,139.6 501.062,140.267 499.5,140.5C 500.122,139.373 500.955,138.373 502,137.5C 502.167,136.167 502.333,134.833 502.5,133.5C 502.348,126.009 502.015,118.509 501.5,111C 501.167,109.833 500.833,108.667 500.5,107.5C 497.943,106.593 495.443,105.593 493,104.5C 492.505,102.527 492.338,100.527 492.5,98.5C 493.167,97.5 493.833,96.5 494.5,95.5 Z"/></g>
<g><path style="opacity:0.102" fill="#ccd1b9" d="M 582.5,103.5 C 585.389,106.491 586.722,110.158 586.5,114.5C 584.938,111.018 583.605,107.352 582.5,103.5 Z"/></g>
<g><path style="opacity:0.222" fill="#cbd0b4" d="M 594.5,97.5 C 594.194,100.385 594.527,103.052 595.5,105.5C 597.948,106.473 600.615,106.806 603.5,106.5C 603.5,114.5 603.5,122.5 603.5,130.5C 603.167,130.5 602.833,130.5 602.5,130.5C 602.726,123.124 602.392,115.791 601.5,108.5C 592.835,108.538 590.502,104.871 594.5,97.5 Z"/></g>
<g><path style="opacity:0.067" fill="#c0d2d4" d="M 119.5,98.5 C 120.604,103.131 122.271,107.631 124.5,112C 124.101,113.981 123.101,115.481 121.5,116.5C 121.519,114.94 121.852,113.44 122.5,112C 120.474,107.728 119.474,103.228 119.5,98.5 Z"/></g>
<g><path style="opacity:0.235" fill="#b9deda" d="M 207.5,112.5 C 203.608,106.449 198.274,104.949 191.5,108C 190.62,109.356 190.286,110.856 190.5,112.5C 189.258,110.611 189.258,108.611 190.5,106.5C 194.78,105.46 199.113,105.294 203.5,106C 205.734,107.638 207.067,109.805 207.5,112.5 Z"/></g>
<g><path style="opacity:0.163" fill="#e8eccb" d="M 632.5,105.5 C 633.167,105.5 633.833,105.5 634.5,105.5C 636.607,106.468 638.941,106.802 641.5,106.5C 641.5,111.833 641.5,117.167 641.5,122.5C 641.334,127.844 641.501,133.177 642,138.5C 642.232,139.737 642.732,140.737 643.5,141.5C 644.038,143.117 644.371,144.784 644.5,146.5C 642.689,144.615 641.522,142.281 641,139.5C 640.667,129.167 640.333,118.833 640,108.5C 637.931,107.736 635.764,107.236 633.5,107C 632.944,106.617 632.611,106.117 632.5,105.5 Z"/></g>
<g><path style="opacity:0.321" fill="#e8ecbb" d="M 664.5,96.5 C 664.833,96.5 665.167,96.5 665.5,96.5C 668.702,105.295 665.702,108.962 656.5,107.5C 655.508,114.982 655.175,122.648 655.5,130.5C 654.508,122.684 654.174,114.684 654.5,106.5C 657.777,106.784 660.943,106.451 664,105.5C 664.498,102.518 664.665,99.5184 664.5,96.5 Z"/></g>
<g><path style="opacity:0.286" fill="#b7d2c7" d="M 286.5,108.5 C 283.5,111.504 281.833,115.17 281.5,119.5C 282.331,124.466 282.664,129.466 282.5,134.5C 281.778,134.082 281.278,133.416 281,132.5C 280.333,126.5 280.333,120.5 281,114.5C 280.974,110.695 282.808,108.695 286.5,108.5 Z"/></g>
<g><path style="opacity:0.4" fill="#b0cfbd" d="M 308.5,101.5 C 312.424,103.752 314.757,107.085 315.5,111.5C 315.5,112.5 315.5,113.5 315.5,114.5C 315.167,114.5 314.833,114.5 314.5,114.5C 314.307,109.776 312.307,106.109 308.5,103.5C 308.5,102.833 308.5,102.167 308.5,101.5 Z"/></g>
<g><path style="opacity:0.184" fill="#e1edca" d="M 542.5,102.5 C 542.335,105.518 542.502,108.518 543,111.5C 543.383,112.056 543.883,112.389 544.5,112.5C 544.5,112.833 544.5,113.167 544.5,113.5C 541.916,112.952 540.916,111.285 541.5,108.5C 541.205,106.265 541.539,104.265 542.5,102.5 Z"/></g>
<g><path style="opacity:0.712" fill="#5eb6e6" d="M 16.5,105.5 C 16.3146,107.196 15.4813,108.529 14,109.5C 13.5045,111.473 13.3379,113.473 13.5,115.5C 13.1667,115.5 12.8333,115.5 12.5,115.5C 11.5755,111.116 12.9088,107.782 16.5,105.5 Z"/></g>
<g><path style="opacity:0.278" fill="#cdd8ac" d="M 564.5,107.5 C 561.615,107.194 558.948,107.527 556.5,108.5C 553.962,114.555 549.962,116.221 544.5,113.5C 544.5,113.167 544.5,112.833 544.5,112.5C 547.247,112.813 549.914,112.48 552.5,111.5C 553.128,109.742 554.128,108.242 555.5,107C 558.696,106.195 561.696,106.362 564.5,107.5 Z"/></g>
<g><path style="opacity:0.396" fill="#bfdfea" d="M 63.5,96.5 C 63.5,96.8333 63.5,97.1667 63.5,97.5C 57.7684,101.97 53.7684,107.637 51.5,114.5C 51.1667,114.5 50.8333,114.5 50.5,114.5C 52.1193,107.868 55.4526,102.201 60.5,97.5C 61.4168,96.8728 62.4168,96.5394 63.5,96.5 Z"/></g>
<g><path style="opacity:0.094" fill="#d8ead7" d="M 386.5,108.5 C 388.02,110.89 389.02,113.557 389.5,116.5C 387.415,114.316 386.415,111.649 386.5,108.5 Z"/></g>
<g><path style="opacity:0.039" fill="#b7cfd6" d="M 76.5,126.5 C 80.7539,123.076 84.5872,119.076 88,114.5C 95.9267,94.258 89.4267,87.258 68.5,93.5C 70.5396,92.0578 72.873,91.0578 75.5,90.5C 78.8333,91.8333 82.1667,91.8333 85.5,90.5C 87.1151,91.154 88.7818,91.654 90.5,92C 95.9548,107.729 91.2881,119.229 76.5,126.5 Z"/></g>
<g><path style="opacity:0.019" fill="#c3ced2" d="M 42.5,107.5 C 44.1628,109.438 44.8294,111.772 44.5,114.5C 46.7033,114.935 48.7033,114.935 50.5,114.5C 50.8333,114.5 51.1667,114.5 51.5,114.5C 50.0538,122.815 51.7205,130.482 56.5,137.5C 57.3833,142.103 57.7166,146.77 57.5,151.5C 57.46,144.741 55.6267,138.408 52,132.5C 50.4616,127.552 49.1283,122.552 48,117.5C 47.8091,119.708 47.3091,121.708 46.5,123.5C 46.7845,121.585 46.4511,119.919 45.5,118.5C 44.8333,117.833 44.1667,117.167 43.5,116.5C 43.0371,113.518 42.7038,110.518 42.5,107.5 Z"/></g>
<g><path style="opacity:0.737" fill="#8bc3cf" d="M 110.5,111.5 C 110.5,112.167 110.5,112.833 110.5,113.5C 110.611,114.117 110.944,114.617 111.5,115C 110.432,117.438 109.098,119.605 107.5,121.5C 107.757,117.829 108.757,114.495 110.5,111.5 Z"/></g>
<g><path style="opacity:0.643" fill="#bcdb8e" d="M 500.5,105.5 C 501.833,105.5 503.167,105.5 504.5,105.5C 504.828,116.679 504.495,127.679 503.5,138.5C 503.5,127.833 503.5,117.167 503.5,106.5C 502.209,106.737 501.209,106.404 500.5,105.5 Z"/></g>
<g><path style="opacity:0.025" fill="#dadcd0" d="M 656.5,107.5 C 656.334,115.84 656.5,124.173 657,132.5C 657.424,135.025 658.59,137.025 660.5,138.5C 659.5,138.5 658.5,138.5 657.5,138.5C 656.226,136.007 655.56,133.341 655.5,130.5C 655.175,122.648 655.508,114.982 656.5,107.5 Z"/></g>
<g><path style="opacity:0.086" fill="#c8d5c5" d="M 396.5,103.5 C 396.833,103.5 397.167,103.5 397.5,103.5C 398.79,104.935 400.456,105.935 402.5,106.5C 401.873,107.417 401.539,108.417 401.5,109.5C 401.634,111.292 401.301,112.958 400.5,114.5C 399.289,116.63 397.956,118.63 396.5,120.5C 397.822,115.849 399.155,111.182 400.5,106.5C 398.027,106.912 396.694,105.912 396.5,103.5 Z"/></g>
<g><path style="opacity:0.004" fill="#c1d5d2" d="M 207.5,112.5 C 210.162,114.268 213.162,114.935 216.5,114.5C 212.452,118.986 209.452,118.32 207.5,112.5 Z"/></g>
<g><path style="opacity:0.294" fill="#d2dcc0" d="M 524.5,109.5 C 524.5,109.833 524.5,110.167 524.5,110.5C 519.04,114.506 517.04,120.006 518.5,127C 518.667,130.5 518.833,134 519,137.5C 520.584,138.861 522.418,139.528 524.5,139.5C 524.5,140.5 524.5,141.5 524.5,142.5C 524.167,142.5 523.833,142.5 523.5,142.5C 521.813,141.082 519.98,139.749 518,138.5C 517.333,130.167 517.333,121.833 518,113.5C 519.324,110.756 521.491,109.423 524.5,109.5 Z"/></g>
<g><path style="opacity:0.098" fill="#bad1d4" d="M 126.5,62.5 C 127.544,73.4251 128.044,84.4251 128,95.5C 129.903,101.199 132.403,106.533 135.5,111.5C 134.135,115.894 131.968,119.894 129,123.5C 128.666,130.181 128.166,136.847 127.5,143.5C 128.392,148.662 128.059,153.662 126.5,158.5C 126.567,146.151 127.067,133.818 128,121.5C 129.29,119.208 130.957,117.208 133,115.5C 133.667,113.167 133.667,110.833 133,108.5C 130.484,105.466 128.484,102.132 127,98.5C 126.5,86.5046 126.333,74.5046 126.5,62.5 Z"/></g>
<g><path style="opacity:0.037" fill="#e0e4d7" d="M 556.5,108.5 C 558.948,107.527 561.615,107.194 564.5,107.5C 566.679,107.84 568.512,108.84 570,110.5C 570.801,113.367 570.634,116.034 569.5,118.5C 565.5,118.5 561.5,118.5 557.5,118.5C 561.298,117.517 565.298,117.183 569.5,117.5C 569.78,114.728 569.113,112.228 567.5,110C 563.974,108.663 560.308,108.163 556.5,108.5 Z"/></g>
<g><path style="opacity:0.227" fill="#b8cfd9" d="M 12.5,115.5 C 12.8333,115.5 13.1667,115.5 13.5,115.5C 16.2313,117.071 18.0646,119.405 19,122.5C 19.3333,133.167 19.6667,143.833 20,154.5C 20.2485,158.761 21.7485,162.428 24.5,165.5C 22.2475,165.084 20.7475,163.751 20,161.5C 18.7719,149.214 18.1053,136.881 18,124.5C 16.3112,121.333 14.4779,118.333 12.5,115.5 Z"/></g>
<g><path style="opacity:0.239" fill="#cce5ec" d="M 80.5,113.5 C 78.1395,116.527 75.4729,119.194 72.5,121.5C 71.4168,121.539 70.4168,121.873 69.5,122.5C 66.9398,124.612 64.6064,126.945 62.5,129.5C 62.1667,129.5 61.8333,129.5 61.5,129.5C 63.1007,126.23 65.4341,123.563 68.5,121.5C 72.594,118.8 76.594,116.133 80.5,113.5 Z"/></g>
<g><path style="opacity:0.216" fill="#bbd1d5" d="M 102.5,112.5 C 102.336,115.817 101.336,118.817 99.5,121.5C 95.6501,126.023 90.9834,129.356 85.5,131.5C 85.4142,130.504 85.7476,129.671 86.5,129C 93.9804,125.504 99.3137,120.004 102.5,112.5 Z"/></g>
<g><path style="opacity:0.086" fill="#d3e2d9" d="M 315.5,111.5 C 316.448,115.646 317.115,119.98 317.5,124.5C 317.432,127.438 316.766,130.105 315.5,132.5C 315.5,126.5 315.5,120.5 315.5,114.5C 315.5,113.5 315.5,112.5 315.5,111.5 Z"/></g>
<g><path style="opacity:1" fill="#b4d045" d="M 567.5,97.5 C 567.389,98.1174 567.056,98.6174 566.5,99C 570.459,99.788 572.292,102.288 572,106.5C 572.333,116.167 572.667,125.833 573,135.5C 573.5,136 574,136.5 574.5,137C 573.488,138.643 572.488,139.81 571.5,140.5C 573.294,142.883 574.294,145.549 574.5,148.5C 573.833,147.833 573.167,147.167 572.5,146.5C 571.335,143.978 570.002,143.978 568.5,146.5C 567.167,147.167 565.833,147.833 564.5,148.5C 563.167,148.5 561.833,148.5 560.5,148.5C 559.698,147.048 559.198,145.382 559,143.5C 557.365,144.849 555.865,144.682 554.5,143C 557.3,141.768 560.3,141.101 563.5,141C 564.056,140.617 564.389,140.117 564.5,139.5C 565.167,138.833 565.833,138.167 566.5,137.5C 568.888,136.781 570.388,135.115 571,132.5C 571.765,130.934 571.598,129.601 570.5,128.5C 565.464,127.002 560.464,127.335 555.5,129.5C 554.5,129.5 553.5,129.5 552.5,129.5C 552.02,126.315 552.686,123.481 554.5,121C 559.351,120.826 564.018,120.326 568.5,119.5C 569.167,119.5 569.5,119.167 569.5,118.5C 570.634,116.034 570.801,113.367 570,110.5C 568.512,108.84 566.679,107.84 564.5,107.5C 561.696,106.362 558.696,106.195 555.5,107C 554.128,108.242 553.128,109.742 552.5,111.5C 549.914,112.48 547.247,112.813 544.5,112.5C 543.883,112.389 543.383,112.056 543,111.5C 542.502,108.518 542.335,105.518 542.5,102.5C 542.973,101.094 543.973,100.427 545.5,100.5C 548.407,100.425 551.073,99.5914 553.5,98C 558.155,97.5008 562.821,97.3342 567.5,97.5 Z"/></g>
<g><path style="opacity:0.114" fill="#caeaf4" d="M 59.5,114.5 C 58.7347,117.096 58.4013,119.763 58.5,122.5C 58.1667,122.5 57.8333,122.5 57.5,122.5C 56.9644,119.302 57.631,116.635 59.5,114.5 Z"/></g>
<g><path style="opacity:1" fill="#25a4c8" d="M 101.5,127.5 C 98.7679,131.558 95.1012,134.558 90.5,136.5C 89.5741,140.094 89.2408,143.76 89.5,147.5C 87.2188,147.077 85.5521,147.744 84.5,149.5C 79.7971,149.437 75.1304,149.771 70.5,150.5C 73.5341,148.982 76.8675,148.149 80.5,148C 81.3366,146.989 81.67,145.822 81.5,144.5C 75.6536,145.133 69.987,145.133 64.5,144.5C 70.8333,143.833 77.1667,143.167 83.5,142.5C 83.0097,138.513 83.6764,134.846 85.5,131.5C 90.9834,129.356 95.6501,126.023 99.5,121.5C 100.117,121.389 100.617,121.056 101,120.5C 101.497,122.81 101.663,125.143 101.5,127.5 Z"/></g>
<g><path style="opacity:0.137" fill="#b5c8c7" d="M 175.5,109.5 C 175.615,115.927 178.282,120.927 183.5,124.5C 176.361,121.735 173.695,116.735 175.5,109.5 Z"/></g>
<g><path style="opacity:0.259" fill="#dfe8c8" d="M 557.5,118.5 C 561.5,118.5 565.5,118.5 569.5,118.5C 569.5,119.167 569.167,119.5 568.5,119.5C 561.308,118.945 554.308,119.778 547.5,122C 545.76,123.517 544.094,125.017 542.5,126.5C 541.5,127.167 540.5,127.833 539.5,128.5C 543.361,121.632 549.361,118.298 557.5,118.5 Z"/></g>
<g><path style="opacity:1" fill="#23a0cd" d="M 72.5,121.5 C 74.256,122.552 74.9227,124.219 74.5,126.5C 69.9283,129.394 66.9283,133.394 65.5,138.5C 64.5386,140.265 64.2053,142.265 64.5,144.5C 69.987,145.133 75.6536,145.133 81.5,144.5C 81.67,145.822 81.3366,146.989 80.5,148C 76.8675,148.149 73.5341,148.982 70.5,150.5C 69.8333,150.5 69.1667,150.5 68.5,150.5C 66.8333,150.5 65.1667,150.5 63.5,150.5C 63.0497,144.672 63.7164,139.005 65.5,133.5C 64.8118,132.145 63.8118,131.145 62.5,130.5C 62.5,130.167 62.5,129.833 62.5,129.5C 64.6064,126.945 66.9398,124.612 69.5,122.5C 70.4168,121.873 71.4168,121.539 72.5,121.5 Z"/></g>
<g><path style="opacity:0.022" fill="#c7d0c6" d="M 389.5,116.5 C 390.391,118.291 391.391,120.124 392.5,122C 393.793,122.49 395.127,122.657 396.5,122.5C 396.143,124.589 395.477,126.589 394.5,128.5C 393.274,125.984 391.774,123.651 390,121.5C 389.506,119.866 389.34,118.199 389.5,116.5 Z"/></g>
<g><path style="opacity:0.847" fill="#c7d757" d="M 595.5,105.5 C 598.5,105.5 601.5,105.5 604.5,105.5C 605.144,117.216 604.478,128.549 602.5,139.5C 603.299,136.57 603.632,133.57 603.5,130.5C 603.5,122.5 603.5,114.5 603.5,106.5C 600.615,106.806 597.948,106.473 595.5,105.5 Z"/></g>
<g><path style="opacity:0.869" fill="#d4d851" d="M 641.5,122.5 C 642.543,128.65 643.21,134.984 643.5,141.5C 642.732,140.737 642.232,139.737 642,138.5C 641.501,133.177 641.334,127.844 641.5,122.5 Z"/></g>
<g><path style="opacity:0.071" fill="#b1cac7" d="M 190.5,112.5 C 197.45,116.863 204.783,119.197 212.5,119.5C 212.5,120.5 212.5,121.5 212.5,122.5C 214.973,122.088 216.306,123.088 216.5,125.5C 213.054,123.891 209.721,122.057 206.5,120C 202.504,119.057 198.504,118.224 194.5,117.5C 192.633,116.24 191.3,114.573 190.5,112.5 Z"/></g>
<g><path style="opacity:0.11" fill="#c3dacf" d="M 295.5,106.5 C 298.623,109.076 300.457,112.41 301,116.5C 301.815,121.352 301.648,126.019 300.5,130.5C 300.794,123.766 299.628,117.099 297,110.5C 293.882,107.509 290.382,106.842 286.5,108.5C 288.988,106.612 291.988,105.945 295.5,106.5 Z"/></g>
<g><path style="opacity:1" fill="#55bf7e" d="M 324.5,97.5 C 330.833,97.5 337.167,97.5 343.5,97.5C 343.263,98.791 343.596,99.791 344.5,100.5C 345.209,101.404 346.209,101.737 347.5,101.5C 345.126,101.979 342.959,103.312 341,105.5C 340.5,114.827 340.334,124.161 340.5,133.5C 338.833,133.5 337.167,133.5 335.5,133.5C 335.5,135.167 335.5,136.833 335.5,138.5C 337.5,138.5 339.5,138.5 341.5,138.5C 341.703,140.39 341.037,141.89 339.5,143C 340.406,144.699 340.739,146.533 340.5,148.5C 344.167,148.5 347.833,148.5 351.5,148.5C 351.5,146.5 351.5,144.5 351.5,142.5C 352.167,142.5 352.5,142.833 352.5,143.5C 352.5,145.5 352.5,147.5 352.5,149.5C 343.167,149.5 333.833,149.5 324.5,149.5C 324.014,147.048 324.014,144.382 324.5,141.5C 327.732,141.228 329.732,139.562 330.5,136.5C 331.658,126.675 331.825,116.675 331,106.5C 325.975,105.569 323.808,102.569 324.5,97.5 Z"/></g>
<g><path style="opacity:0.11" fill="#aaccda" d="M 34.5,111.5 C 35.1667,111.833 35.8333,112.167 36.5,112.5C 37.2951,116.739 38.6284,120.739 40.5,124.5C 42.1667,124.5 43.8333,124.5 45.5,124.5C 45.5,122.5 45.5,120.5 45.5,118.5C 46.4511,119.919 46.7845,121.585 46.5,123.5C 46.516,125.484 45.516,126.484 43.5,126.5C 42.062,126.281 40.7287,125.781 39.5,125C 37.1174,120.74 35.4507,116.24 34.5,111.5 Z"/></g>
<g><path style="opacity:0.029" fill="#c2c8ca" d="M 58.5,122.5 C 59.8686,124.691 60.8686,127.025 61.5,129.5C 60.6977,130.885 60.0311,130.718 59.5,129C 58.7135,126.901 58.3801,124.734 58.5,122.5 Z"/></g>
<g><path style="opacity:0.197" fill="#c3d5c8" d="M 329.5,107.5 C 330.494,116.986 330.827,126.652 330.5,136.5C 329.732,139.562 327.732,141.228 324.5,141.5C 325.145,140.188 326.145,139.188 327.5,138.5C 328.473,136.608 329.14,134.608 329.5,132.5C 329.235,124.221 329.235,115.888 329.5,107.5 Z"/></g>
<g><path style="opacity:0.55" fill="#9acfa8" d="M 347.5,111.5 C 347.5,112.5 347.5,113.5 347.5,114.5C 346.508,122.316 346.174,130.316 346.5,138.5C 345.343,130.344 345.177,122.01 346,113.5C 346.278,112.584 346.778,111.918 347.5,111.5 Z"/></g>
<g><path style="opacity:1" fill="#169bd0" d="M 73.5,98.5 C 66.0437,101.425 61.377,106.758 59.5,114.5C 57.631,116.635 56.9644,119.302 57.5,122.5C 57.5079,125.545 57.8413,128.545 58.5,131.5C 60.099,131.768 61.4324,131.434 62.5,130.5C 63.8118,131.145 64.8118,132.145 65.5,133.5C 63.7164,139.005 63.0497,144.672 63.5,150.5C 61.8828,151.038 60.2161,151.371 58.5,151.5C 58.6657,147.154 58.499,142.821 58,138.5C 57.6174,137.944 57.1174,137.611 56.5,137.5C 51.7205,130.482 50.0538,122.815 51.5,114.5C 53.7684,107.637 57.7684,101.97 63.5,97.5C 65.8309,97.5023 67.8309,96.669 69.5,95C 73.5,94.3333 77.5,94.3333 81.5,95C 82.3081,95.3076 82.9747,95.8076 83.5,96.5C 80.0227,97.1672 76.6893,97.8339 73.5,98.5 Z"/></g>
<g><path style="opacity:0.439" fill="#b2d0d5" d="M 121.5,116.5 C 121.552,118.903 121.219,121.236 120.5,123.5C 119.84,134.82 119.34,146.153 119,157.5C 117,158.833 115,160.167 113,161.5C 112.506,163.134 112.34,164.801 112.5,166.5C 110.051,162.05 111.551,159.05 117,157.5C 117.333,156.5 117.667,155.5 118,154.5C 117.929,143.895 118.262,133.228 119,122.5C 119.566,120.277 120.4,118.277 121.5,116.5 Z"/></g>
<g><path style="opacity:0.255" fill="#aec4c0" d="M 216.5,125.5 C 218.727,126.401 219.727,128.067 219.5,130.5C 218.11,129.101 217.11,127.434 216.5,125.5 Z"/></g>
<g><path style="opacity:0.289" fill="#b0ccc6" d="M 226.5,106.5 C 228.833,106.5 231.167,106.5 233.5,106.5C 233.833,106.5 234.167,106.5 234.5,106.5C 234.5,116.833 234.5,127.167 234.5,137.5C 233.476,134.037 232.809,130.37 232.5,126.5C 233.395,120.783 233.728,115.116 233.5,109.5C 231.379,107.982 229.046,106.982 226.5,106.5 Z"/></g>
<g><path style="opacity:0.91" fill="#acd37e" d="M 485.5,140.5 C 486.383,135.897 486.717,131.23 486.5,126.5C 483.43,126.368 480.43,126.701 477.5,127.5C 477.611,126.883 477.944,126.383 478.5,126C 481.482,125.502 484.482,125.335 487.5,125.5C 487.666,130.179 487.499,134.845 487,139.5C 486.617,140.056 486.117,140.389 485.5,140.5 Z"/></g>
<g><path style="opacity:0.998" fill="#93cb73" d="M 443.5,103.5 C 442.491,108.796 442.324,114.129 443,119.5C 443.013,123.346 444.18,126.679 446.5,129.5C 447.167,131.167 447.833,132.833 448.5,134.5C 446.283,133.631 443.95,133.298 441.5,133.5C 441.739,131.533 441.406,129.699 440.5,128C 441.624,127.161 442.291,125.994 442.5,124.5C 441.46,118.19 441.293,111.857 442,105.5C 442.278,104.584 442.778,103.918 443.5,103.5 Z"/></g>
<g><path style="opacity:0.408" fill="#7fb9cd" d="M 57.5,122.5 C 57.8333,122.5 58.1667,122.5 58.5,122.5C 58.3801,124.734 58.7135,126.901 59.5,129C 60.0311,130.718 60.6977,130.885 61.5,129.5C 61.8333,129.5 62.1667,129.5 62.5,129.5C 62.5,129.833 62.5,130.167 62.5,130.5C 61.4324,131.434 60.099,131.768 58.5,131.5C 57.8413,128.545 57.5079,125.545 57.5,122.5 Z"/></g>
<g><path style="opacity:0.247" fill="#c9e3bf" d="M 428.5,102.5 C 427.809,112.389 428.809,122.056 431.5,131.5C 430.833,131.167 430.167,130.833 429.5,130.5C 426.114,121.151 425.78,111.818 428.5,102.5 Z"/></g>
<g><path style="opacity:0.004" fill="#e2e7d3" d="M 570.5,128.5 C 570.672,129.492 570.338,130.158 569.5,130.5C 564.894,127.853 560.227,128.186 555.5,131.5C 555.5,131.167 555.5,130.833 555.5,130.5C 555.5,130.167 555.5,129.833 555.5,129.5C 560.464,127.335 565.464,127.002 570.5,128.5 Z"/></g>
<g><path style="opacity:0.102" fill="#abd3d0" d="M 183.5,124.5 C 186.127,125.092 188.794,125.425 191.5,125.5C 195.758,127.276 199.924,129.276 204,131.5C 204.167,132.667 204.333,133.833 204.5,135C 204.392,136.681 203.725,137.848 202.5,138.5C 203.768,136.33 203.768,134.163 202.5,132C 195.992,129.638 189.659,127.138 183.5,124.5 Z"/></g>
<g><path style="opacity:1" fill="#4fbc8b" d="M 299.5,98.5 C 299.833,98.5 300.167,98.5 300.5,98.5C 303.406,98.9565 306.072,99.9565 308.5,101.5C 308.5,102.167 308.5,102.833 308.5,103.5C 306.876,103.64 305.71,102.973 305,101.5C 304.692,102.308 304.192,102.975 303.5,103.5C 302.391,102.41 301.391,102.41 300.5,103.5C 301.833,104.167 303.167,104.833 304.5,105.5C 303.565,113.78 303.232,121.946 303.5,130C 303.833,130.5 304.167,131 304.5,131.5C 307.652,131.288 310.985,131.288 314.5,131.5C 314.5,125.833 314.5,120.167 314.5,114.5C 314.833,114.5 315.167,114.5 315.5,114.5C 315.5,120.5 315.5,126.5 315.5,132.5C 312.79,140.874 307.123,146.208 298.5,148.5C 297.167,148.5 295.833,148.5 294.5,148.5C 294.753,146.173 294.086,144.173 292.5,142.5C 290.456,141.935 288.79,140.935 287.5,139.5C 290.698,140.036 293.365,139.369 295.5,137.5C 298.621,136.712 300.288,134.712 300.5,131.5C 300.5,131.167 300.5,130.833 300.5,130.5C 301.648,126.019 301.815,121.352 301,116.5C 300.457,112.41 298.623,109.076 295.5,106.5C 295.217,105.711 294.717,105.044 294,104.5C 292.927,105.28 291.76,105.113 290.5,104C 292.087,103.138 293.754,102.471 295.5,102C 294.5,101 293.5,100 292.5,99C 294.81,98.5034 297.143,98.3367 299.5,98.5 Z"/></g>
<g><path style="opacity:0.294" fill="#c2e0df" d="M 187.5,135.5 C 186.18,134.058 184.514,133.392 182.5,133.5C 180.735,132.539 178.735,132.205 176.5,132.5C 177.261,131.609 178.261,130.942 179.5,130.5C 181.795,131.432 184.129,132.265 186.5,133C 187.252,133.671 187.586,134.504 187.5,135.5 Z"/></g>
<g><path style="opacity:0.106" fill="#b3cad0" d="M 74.5,126.5 C 75.1667,126.5 75.8333,126.5 76.5,126.5C 72.0986,129.898 68.4319,133.898 65.5,138.5C 66.9283,133.394 69.9283,129.394 74.5,126.5 Z"/></g>
<g><path style="opacity:1" fill="#1fb2a5" d="M 194.5,117.5 C 198.504,118.224 202.504,119.057 206.5,120C 209.721,122.057 213.054,123.891 216.5,125.5C 217.11,127.434 218.11,129.101 219.5,130.5C 220.833,133.167 220.833,135.833 219.5,138.5C 216.692,143.241 212.692,146.574 207.5,148.5C 206.167,148.5 204.833,148.5 203.5,148.5C 203.5,146.833 203.5,145.167 203.5,143.5C 201.473,143.662 199.473,143.495 197.5,143C 199.32,142.8 200.653,141.966 201.5,140.5C 201.833,139.833 202.167,139.167 202.5,138.5C 203.725,137.848 204.392,136.681 204.5,135C 204.333,133.833 204.167,132.667 204,131.5C 199.924,129.276 195.758,127.276 191.5,125.5C 192.091,124.849 192.757,124.182 193.5,123.5C 191.815,120.952 192.148,118.952 194.5,117.5 Z"/></g>
<g><path style="opacity:1" fill="#b0cf48" d="M 568.5,119.5 C 564.018,120.326 559.351,120.826 554.5,121C 552.686,123.481 552.02,126.315 552.5,129.5C 553.5,129.5 554.5,129.5 555.5,129.5C 555.5,129.833 555.5,130.167 555.5,130.5C 554.307,130.97 553.64,131.97 553.5,133.5C 553.52,134.726 553.853,135.726 554.5,136.5C 556.842,140.508 560.175,141.508 564.5,139.5C 564.389,140.117 564.056,140.617 563.5,141C 560.3,141.101 557.3,141.768 554.5,143C 555.865,144.682 557.365,144.849 559,143.5C 559.198,145.382 559.698,147.048 560.5,148.5C 557.332,149.444 553.999,149.444 550.5,148.5C 549.609,147.89 548.609,147.557 547.5,147.5C 545.832,145.521 545.166,143.188 545.5,140.5C 541.841,139.995 540.174,137.828 540.5,134C 540.409,131.225 541.076,128.725 542.5,126.5C 544.094,125.017 545.76,123.517 547.5,122C 554.308,119.778 561.308,118.945 568.5,119.5 Z"/></g>
<g><path style="opacity:0.435" fill="#d5e99c" d="M 555.5,130.5 C 555.5,130.833 555.5,131.167 555.5,131.5C 554.549,132.919 554.216,134.585 554.5,136.5C 553.853,135.726 553.52,134.726 553.5,133.5C 553.64,131.97 554.307,130.97 555.5,130.5 Z"/></g>
<g><path style="opacity:0.235" fill="#d9f0e5" d="M 300.5,131.5 C 300.288,134.712 298.621,136.712 295.5,137.5C 297.196,135.475 298.863,133.475 300.5,131.5 Z"/></g>
<g><path style="opacity:0.314" fill="#e4efb7" d="M 602.5,130.5 C 602.833,130.5 603.167,130.5 603.5,130.5C 603.632,133.57 603.299,136.57 602.5,139.5C 602.158,140.338 601.492,140.672 600.5,140.5C 600.833,139.833 601.167,139.167 601.5,138.5C 602.092,135.873 602.425,133.206 602.5,130.5 Z"/></g>
<g><path style="opacity:0.142" fill="#c5c8c8" d="M 176.5,132.5 C 175.597,135.391 175.264,138.391 175.5,141.5C 174.842,140.207 174.508,138.707 174.5,137C 174.569,135.014 175.235,133.514 176.5,132.5 Z"/></g>
<g><path style="opacity:0.196" fill="#d2e5d7" d="M 347.5,114.5 C 347.334,122.174 347.5,129.841 348,137.5C 350.287,139.195 352.121,141.195 353.5,143.5C 353.167,143.5 352.833,143.5 352.5,143.5C 352.5,142.833 352.167,142.5 351.5,142.5C 349.205,141.864 347.539,140.531 346.5,138.5C 346.174,130.316 346.508,122.316 347.5,114.5 Z"/></g>
<g><path style="opacity:0.884" fill="#5cbbbb" d="M 176.5,132.5 C 178.735,132.205 180.735,132.539 182.5,133.5C 180.833,133.5 179.167,133.5 177.5,133.5C 177.5,136.833 177.5,140.167 177.5,143.5C 176.833,143.167 176.167,142.833 175.5,142.5C 175.5,142.167 175.5,141.833 175.5,141.5C 175.264,138.391 175.597,135.391 176.5,132.5 Z"/></g>
<g><path style="opacity:0.235" fill="#c7e9e0" d="M 249.5,135.5 C 250.5,136.5 251.5,137.5 252.5,138.5C 251.5,138.5 250.5,138.5 249.5,138.5C 249.5,137.5 249.5,136.5 249.5,135.5 Z"/></g>
<g><path style="opacity:0.227" fill="#c9e3d9" d="M 265.5,115.5 C 264.31,124.515 265.976,132.849 270.5,140.5C 273.29,144.3 276.623,147.3 280.5,149.5C 275.025,147.864 270.858,144.53 268,139.5C 263.776,131.643 262.943,123.643 265.5,115.5 Z"/></g>
<g><path style="opacity:0.404" fill="#e5f1c0" d="M 570.5,128.5 C 571.598,129.601 571.765,130.934 571,132.5C 570.388,135.115 568.888,136.781 566.5,137.5C 568.312,135.539 569.312,133.206 569.5,130.5C 570.338,130.158 570.672,129.492 570.5,128.5 Z"/></g>
<g><path style="opacity:1" fill="#bbd040" d="M 567.5,97.5 C 569.143,97.4802 570.476,98.1468 571.5,99.5C 572.417,98.8728 573.417,98.5394 574.5,98.5C 577.681,99.3485 580.348,101.015 582.5,103.5C 583.605,107.352 584.938,111.018 586.5,114.5C 586.5,115.167 586.5,115.833 586.5,116.5C 586.334,124.174 586.5,131.841 587,139.5C 588.045,140.373 588.878,141.373 589.5,142.5C 589.5,144.833 589.5,147.167 589.5,149.5C 584.405,149.779 579.405,149.445 574.5,148.5C 574.294,145.549 573.294,142.883 571.5,140.5C 572.488,139.81 573.488,138.643 574.5,137C 574,136.5 573.5,136 573,135.5C 572.667,125.833 572.333,116.167 572,106.5C 572.292,102.288 570.459,99.788 566.5,99C 567.056,98.6174 567.389,98.1174 567.5,97.5 Z"/></g>
<g><path style="opacity:0.063" fill="#a8ccd5" d="M 107.5,121.5 C 103.926,128.077 98.9262,133.41 92.5,137.5C 91.7604,140.836 91.0938,144.17 90.5,147.5C 89.2713,148.281 87.938,148.781 86.5,149C 90.5935,150.348 92.2601,153.181 91.5,157.5C 86.5296,158.353 81.5296,159.02 76.5,159.5C 80.3919,157.647 84.7252,156.647 89.5,156.5C 89.7135,154.856 89.3802,153.356 88.5,152C 86.1902,151.503 83.8568,151.337 81.5,151.5C 82.209,150.596 83.209,150.263 84.5,150.5C 85.8333,150.167 85.8333,149.833 84.5,149.5C 85.5521,147.744 87.2188,147.077 89.5,147.5C 89.2408,143.76 89.5741,140.094 90.5,136.5C 95.1012,134.558 98.7679,131.558 101.5,127.5C 103.916,125.751 105.916,123.751 107.5,121.5 Z"/></g>
<g><path style="opacity:1" fill="#24a7bf" d="M 125.5,160.5 C 122.544,165.165 118.211,167.165 112.5,166.5C 112.34,164.801 112.506,163.134 113,161.5C 115,160.167 117,158.833 119,157.5C 119.34,146.153 119.84,134.82 120.5,123.5C 121.935,122.21 122.935,120.544 123.5,118.5C 124.655,121.446 124.821,124.446 124,127.5C 122.858,129.679 122.025,132.012 121.5,134.5C 122.689,135.429 124.022,135.762 125.5,135.5C 125.5,143.833 125.5,152.167 125.5,160.5 Z"/></g>
<g><path style="opacity:0.561" fill="#b3d6c6" d="M 282.5,134.5 C 286.233,138.18 290.566,139.18 295.5,137.5C 293.365,139.369 290.698,140.036 287.5,139.5C 285.089,138.483 283.422,136.816 282.5,134.5 Z"/></g>
<g><path style="opacity:0.09" fill="#d4e3ca" d="M 446.5,129.5 C 454.361,139.447 463.694,141.114 474.5,134.5C 473.833,135.5 473.167,136.5 472.5,137.5C 463.832,140.966 455.832,139.966 448.5,134.5C 447.833,132.833 447.167,131.167 446.5,129.5 Z"/></g>
<g><path style="opacity:0.122" fill="#e9f2cf" d="M 555.5,131.5 C 554.539,136.039 556.373,138.372 561,138.5C 562.825,138.057 564.658,137.723 566.5,137.5C 565.833,138.167 565.167,138.833 564.5,139.5C 560.175,141.508 556.842,140.508 554.5,136.5C 554.216,134.585 554.549,132.919 555.5,131.5 Z"/></g>
<g><path style="opacity:0.278" fill="#b0d5d1" d="M 187.5,135.5 C 189.134,136.207 190.468,137.373 191.5,139C 195.203,139.579 198.869,139.412 202.5,138.5C 202.167,139.167 201.833,139.833 201.5,140.5C 198.555,141.468 195.555,141.634 192.5,141C 189.921,139.924 188.254,138.091 187.5,135.5 Z"/></g>
<g><path style="opacity:0.18" fill="#c6e9de" d="M 252.5,138.5 C 254.553,138.402 256.22,139.069 257.5,140.5C 255.219,140.923 253.552,140.256 252.5,138.5 Z"/></g>
<g><path style="opacity:0.086" fill="#cbcfbd" d="M 601.5,138.5 C 601.167,139.167 600.833,139.833 600.5,140.5C 598.596,140.738 597.262,141.738 596.5,143.5C 596.167,143.5 595.833,143.5 595.5,143.5C 596.268,140.438 598.268,138.772 601.5,138.5 Z"/></g>
<g><path style="opacity:1" fill="#94cc6b" d="M 448.5,134.5 C 455.832,139.966 463.832,140.966 472.5,137.5C 471.922,139.38 470.588,140.38 468.5,140.5C 464.456,141.005 460.456,141.671 456.5,142.5C 455.808,141.975 455.308,141.308 455,140.5C 454.503,143.146 454.336,145.813 454.5,148.5C 460.167,148.5 465.833,148.5 471.5,148.5C 464.018,149.492 456.352,149.825 448.5,149.5C 448.167,148.833 447.833,148.167 447.5,147.5C 449.117,148.038 450.784,148.371 452.5,148.5C 452.5,145.167 452.5,141.833 452.5,138.5C 449.858,138.512 448.525,137.179 448.5,134.5 Z"/></g>
<g><path style="opacity:1" fill="#c1da7a" d="M 542.5,126.5 C 541.076,128.725 540.409,131.225 540.5,134C 540.174,137.828 541.841,139.995 545.5,140.5C 545.166,143.188 545.832,145.521 547.5,147.5C 546.833,147.5 546.167,147.5 545.5,147.5C 543.727,144.94 541.727,142.607 539.5,140.5C 538.209,136.601 538.209,132.601 539.5,128.5C 540.5,127.833 541.5,127.167 542.5,126.5 Z"/></g>
<g><path style="opacity:0.133" fill="#e6e9de" d="M 586.5,116.5 C 587.329,123.655 587.829,130.989 588,138.5C 589.481,139.471 590.315,140.804 590.5,142.5C 590.167,142.5 589.833,142.5 589.5,142.5C 588.878,141.373 588.045,140.373 587,139.5C 586.5,131.841 586.334,124.174 586.5,116.5 Z"/></g>
<g><path style="opacity:0.026" fill="#c3d4d9" d="M 85.5,131.5 C 83.6764,134.846 83.0097,138.513 83.5,142.5C 77.1667,143.167 70.8333,143.833 64.5,144.5C 64.2053,142.265 64.5386,140.265 65.5,138.5C 65.5,140.167 65.5,141.833 65.5,143.5C 70.8141,141.86 76.1475,141.027 81.5,141C 82.4505,137.943 82.7839,134.777 82.5,131.5C 83.5,131.5 84.5,131.5 85.5,131.5 Z"/></g>
<g><path style="opacity:1" fill="#18afa9" d="M 182.5,133.5 C 184.514,133.392 186.18,134.058 187.5,135.5C 188.254,138.091 189.921,139.924 192.5,141C 195.555,141.634 198.555,141.468 201.5,140.5C 200.653,141.966 199.32,142.8 197.5,143C 199.473,143.495 201.473,143.662 203.5,143.5C 203.5,145.167 203.5,146.833 203.5,148.5C 204.833,148.5 206.167,148.5 207.5,148.5C 207.5,148.833 207.5,149.167 207.5,149.5C 198.716,149.916 190.049,149.249 181.5,147.5C 179.861,146.527 178.527,145.194 177.5,143.5C 177.5,140.167 177.5,136.833 177.5,133.5C 179.167,133.5 180.833,133.5 182.5,133.5 Z"/></g>
<g><path style="opacity:0.157" fill="#c4e1d8" d="M 257.5,140.5 C 259.241,142.013 260.241,144.013 260.5,146.5C 260.547,148.038 259.88,149.038 258.5,149.5C 258.632,146.43 258.299,143.43 257.5,140.5 Z"/></g>
<g><path style="opacity:1" fill="#8fc959" d="M 485.5,140.5 C 481.461,144.189 476.794,146.855 471.5,148.5C 465.833,148.5 460.167,148.5 454.5,148.5C 454.336,145.813 454.503,143.146 455,140.5C 455.308,141.308 455.808,141.975 456.5,142.5C 460.456,141.671 464.456,141.005 468.5,140.5C 470.588,140.38 471.922,139.38 472.5,137.5C 473.167,136.5 473.833,135.5 474.5,134.5C 476.02,132.412 477.02,130.078 477.5,127.5C 480.43,126.701 483.43,126.368 486.5,126.5C 486.717,131.23 486.383,135.897 485.5,140.5 Z"/></g>
<g><path style="opacity:0.091" fill="#cdcec0" d="M 660.5,138.5 C 667.121,139.077 669.121,142.41 666.5,148.5C 666.662,146.473 666.495,144.473 666,142.5C 664.02,141.251 662.187,139.918 660.5,138.5 Z"/></g>
<g><path style="opacity:0.102" fill="#c1e2e1" d="M 175.5,142.5 C 176.167,142.833 176.833,143.167 177.5,143.5C 178.527,145.194 179.861,146.527 181.5,147.5C 178.288,147.288 176.288,145.621 175.5,142.5 Z"/></g>
<g><path style="opacity:0.02" fill="#e2ebd1" d="M 539.5,140.5 C 541.727,142.607 543.727,144.94 545.5,147.5C 542.348,146.221 540.348,143.888 539.5,140.5 Z"/></g>
<g><path style="opacity:0.665" fill="#d8da6c" d="M 657.5,138.5 C 658.5,138.5 659.5,138.5 660.5,138.5C 662.187,139.918 664.02,141.251 666,142.5C 666.495,144.473 666.662,146.473 666.5,148.5C 666.167,148.5 665.833,148.5 665.5,148.5C 665.66,146.801 665.494,145.134 665,143.5C 662.26,142.101 659.76,140.434 657.5,138.5 Z"/></g>
<g><path style="opacity:0.106" fill="#c4cdbe" d="M 429.5,130.5 C 430.167,130.833 430.833,131.167 431.5,131.5C 434.5,139.167 439.833,144.5 447.5,147.5C 447.833,148.167 448.167,148.833 448.5,149.5C 439.167,146.167 432.833,139.833 429.5,130.5 Z"/></g>
<g><path style="opacity:0.42" fill="#bfcd93" d="M 572.5,146.5 C 571.167,146.5 569.833,146.5 568.5,146.5C 570.002,143.978 571.335,143.978 572.5,146.5 Z"/></g>
<g><path style="opacity:0.575" fill="#92c6df" d="M 22.5,113.5 C 23.1667,113.833 23.8333,114.167 24.5,114.5C 26.3739,118.826 27.7072,123.326 28.5,128C 28.2116,137.449 28.2116,146.949 28.5,156.5C 28.5,157.5 28.5,158.5 28.5,159.5C 27.7784,159.082 27.2784,158.416 27,157.5C 26.6667,145.833 26.3333,134.167 26,122.5C 25.1114,119.324 23.9447,116.324 22.5,113.5 Z"/></g>
<g><path style="opacity:0.588" fill="#6fbdd7" d="M 56.5,137.5 C 57.1174,137.611 57.6174,137.944 58,138.5C 58.499,142.821 58.6657,147.154 58.5,151.5C 60.2161,151.371 61.8828,151.038 63.5,150.5C 65.1667,150.5 66.8333,150.5 68.5,150.5C 68.5,150.833 68.5,151.167 68.5,151.5C 65.2139,152.207 61.8806,152.54 58.5,152.5C 57.8333,152.5 57.5,152.167 57.5,151.5C 57.7166,146.77 57.3833,142.103 56.5,137.5 Z"/></g>
<g><path style="opacity:0.196" fill="#c3d2c8" d="M 324.5,141.5 C 324.014,144.382 324.014,147.048 324.5,149.5C 333.986,150.494 343.652,150.827 353.5,150.5C 353.5,148.167 353.5,145.833 353.5,143.5C 356.294,147.306 355.461,150.306 351,152.5C 341.868,151.706 332.701,151.206 323.5,151C 321.324,147.651 321.658,144.484 324.5,141.5 Z"/></g>
<g><path style="opacity:0.384" fill="#cdd8bd" d="M 499.5,140.5 C 498.113,142.784 497.113,145.284 496.5,148C 496.57,148.765 496.903,149.265 497.5,149.5C 506.318,150.493 515.318,150.827 524.5,150.5C 524.5,147.833 524.5,145.167 524.5,142.5C 526.115,144.974 526.448,147.64 525.5,150.5C 515.517,151.666 505.517,151.832 495.5,151C 494.402,148.502 494.568,146.002 496,143.5C 496.422,141.574 497.589,140.574 499.5,140.5 Z"/></g>
<g><path style="opacity:0.017" fill="#cccfc2" d="M 590.5,142.5 C 591.181,144.158 592.015,145.825 593,147.5C 593.708,146.619 594.542,145.953 595.5,145.5C 595.5,147.167 595.5,148.833 595.5,150.5C 594.542,150.047 593.708,149.381 593,148.5C 592.626,149.416 592.126,150.25 591.5,151C 587.137,151.29 582.804,151.79 578.5,152.5C 576.013,152.241 574.013,151.241 572.5,149.5C 578.441,150.413 584.441,150.746 590.5,150.5C 590.5,147.833 590.5,145.167 590.5,142.5 Z"/></g>
<g><path style="opacity:0.102" fill="#a5c4c0" d="M 219.5,138.5 C 218.356,144.628 214.356,148.294 207.5,149.5C 207.5,149.167 207.5,148.833 207.5,148.5C 212.692,146.574 216.692,143.241 219.5,138.5 Z"/></g>
<g><path style="opacity:0.388" fill="#f0f6bb" d="M 644.5,146.5 C 646.404,146.738 647.738,147.738 648.5,149.5C 646.596,149.262 645.262,148.262 644.5,146.5 Z"/></g>
<g><path style="opacity:0.082" fill="#cedfbf" d="M 448.5,149.5 C 456.352,149.825 464.018,149.492 471.5,148.5C 476.794,146.855 481.461,144.189 485.5,140.5C 486.117,140.389 486.617,140.056 487,139.5C 487.499,134.845 487.666,130.179 487.5,125.5C 484.482,125.335 481.482,125.502 478.5,126C 477.944,126.383 477.611,126.883 477.5,127.5C 477.02,130.078 476.02,132.412 474.5,134.5C 473.437,126.515 476.937,122.849 485,123.5C 486.436,123.559 487.769,123.892 489,124.5C 489.068,129.828 488.735,135.162 488,140.5C 476.574,151.218 463.407,154.218 448.5,149.5 Z"/></g>
<g><path style="opacity:0.444" fill="#9accbf" d="M 234.5,106.5 C 235.059,119.062 235.892,131.729 237,144.5C 239.08,146.123 241.246,147.623 243.5,149C 248.489,149.499 253.489,149.666 258.5,149.5C 256.71,150.997 254.544,151.664 252,151.5C 242.305,152.587 236.138,148.587 233.5,139.5C 233.863,138.817 234.196,138.15 234.5,137.5C 234.5,127.167 234.5,116.833 234.5,106.5 Z"/></g>
<g><path style="opacity:0.66" fill="#93cfa4" d="M 352.5,143.5 C 352.833,143.5 353.167,143.5 353.5,143.5C 353.5,145.833 353.5,148.167 353.5,150.5C 343.652,150.827 333.986,150.494 324.5,149.5C 333.833,149.5 343.167,149.5 352.5,149.5C 352.5,147.5 352.5,145.5 352.5,143.5 Z"/></g>
<g><path style="opacity:0.7" fill="#bedb89" d="M 523.5,142.5 C 523.833,142.5 524.167,142.5 524.5,142.5C 524.5,145.167 524.5,147.833 524.5,150.5C 515.318,150.827 506.318,150.493 497.5,149.5C 506.167,149.5 514.833,149.5 523.5,149.5C 523.5,147.167 523.5,144.833 523.5,142.5 Z"/></g>
<g><path style="opacity:0.69" fill="#cadc7a" d="M 589.5,142.5 C 589.833,142.5 590.167,142.5 590.5,142.5C 590.5,145.167 590.5,147.833 590.5,150.5C 584.441,150.746 578.441,150.413 572.5,149.5C 572.5,149.167 572.5,148.833 572.5,148.5C 572.5,147.833 572.5,147.167 572.5,146.5C 573.167,147.167 573.833,147.833 574.5,148.5C 579.405,149.445 584.405,149.779 589.5,149.5C 589.5,147.167 589.5,144.833 589.5,142.5 Z"/></g>
<g><path style="opacity:0.063" fill="#e3e5b7" d="M 664.5,148.5 C 664.833,148.5 665.167,148.5 665.5,148.5C 665.833,148.5 666.167,148.5 666.5,148.5C 665.942,149.79 664.942,150.623 663.5,151C 658.225,151.901 653.225,151.401 648.5,149.5C 654.026,149.821 659.36,149.488 664.5,148.5 Z"/></g>
<g><path style="opacity:0.129" fill="#accfcc" d="M 181.5,147.5 C 190.049,149.249 198.716,149.916 207.5,149.5C 198.528,152.697 189.861,152.03 181.5,147.5 Z"/></g>
<g><path style="opacity:0.078" fill="#b3cfc1" d="M 315.5,132.5 C 314.31,140.049 310.31,145.549 303.5,149C 295.716,151.858 288.05,152.025 280.5,149.5C 286.69,149.823 292.69,149.49 298.5,148.5C 307.123,146.208 312.79,140.874 315.5,132.5 Z"/></g>
<g><path style="opacity:0.151" fill="#dde6c6" d="M 568.5,146.5 C 569.833,146.5 571.167,146.5 572.5,146.5C 572.5,147.167 572.5,147.833 572.5,148.5C 569.361,148.025 566.361,148.859 563.5,151C 558.428,151.751 553.428,151.418 548.5,150C 547.058,149.623 546.058,148.79 545.5,147.5C 546.167,147.5 546.833,147.5 547.5,147.5C 548.609,147.557 549.609,147.89 550.5,148.5C 555.167,151.167 559.833,151.167 564.5,148.5C 565.833,147.833 567.167,147.167 568.5,146.5 Z"/></g>
<g><path style="opacity:0.824" fill="#bdd46a" d="M 550.5,148.5 C 553.999,149.444 557.332,149.444 560.5,148.5C 561.833,148.5 563.167,148.5 564.5,148.5C 559.833,151.167 555.167,151.167 550.5,148.5 Z"/></g>
<g><path style="opacity:0.059" fill="#c2d9df" d="M 84.5,149.5 C 84.5,149.833 84.5,150.167 84.5,150.5C 83.209,150.263 82.209,150.596 81.5,151.5C 74.5443,152.799 67.5443,153.799 60.5,154.5C 59.8333,153.833 59.1667,153.167 58.5,152.5C 61.8806,152.54 65.2139,152.207 68.5,151.5C 68.5,151.167 68.5,150.833 68.5,150.5C 69.1667,150.5 69.8333,150.5 70.5,150.5C 75.1304,149.771 79.7971,149.437 84.5,149.5 Z"/></g>
<g><path style="opacity:1" fill="#36a7cb" d="M 81.5,151.5 C 83.8568,151.337 86.1902,151.503 88.5,152C 89.3802,153.356 89.7135,154.856 89.5,156.5C 84.7252,156.647 80.3919,157.647 76.5,159.5C 71.8478,159.998 67.1811,160.331 62.5,160.5C 65.9032,159.075 69.5698,158.242 73.5,158C 74.3366,156.989 74.67,155.822 74.5,154.5C 69.4932,154.751 64.4932,155.084 59.5,155.5C 59.5,157.167 59.5,158.833 59.5,160.5C 57.1546,159.012 56.8212,157.012 58.5,154.5C 59.1667,154.5 59.8333,154.5 60.5,154.5C 67.5443,153.799 74.5443,152.799 81.5,151.5 Z"/></g>
<g><path style="opacity:0.043" fill="#c8dcc4" d="M 418.5,106.5 C 418.833,106.5 419.167,106.5 419.5,106.5C 413.57,121.121 407.737,135.787 402,150.5C 399.588,155.659 396.921,160.659 394,165.5C 392.549,167.464 390.716,168.797 388.5,169.5C 390.403,166.252 392.737,163.252 395.5,160.5C 400.072,151.567 403.739,142.234 406.5,132.5C 410.109,125.126 413.276,117.459 416,109.5C 416.377,108.058 417.21,107.058 418.5,106.5 Z"/></g>
<g><path style="opacity:1" fill="#0099cc" d="M 62.5,160.5 C 61.5,160.5 60.5,160.5 59.5,160.5C 59.5,158.833 59.5,157.167 59.5,155.5C 64.4932,155.084 69.4932,154.751 74.5,154.5C 74.67,155.822 74.3366,156.989 73.5,158C 69.5698,158.242 65.9032,159.075 62.5,160.5 Z"/></g>
<g><path style="opacity:0.184" fill="#caeaf6" d="M 28.5,156.5 C 30.3912,158.016 32.3912,159.35 34.5,160.5C 32.4352,160.483 30.4352,160.15 28.5,159.5C 28.5,158.5 28.5,157.5 28.5,156.5 Z"/></g>
<g><path style="opacity:0.396" fill="#b8ced5" d="M 58.5,154.5 C 56.8212,157.012 57.1546,159.012 59.5,160.5C 60.5,160.5 61.5,160.5 62.5,160.5C 67.1811,160.331 71.8478,159.998 76.5,159.5C 70.7569,161.017 65.0902,162.017 59.5,162.5C 56.4679,160.765 55.1346,158.098 55.5,154.5C 56.5,154.5 57.5,154.5 58.5,154.5 Z"/></g>
<g><path style="opacity:0.954" fill="#3ba8d7" d="M 28.5,159.5 C 30.4352,160.15 32.4352,160.483 34.5,160.5C 34.5,162.5 34.5,164.5 34.5,166.5C 32.2646,166.795 30.2646,166.461 28.5,165.5C 30.1667,165.5 31.8333,165.5 33.5,165.5C 33.6495,164.448 33.4828,163.448 33,162.5C 31.1222,161.947 29.6222,160.947 28.5,159.5 Z"/></g>
<g><path style="opacity:0.303" fill="#adc5cf" d="M 34.5,160.5 C 37.0311,163.015 37.0311,165.681 34.5,168.5C 30.8779,168.048 27.5445,167.048 24.5,165.5C 25.8333,165.5 27.1667,165.5 28.5,165.5C 30.2646,166.461 32.2646,166.795 34.5,166.5C 34.5,164.5 34.5,162.5 34.5,160.5 Z"/></g>
<g><path style="opacity:0.208" fill="#badadf" d="M 125.5,160.5 C 125.833,160.5 126.167,160.5 126.5,160.5C 124.652,165.165 121.152,167.832 116,168.5C 114.698,167.915 113.531,167.249 112.5,166.5C 118.211,167.165 122.544,165.165 125.5,160.5 Z"/></g>
<g><path style="opacity:0.314" fill="#c3d7c4" d="M 383.5,142.5 C 384.558,143.6 385.392,144.934 386,146.5C 386.904,155.275 382.904,160.275 374,161.5C 373.333,164.167 373.333,166.833 374,169.5C 378.787,170.69 383.621,170.69 388.5,169.5C 388.389,170.117 388.056,170.617 387.5,171C 384.374,171.759 381.207,172.259 378,172.5C 375.648,172.695 373.648,172.028 372,170.5C 369.86,162.829 372.526,158.162 380,156.5C 381.147,157.458 382.147,157.125 383,155.5C 384.466,150.955 384.632,146.621 383.5,142.5 Z"/></g>
</svg>
