<?xml version="1.0" encoding="UTF-8"?>
<!DOCTYPE svg PUBLIC "-//W3C//DTD SVG 1.1//EN" "http://www.w3.org/Graphics/SVG/1.1/DTD/svg11.dtd">
<svg xmlns="http://www.w3.org/2000/svg" version="1.1" width="521px" height="479px" style="shape-rendering:geometricPrecision; text-rendering:geometricPrecision; image-rendering:optimizeQuality; fill-rule:evenodd; clip-rule:evenodd" xmlns:xlink="http://www.w3.org/1999/xlink">
<g><path style="opacity:0.87" fill="#aec59e" d="M 340.5,74.5 C 336.167,74.5 331.833,74.5 327.5,74.5C 327.5,74.1667 327.5,73.8333 327.5,73.5C 331.894,72.4103 336.227,72.7437 340.5,74.5 Z"/></g>
<g><path style="opacity:0.169" fill="#c1ccb8" d="M 340.5,74.5 C 342.38,74.2291 343.713,74.8958 344.5,76.5C 342.847,76.3404 341.514,75.6737 340.5,74.5 Z"/></g>
<g><path style="opacity:0.144" fill="#c3cbbf" d="M 327.5,73.5 C 327.5,73.8333 327.5,74.1667 327.5,74.5C 326.883,74.6107 326.383,74.944 326,75.5C 325.502,78.8168 325.335,82.1501 325.5,85.5C 324.399,84.1516 323.399,82.6516 322.5,81C 323.249,79.2663 323.749,77.433 324,75.5C 324.816,74.1772 325.983,73.5106 327.5,73.5 Z"/></g>
<g><path style="opacity:1" fill="#51b8a5" d="M 170.5,74.5 C 165.821,74.3342 161.155,74.5008 156.5,75C 155.875,77.8003 155.208,80.6336 154.5,83.5C 152.554,85.087 151.054,84.7536 150,82.5C 148.991,84.0249 148.491,85.6916 148.5,87.5C 147.167,87.5 145.833,87.5 144.5,87.5C 144.795,89.7354 144.461,91.7354 143.5,93.5C 143.5,92.5 143.5,91.5 143.5,90.5C 144.085,80.7369 149.251,74.7369 159,72.5C 161.599,72.6329 164.266,72.6329 167,72.5C 168.302,73.0848 169.469,73.7515 170.5,74.5 Z"/></g>
<g><path style="opacity:0.435" fill="#c6d7b7" d="M 344.5,76.5 C 347.855,77.8552 350.189,80.1886 351.5,83.5C 348.785,81.4518 346.452,79.1184 344.5,76.5 Z"/></g>
<g><path style="opacity:0.627" fill="#aed0b8" d="M 253.5,84.5 C 246.761,84.5124 240.095,85.1791 233.5,86.5C 232.167,86.5 230.833,86.5 229.5,86.5C 235.401,84.7446 241.568,83.7446 248,83.5C 250.033,83.5056 251.866,83.8389 253.5,84.5 Z"/></g>
<g><path style="opacity:0.651" fill="#97ccbe" d="M 170.5,74.5 C 171.205,77.2281 171.872,80.0614 172.5,83C 171.874,83.7504 171.374,84.5838 171,85.5C 167.167,86.36 163.334,87.36 159.5,88.5C 159.414,87.5041 159.748,86.6708 160.5,86C 163.758,85.7883 166.924,85.2883 170,84.5C 170.498,81.1832 170.665,77.8499 170.5,74.5 Z"/></g>
<g><path style="opacity:1" fill="#5ec07d" d="M 253.5,84.5 C 255.415,84.2155 257.081,84.5489 258.5,85.5C 258.5,85.8333 258.5,86.1667 258.5,86.5C 256.91,86.6282 255.577,87.2949 254.5,88.5C 256.766,89.3142 259.1,89.8142 261.5,90C 259.616,90.2163 257.949,90.883 256.5,92C 258.929,92.4512 259.096,93.2845 257,94.5C 256.586,94.0426 256.086,93.7093 255.5,93.5C 254.374,94.8084 254.374,96.1417 255.5,97.5C 247.458,97.264 239.458,97.5973 231.5,98.5C 230.248,96.6612 230.248,94.8278 231.5,93C 230.833,92.6667 230.167,92.3333 229.5,92C 231.297,90.4695 232.63,88.6361 233.5,86.5C 240.095,85.1791 246.761,84.5124 253.5,84.5 Z"/></g>
<g><path style="opacity:0.388" fill="#aec6b1" d="M 258.5,86.5 C 258.5,86.1667 258.5,85.8333 258.5,85.5C 261.877,85.0679 264.877,85.7345 267.5,87.5C 264.545,86.8413 261.545,86.5079 258.5,86.5 Z"/></g>
<g><path style="opacity:1" fill="#8dc95b" d="M 327.5,74.5 C 331.833,74.5 336.167,74.5 340.5,74.5C 341.514,75.6737 342.847,76.3404 344.5,76.5C 346.452,79.1184 348.785,81.4518 351.5,83.5C 351.309,96.8532 351.642,110.187 352.5,123.5C 352.5,123.833 352.5,124.167 352.5,124.5C 352.5,130.833 352.5,137.167 352.5,143.5C 351.671,135.677 351.171,127.677 351,119.5C 349.266,120.249 347.433,120.749 345.5,121C 347.246,121.471 348.913,122.138 350.5,123C 349.5,123.5 348.5,124 347.5,124.5C 346.335,132.145 346.169,139.812 347,147.5C 347.169,140.144 347.669,132.811 348.5,125.5C 349.251,126.376 349.751,127.376 350,128.5C 350.5,135.158 350.666,141.825 350.5,148.5C 343.959,148.538 343.959,149.204 350.5,150.5C 348.922,151.298 347.256,151.798 345.5,152C 346.793,152.49 348.127,152.657 349.5,152.5C 350.538,160.806 350.705,169.139 350,177.5C 349.722,178.416 349.222,179.082 348.5,179.5C 348.573,177.973 347.906,176.973 346.5,176.5C 342.257,167.935 339.924,158.935 339.5,149.5C 339.5,140.167 339.5,130.833 339.5,121.5C 339.666,112.161 339.5,102.827 339,93.5C 338.79,91.9419 338.29,90.6085 337.5,89.5C 337.027,88.0937 336.027,87.427 334.5,87.5C 331.123,87.9321 328.123,87.2655 325.5,85.5C 325.335,82.1501 325.502,78.8168 326,75.5C 326.383,74.944 326.883,74.6107 327.5,74.5 Z"/></g>
<g><path style="opacity:0.718" fill="#a1c5af" d="M 229.5,86.5 C 226.495,88.2766 223.162,89.2766 219.5,89.5C 222.505,87.7234 225.838,86.7234 229.5,86.5 Z"/></g>
<g><path style="opacity:1" fill="#4fbd82" d="M 229.5,86.5 C 230.833,86.5 232.167,86.5 233.5,86.5C 232.63,88.6361 231.297,90.4695 229.5,92C 230.167,92.3333 230.833,92.6667 231.5,93C 230.248,94.8278 230.248,96.6612 231.5,98.5C 228.053,99.083 225.053,100.416 222.5,102.5C 221.041,102.433 219.708,102.766 218.5,103.5C 217.275,102.848 216.608,101.681 216.5,100C 215.567,97.3911 215.234,94.8911 215.5,92.5C 217.076,91.8571 218.41,90.8571 219.5,89.5C 223.162,89.2766 226.495,88.2766 229.5,86.5 Z"/></g>
<g><path style="opacity:1" fill="#69c376" d="M 258.5,86.5 C 261.545,86.5079 264.545,86.8413 267.5,87.5C 269.099,87.2322 270.432,87.5655 271.5,88.5C 272.965,89.7368 274.632,90.7368 276.5,91.5C 278.349,95.2668 278.849,99.2668 278,103.5C 275.564,102.645 273.064,101.979 270.5,101.5C 268.585,101.784 266.919,101.451 265.5,100.5C 262.548,98.5902 259.214,97.5902 255.5,97.5C 254.374,96.1417 254.374,94.8084 255.5,93.5C 256.086,93.7093 256.586,94.0426 257,94.5C 259.096,93.2845 258.929,92.4512 256.5,92C 257.949,90.883 259.616,90.2163 261.5,90C 259.1,89.8142 256.766,89.3142 254.5,88.5C 255.577,87.2949 256.91,86.6282 258.5,86.5 Z"/></g>
<g><path style="opacity:0.173" fill="#cae6cb" d="M 271.5,88.5 C 274.241,88.7073 276.574,89.7073 278.5,91.5C 277.833,91.5 277.167,91.5 276.5,91.5C 274.632,90.7368 272.965,89.7368 271.5,88.5 Z"/></g>
<g><path style="opacity:0.422" fill="#c3d4b4" d="M 351.5,83.5 C 352.193,87.5655 352.86,91.7321 353.5,96C 353.084,105.256 352.751,114.423 352.5,123.5C 351.642,110.187 351.309,96.8532 351.5,83.5 Z"/></g>
<g><path style="opacity:1" fill="#1fb39a" d="M 170.5,74.5 C 170.665,77.8499 170.498,81.1832 170,84.5C 166.924,85.2883 163.758,85.7883 160.5,86C 159.748,86.6708 159.414,87.5041 159.5,88.5C 158.778,88.9175 158.278,89.5842 158,90.5C 157.667,94.5 157.333,98.5 157,102.5C 156.831,118.339 156.331,134.005 155.5,149.5C 152.253,148.748 148.919,148.248 145.5,148C 147.134,147.506 148.801,147.34 150.5,147.5C 150.19,141.242 150.524,135.076 151.5,129C 149.69,127.39 147.69,126.223 145.5,125.5C 147.766,124.686 150.1,124.186 152.5,124C 149.474,122.733 146.474,122.233 143.5,122.5C 143.5,112.833 143.5,103.167 143.5,93.5C 144.461,91.7354 144.795,89.7354 144.5,87.5C 145.833,87.5 147.167,87.5 148.5,87.5C 148.491,85.6916 148.991,84.0249 150,82.5C 151.054,84.7536 152.554,85.087 154.5,83.5C 155.208,80.6336 155.875,77.8003 156.5,75C 161.155,74.5008 165.821,74.3342 170.5,74.5 Z"/></g>
<g><path style="opacity:0.49" fill="#9ec0ae" d="M 219.5,89.5 C 218.41,90.8571 217.076,91.8571 215.5,92.5C 214.833,92.5 214.167,92.5 213.5,92.5C 215.033,90.7549 217.033,89.7549 219.5,89.5 Z"/></g>
<g><path style="opacity:0.02" fill="#cbd1c7" d="M 334.5,87.5 C 336.027,87.427 337.027,88.0937 337.5,89.5C 337.5,91.1667 337.5,92.8333 337.5,94.5C 336.869,92.0656 335.869,89.7323 334.5,87.5 Z"/></g>
<g><path style="opacity:1" fill="#74c372" d="M 276.5,91.5 C 277.167,91.5 277.833,91.5 278.5,91.5C 279.791,91.2627 280.791,91.596 281.5,92.5C 282.659,94.2503 284.326,95.2503 286.5,95.5C 287.492,95.3284 288.158,95.6618 288.5,96.5C 288.973,97.9063 289.973,98.573 291.5,98.5C 291.5,98.8333 291.5,99.1667 291.5,99.5C 290.761,99.369 290.094,99.5357 289.5,100C 290.803,104.166 290.803,108.333 289.5,112.5C 288.078,111.075 286.411,110.075 284.5,109.5C 282.853,107.674 280.853,106.34 278.5,105.5C 275.455,104.721 272.789,103.387 270.5,101.5C 273.064,101.979 275.564,102.645 278,103.5C 278.849,99.2668 278.349,95.2668 276.5,91.5 Z"/></g>
<g><path style="opacity:0.204" fill="#b5c4b4" d="M 281.5,92.5 C 283.674,92.7497 285.341,93.7497 286.5,95.5C 284.326,95.2503 282.659,94.2503 281.5,92.5 Z"/></g>
<g><path style="opacity:1" fill="#5bc090" d="M 213.5,92.5 C 214.167,92.5 214.833,92.5 215.5,92.5C 215.234,94.8911 215.567,97.3911 216.5,100C 216.608,101.681 217.275,102.848 218.5,103.5C 218.5,103.833 218.5,104.167 218.5,104.5C 216.058,106.226 213.391,107.726 210.5,109C 208.297,111.372 205.963,113.539 203.5,115.5C 203.821,110.305 203.487,105.305 202.5,100.5C 202.833,99.8333 203.167,99.1667 203.5,98.5C 206.161,95.4977 209.495,93.4977 213.5,92.5 Z"/></g>
<g><path style="opacity:0.067" fill="#bcc2bb" d="M 288.5,96.5 C 290.027,96.427 291.027,97.0937 291.5,98.5C 289.973,98.573 288.973,97.9063 288.5,96.5 Z"/></g>
<g><path style="opacity:0.02" fill="#bfd2c5" d="M 255.5,97.5 C 259.214,97.5902 262.548,98.5902 265.5,100.5C 250.967,97.4302 236.634,98.0968 222.5,102.5C 225.053,100.416 228.053,99.083 231.5,98.5C 239.458,97.5973 247.458,97.264 255.5,97.5 Z"/></g>
<g><path style="opacity:0.039" fill="#ccd7cb" d="M 291.5,99.5 C 291.5,99.1667 291.5,98.8333 291.5,98.5C 293.749,99.0798 295.415,100.413 296.5,102.5C 294.589,101.925 292.922,100.925 291.5,99.5 Z"/></g>
<g><path style="opacity:0.831" fill="#a1cd7e" d="M 337.5,89.5 C 338.29,90.6085 338.79,91.9419 339,93.5C 339.5,102.827 339.666,112.161 339.5,121.5C 338.833,113.167 338.167,104.833 337.5,96.5C 337.5,95.8333 337.5,95.1667 337.5,94.5C 337.5,92.8333 337.5,91.1667 337.5,89.5 Z"/></g>
<g><path style="opacity:1" fill="#49bb90" d="M 202.5,100.5 C 203.487,105.305 203.821,110.305 203.5,115.5C 200.471,118.859 197.471,122.192 194.5,125.5C 193.094,125.973 192.427,126.973 192.5,128.5C 192.672,129.492 192.338,130.158 191.5,130.5C 189.461,131.911 188.461,133.911 188.5,136.5C 188.672,137.492 188.338,138.158 187.5,138.5C 186.833,139.167 186.167,139.833 185.5,140.5C 185.323,133.333 185.323,126.333 185.5,119.5C 188.896,119.367 189.229,118.367 186.5,116.5C 187.127,115.583 187.461,114.583 187.5,113.5C 192.205,108.793 197.205,104.46 202.5,100.5 Z"/></g>
<g><path style="opacity:0.035" fill="#c7d5cd" d="M 222.5,102.5 C 221.486,103.674 220.153,104.34 218.5,104.5C 218.5,104.167 218.5,103.833 218.5,103.5C 219.708,102.766 221.041,102.433 222.5,102.5 Z"/></g>
<g><path style="opacity:0.055" fill="#c7cdc6" d="M 296.5,102.5 C 299.167,103.167 300.833,104.833 301.5,107.5C 299.5,106.167 297.833,104.5 296.5,102.5 Z"/></g>
<g><path style="opacity:0.62" fill="#a4d4c0" d="M 203.5,98.5 C 203.167,99.1667 202.833,99.8333 202.5,100.5C 197.205,104.46 192.205,108.793 187.5,113.5C 191.548,107.118 196.882,102.118 203.5,98.5 Z"/></g>
<g><path style="opacity:0.22" fill="#bdcdbc" d="M 278.5,105.5 C 280.853,106.34 282.853,107.674 284.5,109.5C 281.802,109.155 279.802,107.822 278.5,105.5 Z"/></g>
<g><path style="opacity:0.635" fill="#bfd3bb" d="M 284.5,109.5 C 286.411,110.075 288.078,111.075 289.5,112.5C 292.57,115.564 295.237,118.897 297.5,122.5C 292.833,118.5 288.5,114.167 284.5,109.5 Z"/></g>
<g><path style="opacity:1" fill="#7ac56b" d="M 291.5,99.5 C 292.922,100.925 294.589,101.925 296.5,102.5C 297.833,104.5 299.5,106.167 301.5,107.5C 302.167,107.5 302.5,107.833 302.5,108.5C 303.5,110.167 304.833,111.5 306.5,112.5C 306.738,114.404 307.738,115.738 309.5,116.5C 309.738,118.404 310.738,119.738 312.5,120.5C 313.674,121.514 314.34,122.847 314.5,124.5C 312.988,122.683 310.988,121.683 308.5,121.5C 310.294,129.341 310.96,137.341 310.5,145.5C 309.833,144.5 309.167,143.5 308.5,142.5C 308.397,139.364 307.397,136.698 305.5,134.5C 304.662,134.158 304.328,133.492 304.5,132.5C 304.573,130.973 303.906,129.973 302.5,129.5C 302.25,127.326 301.25,125.659 299.5,124.5C 298.5,124.167 297.833,123.5 297.5,122.5C 295.237,118.897 292.57,115.564 289.5,112.5C 290.803,108.333 290.803,104.166 289.5,100C 290.094,99.5357 290.761,99.369 291.5,99.5 Z"/></g>
<g><path style="opacity:0.027" fill="#ccd1cb" d="M 302.5,108.5 C 304.833,108.833 306.167,110.167 306.5,112.5C 304.833,111.5 303.5,110.167 302.5,108.5 Z"/></g>
<g><path style="opacity:0.373" fill="#d0e3ca" d="M 306.5,112.5 C 308.262,113.262 309.262,114.596 309.5,116.5C 307.738,115.738 306.738,114.404 306.5,112.5 Z"/></g>
<g><path style="opacity:0.424" fill="#b5c4af" d="M 309.5,116.5 C 311.262,117.262 312.262,118.596 312.5,120.5C 310.738,119.738 309.738,118.404 309.5,116.5 Z"/></g>
<g><path style="opacity:0.519" fill="#9ccabf" d="M 159.5,88.5 C 158.859,94.658 158.193,100.825 157.5,107C 157.671,113.326 158.004,119.659 158.5,126C 157.732,135.477 157.232,144.977 157,154.5C 156.79,156.058 156.29,157.391 155.5,158.5C 155.5,155.5 155.5,152.5 155.5,149.5C 156.331,134.005 156.831,118.339 157,102.5C 157.333,98.5 157.667,94.5 158,90.5C 158.278,89.5842 158.778,88.9175 159.5,88.5 Z"/></g>
<g><path style="opacity:0.031" fill="#b7c9c2" d="M 194.5,125.5 C 194.573,127.027 193.906,128.027 192.5,128.5C 192.427,126.973 193.094,125.973 194.5,125.5 Z"/></g>
<g><path style="opacity:0.267" fill="#c5d5c0" d="M 299.5,124.5 C 301.25,125.659 302.25,127.326 302.5,129.5C 300.75,128.341 299.75,126.674 299.5,124.5 Z"/></g>
<g><path style="opacity:0.157" fill="#bfcfb8" d="M 314.5,124.5 C 316.771,126.612 318.104,129.279 318.5,132.5C 316.613,130.211 315.279,127.545 314.5,124.5 Z"/></g>
<g><path style="opacity:0.11" fill="#e3f1e0" d="M 302.5,129.5 C 303.906,129.973 304.573,130.973 304.5,132.5C 303.094,132.027 302.427,131.027 302.5,129.5 Z"/></g>
<g><path style="opacity:0.371" fill="#cbd4c5" d="M 337.5,96.5 C 338.167,104.833 338.833,113.167 339.5,121.5C 339.5,130.833 339.5,140.167 339.5,149.5C 338.149,132.017 337.482,114.35 337.5,96.5 Z"/></g>
<g><path style="opacity:0.145" fill="#b1c2bb" d="M 191.5,130.5 C 191.008,132.819 190.008,134.819 188.5,136.5C 188.461,133.911 189.461,131.911 191.5,130.5 Z"/></g>
<g><path style="opacity:1" fill="#81c766" d="M 314.5,124.5 C 315.279,127.545 316.613,130.211 318.5,132.5C 318.5,132.833 318.5,133.167 318.5,133.5C 318.69,136.855 319.69,139.855 321.5,142.5C 321.198,146.79 321.864,150.79 323.5,154.5C 324.794,158.934 324.794,163.267 323.5,167.5C 322.441,172.262 321.108,176.928 319.5,181.5C 316.167,181.5 312.833,181.5 309.5,181.5C 309.993,179.194 310.326,176.861 310.5,174.5C 310.5,172.167 310.5,169.833 310.5,167.5C 311.833,162.5 311.833,157.5 310.5,152.5C 310.5,150.167 310.5,147.833 310.5,145.5C 310.96,137.341 310.294,129.341 308.5,121.5C 310.988,121.683 312.988,122.683 314.5,124.5 Z"/></g>
<g><path style="opacity:0.847" fill="#91c0b0" d="M 177.5,129.5 C 177.241,132.272 176.241,134.605 174.5,136.5C 174.552,133.654 175.552,131.32 177.5,129.5 Z"/></g>
<g><path style="opacity:0.729" fill="#b6d0aa" d="M 318.5,133.5 C 320.472,136.084 321.472,139.084 321.5,142.5C 319.69,139.855 318.69,136.855 318.5,133.5 Z"/></g>
<g><path style="opacity:0.145" fill="#d8e2cf" d="M 352.5,124.5 C 353.248,131.845 353.915,139.345 354.5,147C 354.227,148.533 353.894,150.033 353.5,151.5C 352.527,149.052 352.194,146.385 352.5,143.5C 352.5,137.167 352.5,130.833 352.5,124.5 Z"/></g>
<g><path style="opacity:0.102" fill="#c8dcc2" d="M 305.5,134.5 C 307.397,136.698 308.397,139.364 308.5,142.5C 306.733,140.208 305.733,137.542 305.5,134.5 Z"/></g>
<g><path style="opacity:0.545" fill="#a5caad" d="M 267.5,141.5 C 267.5,141.833 267.5,142.167 267.5,142.5C 263.167,142.5 258.833,142.5 254.5,142.5C 248.998,143.257 243.665,144.59 238.5,146.5C 241.437,144.344 244.771,142.844 248.5,142C 254.89,141.102 261.224,140.935 267.5,141.5 Z"/></g>
<g><path style="opacity:0.102" fill="#d8e1d8" d="M 267.5,142.5 C 267.5,142.167 267.5,141.833 267.5,141.5C 270.187,141.336 272.854,141.503 275.5,142C 276.942,142.377 277.942,143.21 278.5,144.5C 274.985,143.081 271.319,142.414 267.5,142.5 Z"/></g>
<g><path style="opacity:0.596" fill="#a2d3c4" d="M 174.5,137.5 C 174.59,140.152 173.924,142.485 172.5,144.5C 172.171,141.772 172.837,139.438 174.5,137.5 Z"/></g>
<g><path style="opacity:0.137" fill="#c3cebf" d="M 308.5,142.5 C 309.167,143.5 309.833,144.5 310.5,145.5C 310.5,147.833 310.5,150.167 310.5,152.5C 310.5,153.5 310.5,154.5 310.5,155.5C 309.561,151.751 308.561,147.917 307.5,144C 308.056,143.617 308.389,143.117 308.5,142.5 Z"/></g>
<g><path style="opacity:0.541" fill="#99cec5" d="M 143.5,90.5 C 143.5,91.5 143.5,92.5 143.5,93.5C 143.5,103.167 143.5,112.833 143.5,122.5C 143.827,131.682 143.493,140.682 142.5,149.5C 142.768,146.881 142.435,144.381 141.5,142C 142.16,124.735 142.827,107.569 143.5,90.5 Z"/></g>
<g><path style="opacity:0.549" fill="#c4e3cd" d="M 238.5,146.5 C 237.486,147.674 236.153,148.34 234.5,148.5C 235.287,146.896 236.62,146.229 238.5,146.5 Z"/></g>
<g><path style="opacity:0.388" fill="#b6cebe" d="M 234.5,148.5 C 233.833,149.167 233.167,149.833 232.5,150.5C 231.833,150.5 231.167,150.5 230.5,150.5C 231.287,148.896 232.62,148.229 234.5,148.5 Z"/></g>
<g><path style="opacity:1" fill="#3fb994" d="M 187.5,113.5 C 187.461,114.583 187.127,115.583 186.5,116.5C 189.229,118.367 188.896,119.367 185.5,119.5C 185.323,126.333 185.323,133.333 185.5,140.5C 183.516,151.4 183.016,162.4 184,173.5C 184.232,174.737 184.732,175.737 185.5,176.5C 185.054,179.01 185.72,181.01 187.5,182.5C 188.11,183.391 188.443,184.391 188.5,185.5C 188.229,187.38 188.896,188.713 190.5,189.5C 191.441,191.05 192.107,192.716 192.5,194.5C 193.324,197.764 193.658,201.098 193.5,204.5C 193.5,205.167 193.167,205.5 192.5,205.5C 189.303,205.595 186.303,204.928 183.5,203.5C 181.75,202.341 180.75,200.674 180.5,198.5C 180.34,196.847 179.674,195.514 178.5,194.5C 177.326,193.486 176.66,192.153 176.5,190.5C 176.072,187.215 175.072,184.215 173.5,181.5C 173.324,178.273 172.657,175.273 171.5,172.5C 170.835,168.849 170.501,165.015 170.5,161C 170.311,155.248 170.978,149.748 172.5,144.5C 173.924,142.485 174.59,140.152 174.5,137.5C 174.5,137.167 174.5,136.833 174.5,136.5C 176.241,134.605 177.241,132.272 177.5,129.5C 179.654,123.363 182.987,118.03 187.5,113.5 Z"/></g>
<g><path style="opacity:0.463" fill="#bcd7bb" d="M 278.5,144.5 C 281.092,146.036 282.092,148.369 281.5,151.5C 280.656,149.157 279.656,146.824 278.5,144.5 Z"/></g>
<g><path style="opacity:0.071" fill="#c9dbc0" d="M 321.5,142.5 C 322.989,146.236 323.656,150.236 323.5,154.5C 321.864,150.79 321.198,146.79 321.5,142.5 Z"/></g>
<g><path style="opacity:1" fill="#93ca5a" d="M 352.5,143.5 C 352.194,146.385 352.527,149.052 353.5,151.5C 353.5,151.833 353.5,152.167 353.5,152.5C 353.337,154.857 353.503,157.19 354,159.5C 354.383,160.056 354.883,160.389 355.5,160.5C 356.674,161.514 357.34,162.847 357.5,164.5C 357.427,166.027 358.094,167.027 359.5,167.5C 360.268,170.562 362.268,172.228 365.5,172.5C 365.366,174.292 365.699,175.958 366.5,177.5C 366.834,181 366.834,184.334 366.5,187.5C 364.973,187.427 363.973,188.094 363.5,189.5C 362.167,189.5 361.5,190.167 361.5,191.5C 361.5,192.167 361.167,192.5 360.5,192.5C 358.738,193.262 357.738,194.596 357.5,196.5C 355.59,197.975 354.424,199.975 354,202.5C 353.823,206.356 353.323,210.023 352.5,213.5C 350.076,213.808 347.743,213.474 345.5,212.5C 347.003,211.948 348.669,211.948 350.5,212.5C 350.666,204.16 350.5,195.827 350,187.5C 349.683,185.699 349.016,185.366 348,186.5C 347.667,194.5 347.333,202.5 347,210.5C 346.765,203.119 346.265,195.786 345.5,188.5C 346.11,187.609 346.443,186.609 346.5,185.5C 348.262,184.738 349.262,183.404 349.5,181.5C 349.167,180.833 348.833,180.167 348.5,179.5C 349.222,179.082 349.722,178.416 350,177.5C 350.705,169.139 350.538,160.806 349.5,152.5C 348.127,152.657 346.793,152.49 345.5,152C 347.256,151.798 348.922,151.298 350.5,150.5C 343.959,149.204 343.959,148.538 350.5,148.5C 350.666,141.825 350.5,135.158 350,128.5C 349.751,127.376 349.251,126.376 348.5,125.5C 347.669,132.811 347.169,140.144 347,147.5C 346.169,139.812 346.335,132.145 347.5,124.5C 348.5,124 349.5,123.5 350.5,123C 348.913,122.138 347.246,121.471 345.5,121C 347.433,120.749 349.266,120.249 351,119.5C 351.171,127.677 351.671,135.677 352.5,143.5 Z"/></g>
<g><path style="opacity:1" fill="#2fb4a0" d="M 143.5,122.5 C 146.474,122.233 149.474,122.733 152.5,124C 150.1,124.186 147.766,124.686 145.5,125.5C 147.69,126.223 149.69,127.39 151.5,129C 150.524,135.076 150.19,141.242 150.5,147.5C 148.801,147.34 147.134,147.506 145.5,148C 148.919,148.248 152.253,148.748 155.5,149.5C 155.5,152.5 155.5,155.5 155.5,158.5C 155.483,160.565 155.15,162.565 154.5,164.5C 152.926,166.102 152.259,168.102 152.5,170.5C 151.326,171.514 150.66,172.847 150.5,174.5C 150.262,176.404 149.262,177.738 147.5,178.5C 144.833,180.167 144.833,181.833 147.5,183.5C 148.833,183.5 149.5,184.167 149.5,185.5C 150.11,187.434 151.11,189.101 152.5,190.5C 152.723,194.162 153.723,197.495 155.5,200.5C 156.15,202.435 156.483,204.435 156.5,206.5C 156.5,209.5 156.5,212.5 156.5,215.5C 153.145,213.842 150.479,214.675 148.5,218C 149.833,218.667 151.167,219.333 152.5,220C 150.369,220.543 148.369,221.376 146.5,222.5C 147.689,223.429 149.022,223.762 150.5,223.5C 150.19,229.758 150.524,235.924 151.5,242C 150.034,242.635 148.7,243.469 147.5,244.5C 146.264,243.754 144.93,243.421 143.5,243.5C 143.5,250.5 143.5,257.5 143.5,264.5C 142.793,243.3 141.793,221.966 140.5,200.5C 140.573,198.973 139.906,197.973 138.5,197.5C 136.183,193.518 133.183,190.185 129.5,187.5C 129.334,183.154 129.501,178.821 130,174.5C 131.417,173.922 132.25,172.922 132.5,171.5C 134.833,171.167 136.167,169.833 136.5,167.5C 137.906,167.027 138.573,166.027 138.5,164.5C 138.5,164.167 138.5,163.833 138.5,163.5C 139.906,163.027 140.573,162.027 140.5,160.5C 141.087,156.794 141.754,153.127 142.5,149.5C 143.493,140.682 143.827,131.682 143.5,122.5 Z"/></g>
<g><path style="opacity:0.533" fill="#c1e7cf" d="M 230.5,150.5 C 230.027,151.906 229.027,152.573 227.5,152.5C 227.973,151.094 228.973,150.427 230.5,150.5 Z"/></g>
<g><path style="opacity:1" fill="#5cbf7f" d="M 254.5,142.5 C 253.122,143.234 251.622,143.901 250,144.5C 249.502,147.482 249.335,150.482 249.5,153.5C 256.354,153.176 263.021,153.509 269.5,154.5C 269.167,154.5 268.833,154.5 268.5,154.5C 268.167,154.5 267.833,154.5 267.5,154.5C 261.824,154.334 256.157,154.501 250.5,155C 249.584,155.278 248.918,155.778 248.5,156.5C 244.673,156.752 241.34,158.085 238.5,160.5C 236.973,160.427 235.973,161.094 235.5,162.5C 234.141,159.369 232.141,156.535 229.5,154C 231.063,153.241 232.063,152.074 232.5,150.5C 233.167,149.833 233.833,149.167 234.5,148.5C 236.153,148.34 237.486,147.674 238.5,146.5C 243.665,144.59 248.998,143.257 254.5,142.5 Z"/></g>
<g><path style="opacity:0.061" fill="#cdcfcd" d="M 267.5,154.5 C 261.334,155.398 255,156.064 248.5,156.5C 248.918,155.778 249.584,155.278 250.5,155C 256.157,154.501 261.824,154.334 267.5,154.5 Z"/></g>
<g><path style="opacity:0.8" fill="#8ec4a4" d="M 227.5,152.5 C 226.089,154.914 224.089,156.581 221.5,157.5C 222.911,155.086 224.911,153.419 227.5,152.5 Z"/></g>
<g><path style="opacity:1" fill="#69c272" d="M 254.5,142.5 C 258.833,142.5 263.167,142.5 267.5,142.5C 271.319,142.414 274.985,143.081 278.5,144.5C 279.656,146.824 280.656,149.157 281.5,151.5C 281.5,151.833 281.5,152.167 281.5,152.5C 282.12,162.046 281.12,171.38 278.5,180.5C 275.626,180.451 272.792,180.784 270,181.5C 268.301,181.613 267.134,180.947 266.5,179.5C 266.5,178.5 266.5,177.5 266.5,176.5C 268.163,174.562 268.829,172.228 268.5,169.5C 270.033,167.366 270.7,164.866 270.5,162C 270.375,159.449 270.042,156.949 269.5,154.5C 263.021,153.509 256.354,153.176 249.5,153.5C 249.335,150.482 249.502,147.482 250,144.5C 251.622,143.901 253.122,143.234 254.5,142.5 Z"/></g>
<g><path style="opacity:0.145" fill="#beccc1" d="M 248.5,156.5 C 245.449,158.352 242.116,159.686 238.5,160.5C 241.34,158.085 244.673,156.752 248.5,156.5 Z"/></g>
<g><path style="opacity:0.554" fill="#afcca4" d="M 310.5,152.5 C 311.833,157.5 311.833,162.5 310.5,167.5C 310.5,166.833 310.5,166.167 310.5,165.5C 309.253,162.133 309.253,158.799 310.5,155.5C 310.5,154.5 310.5,153.5 310.5,152.5 Z"/></g>
<g><path style="opacity:0.063" fill="#dee5d8" d="M 353.5,152.5 C 354.531,154.961 355.198,157.627 355.5,160.5C 354.883,160.389 354.383,160.056 354,159.5C 353.503,157.19 353.337,154.857 353.5,152.5 Z"/></g>
<g><path style="opacity:0.047" fill="#cdd7c4" d="M 339.5,149.5 C 339.924,158.935 342.257,167.935 346.5,176.5C 344.777,174.747 343.277,172.747 342,170.5C 340.012,163.639 339.178,156.639 339.5,149.5 Z"/></g>
<g><path style="opacity:0.659" fill="#a9c5aa" d="M 268.5,154.5 C 268.833,154.5 269.167,154.5 269.5,154.5C 270.042,156.949 270.375,159.449 270.5,162C 270.7,164.866 270.033,167.366 268.5,169.5C 268.966,164.596 268.966,159.596 268.5,154.5 Z"/></g>
<g><path style="opacity:0.027" fill="#dbf0e1" d="M 238.5,160.5 C 238.027,161.906 237.027,162.573 235.5,162.5C 235.973,161.094 236.973,160.427 238.5,160.5 Z"/></g>
<g><path style="opacity:0.239" fill="#afd1cc" d="M 140.5,160.5 C 140.573,162.027 139.906,163.027 138.5,163.5C 138.427,161.973 139.094,160.973 140.5,160.5 Z"/></g>
<g><path style="opacity:0.341" fill="#b3e0d9" d="M 138.5,164.5 C 138.573,166.027 137.906,167.027 136.5,167.5C 136.427,165.973 137.094,164.973 138.5,164.5 Z"/></g>
<g><path style="opacity:0.255" fill="#bcc6b1" d="M 357.5,164.5 C 358.906,164.973 359.573,165.973 359.5,167.5C 358.094,167.027 357.427,166.027 357.5,164.5 Z"/></g>
<g><path style="opacity:0.353" fill="#a2beb8" d="M 154.5,164.5 C 154.405,166.786 153.738,168.786 152.5,170.5C 152.259,168.102 152.926,166.102 154.5,164.5 Z"/></g>
<g><path style="opacity:0.212" fill="#b9d2c9" d="M 187.5,138.5 C 184.34,151.001 183.673,163.668 185.5,176.5C 184.732,175.737 184.232,174.737 184,173.5C 183.016,162.4 183.516,151.4 185.5,140.5C 186.167,139.833 186.833,139.167 187.5,138.5 Z"/></g>
<g><path style="opacity:0.522" fill="#9fc7b2" d="M 214.5,166.5 C 214.262,168.404 213.262,169.738 211.5,170.5C 211.738,168.596 212.738,167.262 214.5,166.5 Z"/></g>
<g><path style="opacity:0.58" fill="#bcc8ae" d="M 359.5,167.5 C 361.54,169.177 363.54,170.844 365.5,172.5C 362.268,172.228 360.268,170.562 359.5,167.5 Z"/></g>
<g><path style="opacity:0.616" fill="#95cfc7" d="M 136.5,167.5 C 136.167,169.833 134.833,171.167 132.5,171.5C 133.5,169.833 134.833,168.5 136.5,167.5 Z"/></g>
<g><path style="opacity:0.027" fill="#c9dccf" d="M 228.5,168.5 C 228.573,170.027 227.906,171.027 226.5,171.5C 226.427,169.973 227.094,168.973 228.5,168.5 Z"/></g>
<g><path style="opacity:0.561" fill="#becfb8" d="M 310.5,165.5 C 310.5,166.167 310.5,166.833 310.5,167.5C 310.5,169.833 310.5,172.167 310.5,174.5C 309.833,175.5 309.167,176.5 308.5,177.5C 308.717,173.295 309.383,169.295 310.5,165.5 Z"/></g>
<g><path style="opacity:0.067" fill="#b7c1bf" d="M 152.5,170.5 C 152.771,172.38 152.104,173.713 150.5,174.5C 150.66,172.847 151.326,171.514 152.5,170.5 Z"/></g>
<g><path style="opacity:0.592" fill="#bdcdbe" d="M 268.5,169.5 C 268.829,172.228 268.163,174.562 266.5,176.5C 266.721,173.933 267.388,171.599 268.5,169.5 Z"/></g>
<g><path style="opacity:0.176" fill="#c0ccbf" d="M 281.5,152.5 C 282.653,158.653 282.82,164.986 282,171.5C 281.584,175.529 280.417,179.196 278.5,182.5C 278.5,181.833 278.5,181.167 278.5,180.5C 281.12,171.38 282.12,162.046 281.5,152.5 Z"/></g>
<g><path style="opacity:0.094" fill="#b9d7ce" d="M 171.5,172.5 C 172.657,175.273 173.324,178.273 173.5,181.5C 171.882,178.829 171.215,175.829 171.5,172.5 Z"/></g>
<g><path style="opacity:0.925" fill="#a2d8bb" d="M 211.5,171.5 C 211.408,173.848 210.408,175.514 208.5,176.5C 208.75,174.326 209.75,172.659 211.5,171.5 Z"/></g>
<g><path style="opacity:0.682" fill="#bac9a5" d="M 365.5,172.5 C 367.345,173.995 367.678,175.662 366.5,177.5C 365.699,175.958 365.366,174.292 365.5,172.5 Z"/></g>
<g><path style="opacity:0.46" fill="#90cec8" d="M 132.5,171.5 C 132.25,172.922 131.417,173.922 130,174.5C 129.501,178.821 129.334,183.154 129.5,187.5C 128.352,183.019 128.185,178.352 129,173.5C 129.816,172.177 130.983,171.511 132.5,171.5 Z"/></g>
<g><path style="opacity:0.09" fill="#c3ceba" d="M 346.5,176.5 C 347.906,176.973 348.573,177.973 348.5,179.5C 347.094,179.027 346.427,178.027 346.5,176.5 Z"/></g>
<g><path style="opacity:0.855" fill="#98c3ad" d="M 208.5,176.5 C 208.88,178.698 208.213,180.365 206.5,181.5C 206.402,179.447 207.069,177.78 208.5,176.5 Z"/></g>
<g><path style="opacity:0.137" fill="#b7c3b9" d="M 266.5,176.5 C 266.5,177.5 266.5,178.5 266.5,179.5C 265.728,180.694 264.728,181.694 263.5,182.5C 263.992,180.181 264.992,178.181 266.5,176.5 Z"/></g>
<g><path style="opacity:0.012" fill="#cadcc1" d="M 323.5,167.5 C 323.805,173.99 322.471,179.99 319.5,185.5C 319.5,184.167 319.5,182.833 319.5,181.5C 321.108,176.928 322.441,172.262 323.5,167.5 Z"/></g>
<g><path style="opacity:0.325" fill="#afddd4" d="M 147.5,178.5 C 146.167,180.167 146.167,181.833 147.5,183.5C 144.833,181.833 144.833,180.167 147.5,178.5 Z"/></g>
<g><path style="opacity:0.694" fill="#a7d0c1" d="M 185.5,176.5 C 186.458,178.302 187.125,180.302 187.5,182.5C 185.72,181.01 185.054,179.01 185.5,176.5 Z"/></g>
<g><path style="opacity:0.714" fill="#bad6b1" d="M 308.5,178.5 C 308.741,180.898 308.074,182.898 306.5,184.5C 306.259,182.102 306.926,180.102 308.5,178.5 Z"/></g>
<g><path style="opacity:0.655" fill="#cae2b5" d="M 349.5,181.5 C 349.262,183.404 348.262,184.738 346.5,185.5C 346.738,183.596 347.738,182.262 349.5,181.5 Z"/></g>
<g><path style="opacity:0.024" fill="#b2c7c0" d="M 173.5,181.5 C 175.072,184.215 176.072,187.215 176.5,190.5C 174.528,187.916 173.528,184.916 173.5,181.5 Z"/></g>
<g><path style="opacity:0.616" fill="#afccbe" d="M 206.5,181.5 C 206.59,184.152 205.924,186.485 204.5,188.5C 204.41,185.848 205.076,183.515 206.5,181.5 Z"/></g>
<g><path style="opacity:1" fill="#50bd88" d="M 230.5,150.5 C 231.167,150.5 231.833,150.5 232.5,150.5C 232.063,152.074 231.063,153.241 229.5,154C 232.141,156.535 234.141,159.369 235.5,162.5C 233.766,165.2 231.432,167.2 228.5,168.5C 227.094,168.973 226.427,169.973 226.5,171.5C 225.154,173.537 223.82,175.537 222.5,177.5C 219.479,180.84 217.646,184.84 217,189.5C 216.18,196.014 216.347,202.347 217.5,208.5C 217.517,210.565 217.85,212.565 218.5,214.5C 217.812,217.02 216.812,219.52 215.5,222C 216.814,224.605 216.814,227.105 215.5,229.5C 214.833,229.5 214.167,229.5 213.5,229.5C 212.599,228.71 211.932,227.71 211.5,226.5C 210.352,222.213 208.685,218.213 206.5,214.5C 205.596,213.791 205.263,212.791 205.5,211.5C 204.793,203.854 204.46,196.187 204.5,188.5C 205.924,186.485 206.59,184.152 206.5,181.5C 208.213,180.365 208.88,178.698 208.5,176.5C 210.408,175.514 211.408,173.848 211.5,171.5C 211.5,171.167 211.5,170.833 211.5,170.5C 213.262,169.738 214.262,168.404 214.5,166.5C 215.725,162.612 218.059,159.612 221.5,157.5C 224.089,156.581 226.089,154.914 227.5,152.5C 229.027,152.573 230.027,151.906 230.5,150.5 Z"/></g>
<g><path style="opacity:0.588" fill="#a9d3af" d="M 262.5,184.5 C 262.167,186.833 260.833,188.167 258.5,188.5C 259.5,186.833 260.833,185.5 262.5,184.5 Z"/></g>
<g><path style="opacity:0.302" fill="#aac2bc" d="M 149.5,185.5 C 151.727,186.401 152.727,188.067 152.5,190.5C 151.11,189.101 150.11,187.434 149.5,185.5 Z"/></g>
<g><path style="opacity:0.322" fill="#d4e7c5" d="M 346.5,185.5 C 346.443,186.609 346.11,187.609 345.5,188.5C 345.167,188.5 344.833,188.5 344.5,188.5C 344.427,186.973 345.094,185.973 346.5,185.5 Z"/></g>
<g><path style="opacity:0.145" fill="#b2c1ba" d="M 188.5,185.5 C 189.674,186.514 190.34,187.847 190.5,189.5C 188.896,188.713 188.229,187.38 188.5,185.5 Z"/></g>
<g><path style="opacity:0.059" fill="#bdc1ba" d="M 366.5,187.5 C 366.027,188.906 365.027,189.573 363.5,189.5C 363.973,188.094 364.973,187.427 366.5,187.5 Z"/></g>
<g><path style="opacity:0.122" fill="#d3d8cb" d="M 363.5,189.5 C 363.167,190.5 362.5,191.167 361.5,191.5C 361.5,190.167 362.167,189.5 363.5,189.5 Z"/></g>
<g><path style="opacity:0.561" fill="#bcdbc1" d="M 258.5,188.5 C 257.415,190.587 255.749,191.92 253.5,192.5C 254.585,190.413 256.251,189.08 258.5,188.5 Z"/></g>
<g><path style="opacity:1" fill="#69c37a" d="M 266.5,179.5 C 267.134,180.947 268.301,181.613 270,181.5C 272.792,180.784 275.626,180.451 278.5,180.5C 278.5,181.167 278.5,181.833 278.5,182.5C 276.73,187.713 273.73,192.047 269.5,195.5C 268.167,196.167 267.167,197.167 266.5,198.5C 266.167,199.5 265.5,200.167 264.5,200.5C 262.973,200.427 261.973,201.094 261.5,202.5C 259.973,202.427 258.973,203.094 258.5,204.5C 256.973,204.427 255.973,205.094 255.5,206.5C 255.5,207.167 255.167,207.5 254.5,207.5C 252.973,207.427 251.973,208.094 251.5,209.5C 250.833,209.5 250.167,209.5 249.5,209.5C 249.5,205.167 249.5,200.833 249.5,196.5C 249.833,195.833 250.167,195.167 250.5,194.5C 252.027,194.573 253.027,193.906 253.5,192.5C 255.749,191.92 257.415,190.587 258.5,188.5C 260.833,188.167 262.167,186.833 262.5,184.5C 262.328,183.508 262.662,182.842 263.5,182.5C 264.728,181.694 265.728,180.694 266.5,179.5 Z"/></g>
<g><path style="opacity:0.725" fill="#97c2b8" d="M 152.5,190.5 C 154.277,193.505 155.277,196.838 155.5,200.5C 153.723,197.495 152.723,194.162 152.5,190.5 Z"/></g>
<g><path style="opacity:0.51" fill="#a8c1ad" d="M 253.5,192.5 C 253.027,193.906 252.027,194.573 250.5,194.5C 250.973,193.094 251.973,192.427 253.5,192.5 Z"/></g>
<g><path style="opacity:0.176" fill="#c8d4c5" d="M 304.5,188.5 C 303.921,191.331 302.588,193.664 300.5,195.5C 300.998,192.674 302.331,190.34 304.5,188.5 Z"/></g>
<g><path style="opacity:0.024" fill="#c2cebc" d="M 319.5,186.5 C 319.154,190.852 317.488,194.519 314.5,197.5C 315.603,193.503 317.269,189.836 319.5,186.5 Z"/></g>
<g><path style="opacity:0.008" fill="#c0c3bc" d="M 360.5,192.5 C 360.262,194.404 359.262,195.738 357.5,196.5C 357.738,194.596 358.738,193.262 360.5,192.5 Z"/></g>
<g><path style="opacity:0.471" fill="#abc4b0" d="M 250.5,194.5 C 250.167,195.167 249.833,195.833 249.5,196.5C 248.833,196.5 248.167,196.5 247.5,196.5C 247.973,195.094 248.973,194.427 250.5,194.5 Z"/></g>
<g><path style="opacity:1" fill="#7ac669" d="M 310.5,174.5 C 310.326,176.861 309.993,179.194 309.5,181.5C 312.833,181.5 316.167,181.5 319.5,181.5C 319.5,182.833 319.5,184.167 319.5,185.5C 319.5,185.833 319.5,186.167 319.5,186.5C 317.269,189.836 315.603,193.503 314.5,197.5C 314.672,198.492 314.338,199.158 313.5,199.5C 311.75,200.659 310.75,202.326 310.5,204.5C 310.5,205.167 310.167,205.5 309.5,205.5C 308.094,205.973 307.427,206.973 307.5,208.5C 305.5,210.167 303.5,211.833 301.5,213.5C 295.974,213.821 290.64,213.488 285.5,212.5C 291.581,207.755 296.581,202.088 300.5,195.5C 302.588,193.664 303.921,191.331 304.5,188.5C 304.66,186.847 305.326,185.514 306.5,184.5C 308.074,182.898 308.741,180.898 308.5,178.5C 308.5,178.167 308.5,177.833 308.5,177.5C 309.167,176.5 309.833,175.5 310.5,174.5 Z"/></g>
<g><path style="opacity:0.125" fill="#c5e1d7" d="M 178.5,194.5 C 179.674,195.514 180.34,196.847 180.5,198.5C 178.896,197.713 178.229,196.38 178.5,194.5 Z"/></g>
<g><path style="opacity:0.447" fill="#acc2b2" d="M 247.5,196.5 C 246.738,198.262 245.404,199.262 243.5,199.5C 244.262,197.738 245.596,196.738 247.5,196.5 Z"/></g>
<g><path style="opacity:0.031" fill="#c4d0c5" d="M 269.5,195.5 C 269.5,197.5 268.5,198.5 266.5,198.5C 267.167,197.167 268.167,196.167 269.5,195.5 Z"/></g>
<g><path style="opacity:0.078" fill="#c5d5cb" d="M 222.5,177.5 C 218.004,187.314 216.337,197.647 217.5,208.5C 216.347,202.347 216.18,196.014 217,189.5C 217.646,184.84 219.479,180.84 222.5,177.5 Z"/></g>
<g><path style="opacity:0.537" fill="#c1ccb8" d="M 344.5,188.5 C 342.197,194.387 340.53,200.387 339.5,206.5C 339.369,201.022 340.202,195.689 342,190.5C 342.708,189.619 343.542,188.953 344.5,188.5 Z"/></g>
<g><path style="opacity:0.09" fill="#c3e0da" d="M 138.5,197.5 C 139.906,197.973 140.573,198.973 140.5,200.5C 139.094,200.027 138.427,199.027 138.5,197.5 Z"/></g>
<g><path style="opacity:0.827" fill="#aad6c3" d="M 192.5,194.5 C 194.162,196.224 195.162,198.391 195.5,201C 195.192,202.459 194.525,203.626 193.5,204.5C 193.658,201.098 193.324,197.764 192.5,194.5 Z"/></g>
<g><path style="opacity:0.49" fill="#b3cfc1" d="M 204.5,188.5 C 204.46,196.187 204.793,203.854 205.5,211.5C 204.511,207.627 203.511,203.627 202.5,199.5C 202.932,195.65 203.598,191.983 204.5,188.5 Z"/></g>
<g><path style="opacity:0.004" fill="#edf7ee" d="M 264.5,200.5 C 264.027,201.906 263.027,202.573 261.5,202.5C 261.973,201.094 262.973,200.427 264.5,200.5 Z"/></g>
<g><path style="opacity:0.227" fill="#bcc8b7" d="M 313.5,199.5 C 313.25,201.674 312.25,203.341 310.5,204.5C 310.75,202.326 311.75,200.659 313.5,199.5 Z"/></g>
<g><path style="opacity:0.765" fill="#a4cdb0" d="M 243.5,199.5 C 242.415,201.587 240.749,202.92 238.5,203.5C 239.585,201.413 241.251,200.08 243.5,199.5 Z"/></g>
<g><path style="opacity:0.047" fill="#dae6db" d="M 261.5,202.5 C 261.027,203.906 260.027,204.573 258.5,204.5C 258.973,203.094 259.973,202.427 261.5,202.5 Z"/></g>
<g><path style="opacity:0.667" fill="#a4c4ae" d="M 238.5,203.5 C 237.421,205.543 235.754,206.876 233.5,207.5C 234.539,205.469 236.205,204.136 238.5,203.5 Z"/></g>
<g><path style="opacity:0.604" fill="#99d0ba" d="M 183.5,203.5 C 186.303,204.928 189.303,205.595 192.5,205.5C 190.372,206.629 188.039,206.796 185.5,206C 184.244,205.583 183.577,204.75 183.5,203.5 Z"/></g>
<g><path style="opacity:0.047" fill="#e0f1e2" d="M 258.5,204.5 C 258.027,205.906 257.027,206.573 255.5,206.5C 255.973,205.094 256.973,204.427 258.5,204.5 Z"/></g>
<g><path style="opacity:0.576" fill="#b5c7b2" d="M 300.5,195.5 C 296.581,202.088 291.581,207.755 285.5,212.5C 283.999,213.752 282.332,214.752 280.5,215.5C 287.425,209.242 294.092,202.575 300.5,195.5 Z"/></g>
<g><path style="opacity:0.02" fill="#e6f1e4" d="M 309.5,205.5 C 309.573,207.027 308.906,208.027 307.5,208.5C 307.427,206.973 308.094,205.973 309.5,205.5 Z"/></g>
<g><path style="opacity:0.055" fill="#becbc0" d="M 254.5,207.5 C 254.027,208.906 253.027,209.573 251.5,209.5C 251.973,208.094 252.973,207.427 254.5,207.5 Z"/></g>
<g><path style="opacity:0.031" fill="#d3e2d5" d="M 249.5,209.5 C 250.167,209.5 250.833,209.5 251.5,209.5C 251.027,210.906 250.027,211.573 248.5,211.5C 248.833,210.833 249.167,210.167 249.5,209.5 Z"/></g>
<g><path style="opacity:0.004" fill="#e0eade" d="M 307.5,208.5 C 305.906,211.764 303.573,214.431 300.5,216.5C 300.557,215.391 300.89,214.391 301.5,213.5C 303.5,211.833 305.5,210.167 307.5,208.5 Z"/></g>
<g><path style="opacity:0.588" fill="#b0cebb" d="M 232.5,208.5 C 230.833,210.833 228.833,212.833 226.5,214.5C 227.5,211.5 229.5,209.5 232.5,208.5 Z"/></g>
<g><path style="opacity:0.122" fill="#c2d3c9" d="M 217.5,208.5 C 219.02,210.89 220.02,213.557 220.5,216.5C 219.833,215.833 219.167,215.167 218.5,214.5C 217.85,212.565 217.517,210.565 217.5,208.5 Z"/></g>
<g><path style="opacity:1" fill="#54be81" d="M 247.5,196.5 C 248.167,196.5 248.833,196.5 249.5,196.5C 249.5,200.833 249.5,205.167 249.5,209.5C 249.167,210.167 248.833,210.833 248.5,211.5C 248.167,212.5 247.5,213.167 246.5,213.5C 244.251,214.08 242.585,215.413 241.5,217.5C 239.167,220.5 236.5,223.167 233.5,225.5C 230.404,228.786 229.071,232.786 229.5,237.5C 229.667,239.5 229.833,241.5 230,243.5C 230.236,245.119 231.069,246.119 232.5,246.5C 231.969,248.624 230.635,250.124 228.5,251C 229.449,251.617 230.282,251.451 231,250.5C 231.556,252.885 231.39,255.218 230.5,257.5C 229.833,257.5 229.5,257.833 229.5,258.5C 225.833,258.5 222.167,258.5 218.5,258.5C 219.134,250.097 218.467,242.097 216.5,234.5C 216.371,232.784 216.038,231.117 215.5,229.5C 216.814,227.105 216.814,224.605 215.5,222C 216.812,219.52 217.812,217.02 218.5,214.5C 219.167,215.167 219.833,215.833 220.5,216.5C 220.415,217.995 221.081,218.995 222.5,219.5C 224.611,218.395 225.945,216.729 226.5,214.5C 228.833,212.833 230.833,210.833 232.5,208.5C 232.5,207.833 232.833,207.5 233.5,207.5C 235.754,206.876 237.421,205.543 238.5,203.5C 240.749,202.92 242.415,201.587 243.5,199.5C 245.404,199.262 246.738,198.262 247.5,196.5 Z"/></g>
<g><path style="opacity:0.071" fill="#bec6c0" d="M 246.5,213.5 C 245.415,215.587 243.749,216.92 241.5,217.5C 242.585,215.413 244.251,214.08 246.5,213.5 Z"/></g>
<g><path style="opacity:1" fill="#71c371" d="M 285.5,212.5 C 290.64,213.488 295.974,213.821 301.5,213.5C 300.89,214.391 300.557,215.391 300.5,216.5C 298.251,217.08 296.585,218.413 295.5,220.5C 295.167,221.5 294.5,222.167 293.5,222.5C 291.973,222.427 290.973,223.094 290.5,224.5C 288.973,224.427 287.973,225.094 287.5,226.5C 285.534,227.441 283.534,228.441 281.5,229.5C 280.504,235.798 280.17,242.132 280.5,248.5C 277.466,250.247 274.132,251.247 270.5,251.5C 272.166,247.944 274.166,245.277 276.5,243.5C 275.531,235.556 275.198,227.556 275.5,219.5C 276.306,218.272 277.306,217.272 278.5,216.5C 278.842,215.662 279.508,215.328 280.5,215.5C 282.332,214.752 283.999,213.752 285.5,212.5 Z"/></g>
<g><path style="opacity:1" fill="#8dc959" d="M 352.5,213.5 C 352.5,219.167 352.5,224.833 352.5,230.5C 351.673,235.651 351.173,240.984 351,246.5C 347.209,245.725 343.376,245.059 339.5,244.5C 339.5,232.833 339.5,221.167 339.5,209.5C 339.5,208.5 339.5,207.5 339.5,206.5C 340.53,200.387 342.197,194.387 344.5,188.5C 344.833,188.5 345.167,188.5 345.5,188.5C 346.265,195.786 346.765,203.119 347,210.5C 347.333,202.5 347.667,194.5 348,186.5C 349.016,185.366 349.683,185.699 350,187.5C 350.5,195.827 350.666,204.16 350.5,212.5C 348.669,211.948 347.003,211.948 345.5,212.5C 347.743,213.474 350.076,213.808 352.5,213.5 Z"/></g>
<g><path style="opacity:0.165" fill="#b1c9ba" d="M 226.5,214.5 C 225.945,216.729 224.611,218.395 222.5,219.5C 221.081,218.995 220.415,217.995 220.5,216.5C 221.15,216.804 221.817,217.137 222.5,217.5C 223.852,216.476 225.185,215.476 226.5,214.5 Z"/></g>
<g><path style="opacity:0.506" fill="#b8cab8" d="M 278.5,216.5 C 277.306,217.272 276.306,218.272 275.5,219.5C 274.833,219.5 274.167,219.5 273.5,219.5C 274.401,217.273 276.067,216.273 278.5,216.5 Z"/></g>
<g><path style="opacity:0.004" fill="#ecf3ea" d="M 300.5,216.5 C 299.415,218.587 297.749,219.92 295.5,220.5C 296.585,218.413 298.251,217.08 300.5,216.5 Z"/></g>
<g><path style="opacity:0.278" fill="#afcabc" d="M 206.5,214.5 C 208.685,218.213 210.352,222.213 211.5,226.5C 208.763,223.017 207.097,219.017 206.5,214.5 Z"/></g>
<g><path style="opacity:0.596" fill="#bfe6c3" d="M 273.5,219.5 C 273.027,220.906 272.027,221.573 270.5,221.5C 270.973,220.094 271.973,219.427 273.5,219.5 Z"/></g>
<g><path style="opacity:0.035" fill="#d3d8d2" d="M 293.5,222.5 C 293.027,223.906 292.027,224.573 290.5,224.5C 290.973,223.094 291.973,222.427 293.5,222.5 Z"/></g>
<g><path style="opacity:0.02" fill="#eaf3e8" d="M 290.5,224.5 C 290.027,225.906 289.027,226.573 287.5,226.5C 287.973,225.094 288.973,224.427 290.5,224.5 Z"/></g>
<g><path style="opacity:0.416" fill="#ccd8c0" d="M 357.5,196.5 C 356.68,198.812 355.847,201.146 355,203.5C 354.169,222.078 353.502,240.745 353,259.5C 352.951,265.43 352.118,271.097 350.5,276.5C 352.029,261.213 352.696,245.879 352.5,230.5C 352.5,224.833 352.5,219.167 352.5,213.5C 353.323,210.023 353.823,206.356 354,202.5C 354.424,199.975 355.59,197.975 357.5,196.5 Z"/></g>
<g><path style="opacity:0.922" fill="#a4d6bb" d="M 213.5,229.5 C 214.167,229.5 214.833,229.5 215.5,229.5C 216.038,231.117 216.371,232.784 216.5,234.5C 215.263,233.035 214.263,231.368 213.5,229.5 Z"/></g>
<g><path style="opacity:0.675" fill="#c1d6af" d="M 339.5,209.5 C 339.5,221.167 339.5,232.833 339.5,244.5C 339.666,251.175 339.5,257.842 339,264.5C 338.802,266.382 338.302,268.048 337.5,269.5C 338.093,257.537 338.093,245.871 337.5,234.5C 337.655,225.974 338.322,217.64 339.5,209.5 Z"/></g>
<g><path style="opacity:0.054" fill="#dae1d9" d="M 287.5,226.5 C 286.452,228.534 284.786,229.867 282.5,230.5C 281.833,236.654 281.167,242.654 280.5,248.5C 280.17,242.132 280.504,235.798 281.5,229.5C 283.534,228.441 285.534,227.441 287.5,226.5 Z"/></g>
<g><path style="opacity:0.488" fill="#afceba" d="M 233.5,225.5 C 232.375,229.122 231.375,232.789 230.5,236.5C 230.768,239.961 231.768,242.961 233.5,245.5C 233.5,246.167 233.167,246.5 232.5,246.5C 231.069,246.119 230.236,245.119 230,243.5C 229.833,241.5 229.667,239.5 229.5,237.5C 229.071,232.786 230.404,228.786 233.5,225.5 Z"/></g>
<g><path style="opacity:0.294" fill="#cad9cb" d="M 270.5,221.5 C 268.635,227.588 267.969,233.922 268.5,240.5C 266.833,240.5 265.167,240.5 263.5,240.5C 264.531,239.751 265.698,239.085 267,238.5C 267.717,234.955 267.55,231.455 266.5,228C 266.831,225.122 268.164,222.956 270.5,221.5 Z"/></g>
<g><path style="opacity:0.678" fill="#9bd0c3" d="M 156.5,206.5 C 157.262,215.507 157.929,224.674 158.5,234C 158.376,246.074 158.376,258.241 158.5,270.5C 157.675,266.353 157.175,262.019 157,257.5C 156.5,243.504 156.333,229.504 156.5,215.5C 156.5,212.5 156.5,209.5 156.5,206.5 Z"/></g>
<g><path style="opacity:0.729" fill="#abcab3" d="M 263.5,240.5 C 258.9,241.334 254.234,242.334 249.5,243.5C 244.167,244.167 238.833,244.833 233.5,245.5C 243.246,243.027 253.246,241.36 263.5,240.5 Z"/></g>
<g><path style="opacity:1" fill="#63c175" d="M 273.5,219.5 C 274.167,219.5 274.833,219.5 275.5,219.5C 275.198,227.556 275.531,235.556 276.5,243.5C 274.166,245.277 272.166,247.944 270.5,251.5C 268.167,252.167 265.833,252.833 263.5,253.5C 259.481,253.646 255.481,253.979 251.5,254.5C 249.94,252.871 250.273,251.704 252.5,251C 250.709,250.585 249.376,249.585 248.5,248C 249.449,247.383 250.282,247.549 251,248.5C 251.613,246.505 251.113,244.838 249.5,243.5C 254.234,242.334 258.9,241.334 263.5,240.5C 265.167,240.5 266.833,240.5 268.5,240.5C 267.969,233.922 268.635,227.588 270.5,221.5C 272.027,221.573 273.027,220.906 273.5,219.5 Z"/></g>
<g><path style="opacity:0.999" fill="#57bf7d" d="M 249.5,243.5 C 251.113,244.838 251.613,246.505 251,248.5C 250.282,247.549 249.449,247.383 248.5,248C 249.376,249.585 250.709,250.585 252.5,251C 250.273,251.704 249.94,252.871 251.5,254.5C 244.572,255.966 237.572,256.966 230.5,257.5C 231.39,255.218 231.556,252.885 231,250.5C 230.282,251.451 229.449,251.617 228.5,251C 230.635,250.124 231.969,248.624 232.5,246.5C 233.167,246.5 233.5,246.167 233.5,245.5C 238.833,244.833 244.167,244.167 249.5,243.5 Z"/></g>
<g><path style="opacity:1" fill="#2ab59b" d="M 156.5,215.5 C 156.333,229.504 156.5,243.504 157,257.5C 157.175,262.019 157.675,266.353 158.5,270.5C 159.309,271.469 160.309,272.302 161.5,273C 164.036,273.186 166.369,273.686 168.5,274.5C 170.358,278.527 171.025,282.86 170.5,287.5C 166.5,287.5 162.5,287.5 158.5,287.5C 156.901,287.768 155.568,287.434 154.5,286.5C 154.027,285.094 153.027,284.427 151.5,284.5C 150.415,282.413 148.749,281.08 146.5,280.5C 145.49,276.386 144.49,272.386 143.5,268.5C 143.5,267.167 143.5,265.833 143.5,264.5C 143.5,257.5 143.5,250.5 143.5,243.5C 144.93,243.421 146.264,243.754 147.5,244.5C 148.7,243.469 150.034,242.635 151.5,242C 150.524,235.924 150.19,229.758 150.5,223.5C 149.022,223.762 147.689,223.429 146.5,222.5C 148.369,221.376 150.369,220.543 152.5,220C 151.167,219.333 149.833,218.667 148.5,218C 150.479,214.675 153.145,213.842 156.5,215.5 Z"/></g>
<g><path style="opacity:0.039" fill="#c9d1c9" d="M 280.5,248.5 C 280.586,249.496 280.252,250.329 279.5,251C 274.434,253.077 269.101,253.911 263.5,253.5C 265.833,252.833 268.167,252.167 270.5,251.5C 274.132,251.247 277.466,250.247 280.5,248.5 Z"/></g>
<g><path style="opacity:0.6" fill="#a1c0ae" d="M 216.5,234.5 C 218.467,242.097 219.134,250.097 218.5,258.5C 216.974,257.508 216.307,256.008 216.5,254C 217.082,247.371 217.082,240.871 216.5,234.5 Z"/></g>
<g><path style="opacity:1" fill="#8cc95c" d="M 352.5,230.5 C 352.696,245.879 352.029,261.213 350.5,276.5C 348.75,277.659 347.75,279.326 347.5,281.5C 347.167,282.5 346.5,283.167 345.5,283.5C 343.973,283.427 342.973,284.094 342.5,285.5C 340.447,285.402 338.78,286.069 337.5,287.5C 333.563,287.793 329.73,287.46 326,286.5C 325.019,282.183 325.519,278.183 327.5,274.5C 330.93,274.893 334.096,274.227 337,272.5C 337.483,271.552 337.649,270.552 337.5,269.5C 338.302,268.048 338.802,266.382 339,264.5C 339.5,257.842 339.666,251.175 339.5,244.5C 343.376,245.059 347.209,245.725 351,246.5C 351.173,240.984 351.673,235.651 352.5,230.5 Z"/></g>
<g><path style="opacity:0.012" fill="#c3d1c6" d="M 263.5,253.5 C 260.662,254.635 257.662,255.635 254.5,256.5C 253.914,256.291 253.414,255.957 253,255.5C 245.315,257.357 237.482,258.357 229.5,258.5C 229.5,257.833 229.833,257.5 230.5,257.5C 237.572,256.966 244.572,255.966 251.5,254.5C 255.481,253.979 259.481,253.646 263.5,253.5 Z"/></g>
<g><path style="opacity:0.063" fill="#bac9c0" d="M 218.5,258.5 C 222.167,258.5 225.833,258.5 229.5,258.5C 226.858,259.806 224.025,260.806 221,261.5C 219.955,260.627 219.122,259.627 218.5,258.5 Z"/></g>
<g><path style="opacity:0.667" fill="#b9d1bd" d="M 279.5,257.5 C 270.433,257.855 261.433,258.855 252.5,260.5C 246.93,261.897 241.264,262.563 235.5,262.5C 247.79,260.394 260.29,258.06 273,255.5C 274.333,256.833 275.667,256.833 277,255.5C 278.301,255.639 279.134,256.305 279.5,257.5 Z"/></g>
<g><path style="opacity:1" fill="#66c177" d="M 279.5,257.5 C 280.906,257.973 281.573,258.973 281.5,260.5C 282.226,264.307 280.893,266.974 277.5,268.5C 277.167,268.5 276.833,268.5 276.5,268.5C 273.933,268.721 271.599,269.388 269.5,270.5C 262.797,270.838 256.13,271.505 249.5,272.5C 249.5,268.833 249.5,265.167 249.5,261.5C 250.791,261.737 251.791,261.404 252.5,260.5C 261.433,258.855 270.433,257.855 279.5,257.5 Z"/></g>
<g><path style="opacity:1" fill="#58bf7f" d="M 252.5,260.5 C 251.791,261.404 250.791,261.737 249.5,261.5C 249.5,265.167 249.5,268.833 249.5,272.5C 247.5,273.167 245.5,273.833 243.5,274.5C 243.167,274.5 242.833,274.5 242.5,274.5C 237.269,274.444 232.269,275.111 227.5,276.5C 224.5,276.5 221.5,276.5 218.5,276.5C 217.92,272.351 218.586,268.684 220.5,265.5C 220.833,265.5 221.167,265.5 221.5,265.5C 226.383,264.983 231.05,263.983 235.5,262.5C 241.264,262.563 246.93,261.897 252.5,260.5 Z"/></g>
<g><path style="opacity:0.125" fill="#c9d8cf" d="M 235.5,262.5 C 231.05,263.983 226.383,264.983 221.5,265.5C 221.611,264.883 221.944,264.383 222.5,264C 226.832,263.417 231.165,262.917 235.5,262.5 Z"/></g>
<g><path style="opacity:0.165" fill="#cdd8cd" d="M 281.5,260.5 C 282.622,262.288 282.789,264.288 282,266.5C 280.89,268.037 279.39,268.703 277.5,268.5C 280.893,266.974 282.226,264.307 281.5,260.5 Z"/></g>
<g><path style="opacity:0.176" fill="#cacdca" d="M 276.5,268.5 C 274.562,270.163 272.228,270.829 269.5,270.5C 271.599,269.388 273.933,268.721 276.5,268.5 Z"/></g>
<g><path style="opacity:0.569" fill="#b3ccbd" d="M 220.5,265.5 C 218.586,268.684 217.92,272.351 218.5,276.5C 216.747,273.032 216.413,269.365 217.5,265.5C 218.614,264.224 219.614,264.224 220.5,265.5 Z"/></g>
<g><path style="opacity:0.075" fill="#c2d1c4" d="M 269.5,270.5 C 261.057,272.469 252.39,273.803 243.5,274.5C 245.5,273.833 247.5,273.167 249.5,272.5C 256.13,271.505 262.797,270.838 269.5,270.5 Z"/></g>
<g><path style="opacity:0.227" fill="#cbd4c5" d="M 337.5,269.5 C 337.649,270.552 337.483,271.552 337,272.5C 334.096,274.227 330.93,274.893 327.5,274.5C 329.292,273.691 331.292,273.191 333.5,273C 335.35,272.31 336.684,271.144 337.5,269.5 Z"/></g>
<g><path style="opacity:0.435" fill="#a9cdc6" d="M 143.5,268.5 C 144.49,272.386 145.49,276.386 146.5,280.5C 144.034,276.982 143.034,272.982 143.5,268.5 Z"/></g>
<g><path style="opacity:0.047" fill="#bdcdc2" d="M 242.5,274.5 C 237.783,276.238 232.783,276.904 227.5,276.5C 232.269,275.111 237.269,274.444 242.5,274.5 Z"/></g>
<g><path style="opacity:0.333" fill="#bbc8c0" d="M 218.5,276.5 C 221.5,276.5 224.5,276.5 227.5,276.5C 225.107,277.21 222.607,277.877 220,278.5C 219.283,277.956 218.783,277.289 218.5,276.5 Z"/></g>
<g><path style="opacity:0.314" fill="#becbb3" d="M 350.5,276.5 C 350.25,278.674 349.25,280.341 347.5,281.5C 347.75,279.326 348.75,277.659 350.5,276.5 Z"/></g>
<g><path style="opacity:0.578" fill="#bdcab5" d="M 327.5,274.5 C 325.519,278.183 325.019,282.183 326,286.5C 329.73,287.46 333.563,287.793 337.5,287.5C 333.69,289.869 329.69,290.036 325.5,288C 323.239,283.666 322.906,279.166 324.5,274.5C 325.5,274.5 326.5,274.5 327.5,274.5 Z"/></g>
<g><path style="opacity:0.655" fill="#95c0b7" d="M 146.5,280.5 C 148.749,281.08 150.415,282.413 151.5,284.5C 149.251,283.92 147.585,282.587 146.5,280.5 Z"/></g>
<g><path style="opacity:0.667" fill="#a1cdc0" d="M 168.5,274.5 C 169.496,274.414 170.329,274.748 171,275.5C 171.561,279.538 171.895,283.538 172,287.5C 167.4,288.823 162.9,288.823 158.5,287.5C 162.5,287.5 166.5,287.5 170.5,287.5C 171.025,282.86 170.358,278.527 168.5,274.5 Z"/></g>
<g><path style="opacity:0.055" fill="#ccd4c7" d="M 345.5,283.5 C 345.027,284.906 344.027,285.573 342.5,285.5C 342.973,284.094 343.973,283.427 345.5,283.5 Z"/></g>
<g><path style="opacity:0.173" fill="#b4cac5" d="M 151.5,284.5 C 153.027,284.427 154.027,285.094 154.5,286.5C 152.973,286.573 151.973,285.906 151.5,284.5 Z"/></g>
<g><path style="opacity:0.247" fill="#d5e6c8" d="M 342.5,285.5 C 341.22,286.931 339.553,287.598 337.5,287.5C 338.78,286.069 340.447,285.402 342.5,285.5 Z"/></g>
<g><path style="opacity:0.063" fill="#bdcbbc" d="M 268.5,322.5 C 273.985,321.348 279.651,321.182 285.5,322C 286.942,322.377 287.942,323.21 288.5,324.5C 282.06,322.677 275.393,322.01 268.5,322.5 Z"/></g>
<g><path style="opacity:0.231" fill="#c6cbbd" d="M 380.5,319.5 C 378.576,321.695 376.909,324.028 375.5,326.5C 375.475,322.86 377.142,320.527 380.5,319.5 Z"/></g>
<g><path style="opacity:0.588" fill="#bedac0" d="M 268.5,322.5 C 268.5,322.833 268.5,323.167 268.5,323.5C 267.609,324.11 266.609,324.443 265.5,324.5C 265.973,323.094 266.973,322.427 268.5,322.5 Z"/></g>
<g><path style="opacity:0.212" fill="#c0d0c2" d="M 265.5,324.5 C 262.947,326.597 260.614,328.93 258.5,331.5C 259.281,327.596 261.615,325.263 265.5,324.5 Z"/></g>
<g><path style="opacity:0.133" fill="#c6d1c4" d="M 288.5,324.5 C 292.237,324.241 294.57,325.907 295.5,329.5C 293.4,327.384 291.067,325.717 288.5,324.5 Z"/></g>
<g><path style="opacity:0.348" fill="#a9cdc9" d="M 136.5,342.5 C 136.5,340.167 136.5,337.833 136.5,335.5C 134.208,335.756 132.041,335.423 130,334.5C 129.503,331.854 129.336,329.187 129.5,326.5C 126.833,326.5 124.167,326.5 121.5,326.5C 122.036,329.698 121.369,332.365 119.5,334.5C 120.299,331.57 120.632,328.57 120.5,325.5C 123.896,324.802 127.229,324.802 130.5,325.5C 131.432,328.173 131.598,330.839 131,333.5C 138.082,333.684 139.915,336.684 136.5,342.5 Z"/></g>
<g><path style="opacity:1" fill="#73c36e" d="M 268.5,322.5 C 275.393,322.01 282.06,322.677 288.5,324.5C 291.067,325.717 293.4,327.384 295.5,329.5C 295.5,332.5 295.5,335.5 295.5,338.5C 290.299,339.573 287.465,337.573 287,332.5C 286.329,331.748 285.496,331.414 284.5,331.5C 284.389,330.883 284.056,330.383 283.5,330C 279.848,329.501 276.182,329.335 272.5,329.5C 272.178,328.142 272.178,326.475 272.5,324.5C 270.901,324.768 269.568,324.434 268.5,323.5C 268.5,323.167 268.5,322.833 268.5,322.5 Z"/></g>
<g><path style="opacity:0.321" fill="#cad1bb" d="M 416.5,342.5 C 417.369,340.283 417.702,337.95 417.5,335.5C 415.208,335.756 413.041,335.423 411,334.5C 410.503,331.854 410.336,329.187 410.5,326.5C 407.5,326.5 404.5,326.5 401.5,326.5C 401.806,329.385 401.473,332.052 400.5,334.5C 399.992,331.824 399.825,329.157 400,326.5C 403,325.833 406,325.167 409,324.5C 412.022,326.899 413.022,329.899 412,333.5C 414.333,334.167 416.667,334.833 419,335.5C 419.395,337.179 419.228,338.845 418.5,340.5C 418.253,341.713 417.586,342.38 416.5,342.5 Z"/></g>
<g><path style="opacity:0.18" fill="#c5d0c5" d="M 272.5,330.5 C 272.5,330.167 272.5,329.833 272.5,329.5C 276.182,329.335 279.848,329.501 283.5,330C 284.056,330.383 284.389,330.883 284.5,331.5C 280.357,330.557 276.357,330.224 272.5,330.5 Z"/></g>
<g><path style="opacity:0.129" fill="#b8c5b8" d="M 271.5,331.5 C 270.833,332.833 269.833,333.833 268.5,334.5C 268.5,332.5 269.5,331.5 271.5,331.5 Z"/></g>
<g><path style="opacity:0.336" fill="#abd3d4" d="M 101.5,335.5 C 96.4635,335.413 91.4635,335.746 86.5,336.5C 89.1864,335.009 92.1864,334.343 95.5,334.5C 97.6965,334.505 99.6965,334.838 101.5,335.5 Z"/></g>
<g><path style="opacity:0.247" fill="#b4d1ca" d="M 165.5,335.5 C 160.797,335.437 156.13,335.771 151.5,336.5C 154.017,335.027 156.85,334.36 160,334.5C 162.033,334.506 163.866,334.839 165.5,335.5 Z"/></g>
<g><path style="opacity:0.369" fill="#b6d1c7" d="M 196.5,335.5 C 192.167,335.5 187.833,335.5 183.5,335.5C 183.167,335.5 182.833,335.5 182.5,335.5C 187.167,332.833 191.833,332.833 196.5,335.5 Z"/></g>
<g><path style="opacity:0.271" fill="#bcd3c4" d="M 251.5,337.5 C 245.792,335.614 239.792,334.947 233.5,335.5C 233.5,337.5 233.5,339.5 233.5,341.5C 232.768,340.192 231.934,338.858 231,337.5C 230.066,338.858 229.232,340.192 228.5,341.5C 228.5,339.5 228.5,337.5 228.5,335.5C 222.833,335.5 217.167,335.5 211.5,335.5C 211.016,338.788 212.016,341.455 214.5,343.5C 212.5,342.5 210.5,341.5 208.5,340.5C 208.5,338.833 208.5,337.167 208.5,335.5C 209.268,336.263 209.768,337.263 210,338.5C 210.49,337.207 210.657,335.873 210.5,334.5C 221.641,334.03 232.807,333.697 244,333.5C 246.547,333.762 249.047,334.262 251.5,335C 252.598,335.77 252.598,336.603 251.5,337.5 Z"/></g>
<g><path style="opacity:0.22" fill="#bdc7bf" d="M 258.5,331.5 C 256.851,334.456 255.517,337.456 254.5,340.5C 253.657,336.343 254.991,333.343 258.5,331.5 Z"/></g>
<g><path style="opacity:0.114" fill="#c8d4be" d="M 342.5,335.5 C 346.311,334.355 350.311,334.188 354.5,335C 355.056,335.383 355.389,335.883 355.5,336.5C 351.215,335.705 346.881,335.372 342.5,335.5 Z"/></g>
<g><path style="opacity:0.263" fill="#afc8bc" d="M 208.5,335.5 C 206.473,335.338 204.473,335.505 202.5,336C 201.315,337.353 199.981,338.52 198.5,339.5C 197.893,339.376 197.56,339.043 197.5,338.5C 199.713,335.789 202.546,334.123 206,333.5C 206.995,334.066 207.828,334.733 208.5,335.5 Z"/></g>
<g><path style="opacity:1" fill="#41ba8e" d="M 183.5,335.5 C 187.833,335.5 192.167,335.5 196.5,335.5C 197.404,336.209 197.737,337.209 197.5,338.5C 197.56,339.043 197.893,339.376 198.5,339.5C 199.981,338.52 201.315,337.353 202.5,336C 204.473,335.505 206.473,335.338 208.5,335.5C 208.5,337.167 208.5,338.833 208.5,340.5C 208.843,342.483 208.176,343.817 206.5,344.5C 204.143,344.337 201.81,344.503 199.5,345C 198.748,345.671 198.414,346.504 198.5,347.5C 197.167,353.167 197.167,358.833 198.5,364.5C 198.973,365.906 199.973,366.573 201.5,366.5C 201.833,366.5 202.167,366.5 202.5,366.5C 202.5,368.5 202.5,370.5 202.5,372.5C 195.833,372.5 189.167,372.5 182.5,372.5C 182.34,370.801 182.506,369.134 183,367.5C 184.729,367.026 185.895,366.026 186.5,364.5C 188.403,357.406 188.903,350.073 188,342.5C 184.078,341.816 182.578,339.482 183.5,335.5 Z"/></g>
<g><path style="opacity:1" fill="#65c177" d="M 268.5,323.5 C 269.568,324.434 270.901,324.768 272.5,324.5C 272.178,326.475 272.178,328.142 272.5,329.5C 272.5,329.833 272.5,330.167 272.5,330.5C 272.5,331.167 272.167,331.5 271.5,331.5C 269.5,331.5 268.5,332.5 268.5,334.5C 265.061,338.038 263.728,342.371 264.5,347.5C 264.667,350.167 264.833,352.833 265,355.5C 265.223,357.881 266.39,359.547 268.5,360.5C 269.948,363.264 272.281,364.931 275.5,365.5C 276.919,366.451 278.585,366.784 280.5,366.5C 280.5,368.167 280.5,369.833 280.5,371.5C 277.5,371.5 274.5,371.5 271.5,371.5C 269.565,370.85 267.565,370.517 265.5,370.5C 264.167,368.5 262.5,366.833 260.5,365.5C 260.167,364.5 259.5,363.833 258.5,363.5C 257.342,360.011 256.009,356.678 254.5,353.5C 254.5,353.167 254.5,352.833 254.5,352.5C 254.5,349.167 254.5,345.833 254.5,342.5C 254.5,341.833 254.5,341.167 254.5,340.5C 255.517,337.456 256.851,334.456 258.5,331.5C 260.614,328.93 262.947,326.597 265.5,324.5C 266.609,324.443 267.609,324.11 268.5,323.5 Z"/></g>
<g><path style="opacity:0.145" fill="#d6dccb" d="M 400.5,334.5 C 399.081,335.451 397.415,335.784 395.5,335.5C 395.5,337.5 395.5,339.5 395.5,341.5C 394.732,340.737 394.232,339.737 394,338.5C 393.727,340.101 393.227,341.601 392.5,343C 390.567,343.251 388.734,343.751 387,344.5C 386.333,350.5 386.333,356.5 387,362.5C 387.662,363.984 388.496,365.317 389.5,366.5C 387.983,366.489 386.816,365.823 386,364.5C 385.5,357.174 385.334,349.841 385.5,342.5C 391.5,343.833 393.833,341.5 392.5,335.5C 390.473,335.662 388.473,335.495 386.5,335C 384.964,331.76 385.297,328.76 387.5,326C 392.362,325.722 394.696,323.222 394.5,318.5C 389.797,318.437 385.13,318.771 380.5,319.5C 380.918,318.778 381.584,318.278 382.5,318C 386.821,317.501 391.154,317.334 395.5,317.5C 395.663,319.857 395.497,322.19 395,324.5C 390.472,325.126 387.638,327.626 386.5,332C 386.645,332.772 386.978,333.439 387.5,334C 391.821,334.499 396.154,334.666 400.5,334.5 Z"/></g>
<g><path style="opacity:0.678" fill="#9cc2bf" d="M 115.5,335.5 C 115.338,337.527 115.505,339.527 116,341.5C 117.011,342.337 118.178,342.67 119.5,342.5C 116.131,344.049 113.798,342.882 112.5,339C 113.636,337.855 114.636,336.688 115.5,335.5 Z"/></g>
<g><path style="opacity:0.09" fill="#cacfc7" d="M 341.5,335.5 C 339.219,336.339 336.885,337.339 334.5,338.5C 333.52,341.086 333.187,343.753 333.5,346.5C 331.681,345.416 330.015,344.082 328.5,342.5C 327.817,342.863 327.15,343.196 326.5,343.5C 326.5,340.833 326.5,338.167 326.5,335.5C 323.549,335.287 320.882,335.954 318.5,337.5C 322.77,331.841 326.437,332.174 329.5,338.5C 333.401,337.296 337.235,335.963 341,334.5C 341.399,334.728 341.565,335.062 341.5,335.5 Z"/></g>
<g><path style="opacity:0.067" fill="#ced2c8" d="M 357.5,337.5 C 360.5,337.167 361.833,338.5 361.5,341.5C 360.5,339.833 359.167,338.5 357.5,337.5 Z"/></g>
<g><path style="opacity:0.227" fill="#c4ccc2" d="M 295.5,329.5 C 296.401,331.757 298.068,333.257 300.5,334C 303.855,334.546 307.188,334.379 310.5,333.5C 312.557,333.436 314.223,334.102 315.5,335.5C 310.5,335.5 305.5,335.5 300.5,335.5C 300.5,337.167 300.5,338.833 300.5,340.5C 299.685,339.571 298.852,338.571 298,337.5C 295.539,340.991 292.373,341.991 288.5,340.5C 287.312,337.376 285.979,334.376 284.5,331.5C 285.496,331.414 286.329,331.748 287,332.5C 287.465,337.573 290.299,339.573 295.5,338.5C 295.5,335.5 295.5,332.5 295.5,329.5 Z"/></g>
<g><path style="opacity:0.18" fill="#cacfcc" d="M 233.5,341.5 C 234.5,341.5 235.5,341.5 236.5,341.5C 236.405,343.786 235.738,345.786 234.5,347.5C 234.675,345.379 234.341,343.379 233.5,341.5 Z"/></g>
<g><path style="opacity:0.075" fill="#bfc6c1" d="M 251.5,337.5 C 252.289,337.783 252.956,338.283 253.5,339C 249.553,342.111 246.553,345.945 244.5,350.5C 244.914,346.001 247.081,342.667 251,340.5C 251.483,339.552 251.649,338.552 251.5,337.5 Z"/></g>
<g><path style="opacity:1" fill="#9fcb52" d="M 389.5,366.5 C 390.167,366.5 390.5,366.833 390.5,367.5C 390.5,369.167 390.5,370.833 390.5,372.5C 383.833,372.5 377.167,372.5 370.5,372.5C 369.96,368.731 371.294,366.064 374.5,364.5C 375.492,357.352 375.825,350.019 375.5,342.5C 370.094,343.265 368.094,340.931 369.5,335.5C 370.919,334.549 372.585,334.216 374.5,334.5C 374.279,331.721 374.612,329.054 375.5,326.5C 376.909,324.028 378.576,321.695 380.5,319.5C 385.13,318.771 389.797,318.437 394.5,318.5C 394.696,323.222 392.362,325.722 387.5,326C 385.297,328.76 384.964,331.76 386.5,335C 388.473,335.495 390.473,335.662 392.5,335.5C 393.833,341.5 391.5,343.833 385.5,342.5C 385.334,349.841 385.5,357.174 386,364.5C 386.816,365.823 387.983,366.489 389.5,366.5 Z"/></g>
<g><path style="opacity:0.099" fill="#c7c8c7" d="M 300.5,340.5 C 301.391,341.11 302.391,341.443 303.5,341.5C 304.209,342.404 305.209,342.737 306.5,342.5C 306.5,343.5 306.5,344.5 306.5,345.5C 303.606,344.744 301.606,343.077 300.5,340.5 Z"/></g>
<g><path style="opacity:1" fill="#8ec85e" d="M 341.5,335.5 C 341.833,335.5 342.167,335.5 342.5,335.5C 346.881,335.372 351.215,335.705 355.5,336.5C 356.492,336.328 357.158,336.662 357.5,337.5C 359.167,338.5 360.5,339.833 361.5,341.5C 361.5,342.167 361.5,342.833 361.5,343.5C 358.414,342.847 355.414,343.18 352.5,344.5C 351.833,344.167 351.167,343.833 350.5,343.5C 345.804,341.381 342.137,342.547 339.5,347C 337.455,347.49 335.455,347.323 333.5,346.5C 333.187,343.753 333.52,341.086 334.5,338.5C 336.885,337.339 339.219,336.339 341.5,335.5 Z"/></g>
<g><path style="opacity:1" fill="#93c957" d="M 361.5,343.5 C 362.094,350.299 362.761,356.966 363.5,363.5C 363.285,365.179 363.952,366.179 365.5,366.5C 366.451,367.919 366.784,369.585 366.5,371.5C 363.038,372.482 359.371,372.815 355.5,372.5C 354.069,372.119 353.236,371.119 353,369.5C 352.329,370.252 351.496,370.586 350.5,370.5C 349.609,371.11 348.609,371.443 347.5,371.5C 346.761,371.631 346.094,371.464 345.5,371C 346.833,369.667 346.833,368.333 345.5,367C 346.416,366.722 347.082,366.222 347.5,365.5C 351.605,364.252 353.438,361.585 353,357.5C 352.617,356.944 352.117,356.611 351.5,356.5C 349.211,355.942 347.211,354.776 345.5,353C 347.382,352.802 349.048,352.302 350.5,351.5C 351.496,351.586 352.329,351.252 353,350.5C 353.678,348.402 353.511,346.402 352.5,344.5C 355.414,343.18 358.414,342.847 361.5,343.5 Z"/></g>
<g><path style="opacity:0.162" fill="#c4c6c0" d="M 369.5,335.5 C 368.094,340.931 370.094,343.265 375.5,342.5C 375.825,350.019 375.492,357.352 374.5,364.5C 374.83,357.8 374.497,351.134 373.5,344.5C 367.228,343.006 365.895,340.006 369.5,335.5 Z"/></g>
<g><path style="opacity:1" fill="#aacd47" d="M 416.5,342.5 C 414.5,342.5 412.5,342.5 410.5,342.5C 410.334,348.842 410.5,355.175 411,361.5C 411.278,362.416 411.778,363.082 412.5,363.5C 413.552,365.256 415.219,365.923 417.5,365.5C 418.338,365.842 418.672,366.508 418.5,367.5C 418.714,369.144 418.38,370.644 417.5,372C 414.854,372.497 412.187,372.664 409.5,372.5C 409.167,372.5 408.833,372.5 408.5,372.5C 407.486,371.326 406.153,370.66 404.5,370.5C 403.103,361.084 402.103,351.751 401.5,342.5C 399.379,342.675 397.379,342.341 395.5,341.5C 395.5,339.5 395.5,337.5 395.5,335.5C 397.415,335.784 399.081,335.451 400.5,334.5C 401.473,332.052 401.806,329.385 401.5,326.5C 404.5,326.5 407.5,326.5 410.5,326.5C 410.336,329.187 410.503,331.854 411,334.5C 413.041,335.423 415.208,335.756 417.5,335.5C 417.702,337.95 417.369,340.283 416.5,342.5 Z"/></g>
<g><path style="opacity:1" fill="#20b1a6" d="M 136.5,342.5 C 135.167,342.5 133.833,342.5 132.5,342.5C 131.5,342.5 130.5,342.5 129.5,342.5C 129.334,347.844 129.501,353.177 130,358.5C 130.21,360.058 130.71,361.391 131.5,362.5C 132.913,363.935 134.58,364.935 136.5,365.5C 137.686,367.874 137.686,370.208 136.5,372.5C 133.833,373.833 131.167,373.833 128.5,372.5C 126.544,371.508 124.544,370.508 122.5,369.5C 122.5,369.167 122.5,368.833 122.5,368.5C 121.919,359.689 121.252,351.023 120.5,342.5C 120.167,342.5 119.833,342.5 119.5,342.5C 118.178,342.67 117.011,342.337 116,341.5C 115.505,339.527 115.338,337.527 115.5,335.5C 116.568,334.566 117.901,334.232 119.5,334.5C 121.369,332.365 122.036,329.698 121.5,326.5C 124.167,326.5 126.833,326.5 129.5,326.5C 129.336,329.187 129.503,331.854 130,334.5C 132.041,335.423 134.208,335.756 136.5,335.5C 136.5,337.833 136.5,340.167 136.5,342.5 Z"/></g>
<g><path style="opacity:0.204" fill="#acc4c0" d="M 145.5,341.5 C 145.34,343.153 144.674,344.486 143.5,345.5C 143.229,343.62 143.896,342.287 145.5,341.5 Z"/></g>
<g><path style="opacity:0.067" fill="#b7cdc7" d="M 161.5,342.5 C 162.167,342.5 162.5,342.833 162.5,343.5C 160.097,343.448 157.764,343.781 155.5,344.5C 156.99,342.72 158.99,342.054 161.5,342.5 Z"/></g>
<g><path style="opacity:0.999" fill="#32aeb4" d="M 101.5,335.5 C 108.573,336.268 111.239,340.268 109.5,347.5C 108.292,348.234 106.959,348.567 105.5,348.5C 103.821,348.715 102.821,348.048 102.5,346.5C 102.167,344.167 100.833,342.833 98.5,342.5C 96.4727,342.338 94.4727,342.505 92.5,343C 91.1772,343.816 90.5106,344.983 90.5,346.5C 91.733,348.796 93.733,350.13 96.5,350.5C 96.5,352.5 96.5,354.5 96.5,356.5C 94.1667,356.5 91.8333,356.5 89.5,356.5C 87.326,356.25 85.6594,355.25 84.5,353.5C 84.0269,352.094 83.0269,351.427 81.5,351.5C 81.307,347.434 81.6403,343.434 82.5,339.5C 83.2623,337.738 84.5956,336.738 86.5,336.5C 91.4635,335.746 96.4635,335.413 101.5,335.5 Z"/></g>
<g><path style="opacity:0.388" fill="#b6cccc" d="M 98.5,342.5 C 100.833,342.833 102.167,344.167 102.5,346.5C 100.833,345.5 99.5,344.167 98.5,342.5 Z"/></g>
<g><path style="opacity:0.757" fill="#93c6c9" d="M 82.5,339.5 C 81.6403,343.434 81.307,347.434 81.5,351.5C 78.8856,347.278 79.2189,343.278 82.5,339.5 Z"/></g>
<g><path style="opacity:1" fill="#35b797" d="M 172.5,339.5 C 174.316,341.118 175.649,343.118 176.5,345.5C 176.705,351.878 176.372,358.211 175.5,364.5C 174.876,366.754 173.543,368.421 171.5,369.5C 169.973,369.427 168.973,370.094 168.5,371.5C 168.167,371.5 167.833,371.5 167.5,371.5C 163.5,371.5 159.5,371.5 155.5,371.5C 154.99,368.612 155.656,366.279 157.5,364.5C 158.833,364.5 160.167,364.5 161.5,364.5C 164.292,364.548 166.125,363.215 167,360.5C 167.667,356.167 167.667,351.833 167,347.5C 166.34,345.676 165.173,344.343 163.5,343.5C 163.167,343.5 162.833,343.5 162.5,343.5C 162.5,342.833 162.167,342.5 161.5,342.5C 160.659,340.621 160.325,338.621 160.5,336.5C 162.833,336.5 165.167,336.5 167.5,336.5C 167.343,337.873 167.51,339.207 168,340.5C 169.356,339.62 170.856,339.286 172.5,339.5 Z"/></g>
<g><path style="opacity:0.633" fill="#a1d194" d="M 303.5,341.5 C 304.833,341.5 306.167,341.5 307.5,341.5C 307.825,349.352 307.492,357.018 306.5,364.5C 306.5,360.167 306.5,355.833 306.5,351.5C 306.5,349.5 306.5,347.5 306.5,345.5C 306.5,344.5 306.5,343.5 306.5,342.5C 305.209,342.737 304.209,342.404 303.5,341.5 Z"/></g>
<g><path style="opacity:0.024" fill="#c6d6ce" d="M 206.5,344.5 C 203.728,345.082 201.061,346.082 198.5,347.5C 198.414,346.504 198.748,345.671 199.5,345C 201.81,344.503 204.143,344.337 206.5,344.5 Z"/></g>
<g><path style="opacity:0.169" fill="#b7cbbe" d="M 227.5,341.5 C 226.71,344.828 227.377,347.995 229.5,351C 228.944,351.383 228.611,351.883 228.5,352.5C 227.417,349.806 226.417,346.972 225.5,344C 225.684,342.624 226.351,341.791 227.5,341.5 Z"/></g>
<g><path style="opacity:0.008" fill="#dfeada" d="M 326.5,343.5 C 324.524,345.011 322.191,345.844 319.5,346C 318.219,347.409 317.219,348.909 316.5,350.5C 316.5,349.833 316.5,349.167 316.5,348.5C 318.352,344.24 321.686,342.573 326.5,343.5 Z"/></g>
<g><path style="opacity:0.096" fill="#d9dcd6" d="M 395.5,341.5 C 397.379,342.341 399.379,342.675 401.5,342.5C 401.5,349.5 401.5,356.5 401.5,363.5C 400.833,357.321 400.167,350.988 399.5,344.5C 397.517,344.185 396.184,343.185 395.5,341.5 Z"/></g>
<g><path style="opacity:0.012" fill="#c0c7c7" d="M 90.5,346.5 C 93.0545,347.388 95.7212,347.721 98.5,347.5C 98.5,348.5 98.5,349.5 98.5,350.5C 97.8333,350.5 97.1667,350.5 96.5,350.5C 93.733,350.13 91.733,348.796 90.5,346.5 Z"/></g>
<g><path style="opacity:0.11" fill="#bac7bf" d="M 214.5,343.5 C 216.07,346.314 217.403,349.314 218.5,352.5C 215.835,350.165 214.502,347.165 214.5,343.5 Z"/></g>
<g><path style="opacity:0.102" fill="#cacec7" d="M 350.5,343.5 C 351.167,343.833 351.833,344.167 352.5,344.5C 353.511,346.402 353.678,348.402 353,350.5C 352.329,351.252 351.496,351.586 350.5,351.5C 345.308,351.091 340.308,351.758 335.5,353.5C 335.611,352.883 335.944,352.383 336.5,352C 334.852,350.538 333.852,348.705 333.5,346.5C 335.455,347.323 337.455,347.49 339.5,347C 342.137,342.547 345.804,341.381 350.5,343.5 Z M 350.5,343.5 C 350.33,344.822 350.663,345.989 351.5,347C 350.551,347.617 349.718,347.451 349,346.5C 347.249,350.244 344.415,351.244 340.5,349.5C 341.074,347.941 341.74,346.441 342.5,345C 345.168,344.433 347.834,343.933 350.5,343.5 Z"/></g>
<g><path style="opacity:0.031" fill="#cac8c8" d="M 109.5,347.5 C 109.582,349.252 108.749,350.252 107,350.5C 105.97,350.164 105.47,349.497 105.5,348.5C 106.959,348.567 108.292,348.234 109.5,347.5 Z"/></g>
<g><path style="opacity:0.059" fill="#cdd8d0" d="M 234.5,349.5 C 234.167,350.833 233.833,352.167 233.5,353.5C 233.167,353.5 232.833,353.5 232.5,353.5C 232.157,351.517 232.824,350.183 234.5,349.5 Z"/></g>
<g><path style="opacity:1" fill="#58bf7e" d="M 251.5,337.5 C 251.649,338.552 251.483,339.552 251,340.5C 247.081,342.667 244.914,346.001 244.5,350.5C 244.672,351.492 244.338,352.158 243.5,352.5C 242.069,353.78 241.402,355.447 241.5,357.5C 240.069,358.78 239.402,360.447 239.5,362.5C 239.5,362.833 239.5,363.167 239.5,363.5C 237.9,365.703 236.567,368.036 235.5,370.5C 233.836,371.949 233.002,373.949 233,376.5C 231.956,375.377 231.29,374.044 231,372.5C 230.333,368.167 230.333,363.833 231,359.5C 232.669,357.831 233.502,355.831 233.5,353.5C 233.833,352.167 234.167,350.833 234.5,349.5C 234.5,348.833 234.5,348.167 234.5,347.5C 235.738,345.786 236.405,343.786 236.5,341.5C 235.5,341.5 234.5,341.5 233.5,341.5C 233.5,339.5 233.5,337.5 233.5,335.5C 239.792,334.947 245.792,335.614 251.5,337.5 Z"/></g>
<g><path style="opacity:0.318" fill="#bec2bf" d="M 254.5,342.5 C 254.5,345.833 254.5,349.167 254.5,352.5C 253.795,349.772 253.128,346.939 252.5,344C 253.044,343.283 253.711,342.783 254.5,342.5 Z"/></g>
<g><path style="opacity:1" fill="#39b7a1" d="M 165.5,335.5 C 168.614,335.555 170.948,336.888 172.5,339.5C 170.856,339.286 169.356,339.62 168,340.5C 167.51,339.207 167.343,337.873 167.5,336.5C 165.167,336.5 162.833,336.5 160.5,336.5C 160.325,338.621 160.659,340.621 161.5,342.5C 158.99,342.054 156.99,342.72 155.5,344.5C 155.5,345.167 155.167,345.5 154.5,345.5C 153.883,345.611 153.383,345.944 153,346.5C 152.185,351.352 152.352,356.019 153.5,360.5C 154.5,362.167 155.833,363.5 157.5,364.5C 155.656,366.279 154.99,368.612 155.5,371.5C 153.784,371.371 152.117,371.038 150.5,370.5C 146.847,369.011 144.347,366.344 143,362.5C 140.85,356.716 141.017,351.049 143.5,345.5C 144.674,344.486 145.34,343.153 145.5,341.5C 146.911,339.086 148.911,337.419 151.5,336.5C 156.13,335.771 160.797,335.437 165.5,335.5 Z"/></g>
<g><path style="opacity:0.49" fill="#bae4e6" d="M 81.5,351.5 C 83.0269,351.427 84.0269,352.094 84.5,353.5C 82.9731,353.573 81.9731,352.906 81.5,351.5 Z"/></g>
<g><path style="opacity:1" fill="#6dbec1" d="M 96.5,350.5 C 97.1667,350.5 97.8333,350.5 98.5,350.5C 99.791,350.263 100.791,350.596 101.5,351.5C 98.1373,351.667 97.1373,353.167 98.5,356C 97.9444,357.011 97.2778,357.844 96.5,358.5C 93.9327,358.279 91.5994,357.612 89.5,356.5C 91.8333,356.5 94.1667,356.5 96.5,356.5C 96.5,354.5 96.5,352.5 96.5,350.5 Z"/></g>
<g><path style="opacity:0.794" fill="#8ac6ae" d="M 182.5,335.5 C 182.833,335.5 183.167,335.5 183.5,335.5C 182.578,339.482 184.078,341.816 188,342.5C 188.903,350.073 188.403,357.406 186.5,364.5C 186.188,357.578 186.521,350.744 187.5,344C 182.399,342.807 180.732,339.973 182.5,335.5 Z"/></g>
<g><path style="opacity:1" fill="#5cc088" d="M 228.5,341.5 C 228.167,341.5 227.833,341.5 227.5,341.5C 226.351,341.791 225.684,342.624 225.5,344C 226.417,346.972 227.417,349.806 228.5,352.5C 229.558,353.6 230.392,354.934 231,356.5C 231.513,355.473 232.013,354.473 232.5,353.5C 232.833,353.5 233.167,353.5 233.5,353.5C 233.502,355.831 232.669,357.831 231,359.5C 230.333,363.833 230.333,368.167 231,372.5C 231.29,374.044 231.956,375.377 233,376.5C 233.002,373.949 233.836,371.949 235.5,370.5C 235.5,371.167 235.5,371.833 235.5,372.5C 234.695,377.45 232.362,381.45 228.5,384.5C 227.29,384.932 226.29,385.599 225.5,386.5C 222.5,386.5 219.5,386.5 216.5,386.5C 216.5,385.167 216.5,383.833 216.5,382.5C 216.281,381.325 216.614,380.325 217.5,379.5C 220.308,378.906 222.641,377.573 224.5,375.5C 225.695,375.134 226.361,374.301 226.5,373C 225.629,369.529 224.296,366.362 222.5,363.5C 221.691,361.972 221.024,360.306 220.5,358.5C 220.741,356.102 220.074,354.102 218.5,352.5C 217.403,349.314 216.07,346.314 214.5,343.5C 212.016,341.455 211.016,338.788 211.5,335.5C 217.167,335.5 222.833,335.5 228.5,335.5C 228.5,337.5 228.5,339.5 228.5,341.5 Z"/></g>
<g><path style="opacity:1" fill="#35afb0" d="M 101.5,351.5 C 110.804,354.274 113.304,359.94 109,368.5C 107.259,369.758 105.426,370.758 103.5,371.5C 98.5,371.5 93.5,371.5 88.5,371.5C 88.3631,364.374 89.0298,364.041 90.5,370.5C 91.1719,369.051 91.8386,367.718 92.5,366.5C 94.099,366.768 95.4324,366.434 96.5,365.5C 99.2431,365.923 100.576,364.756 100.5,362C 100.316,360.624 99.6491,359.791 98.5,359.5C 97.5084,359.672 96.8417,359.338 96.5,358.5C 97.2778,357.844 97.9444,357.011 98.5,356C 97.1373,353.167 98.1373,351.667 101.5,351.5 Z"/></g>
<g><path style="opacity:0.51" fill="#8fbfb9" d="M 132.5,342.5 C 131.061,343.988 130.395,345.822 130.5,348C 131.285,352.803 131.618,357.637 131.5,362.5C 130.71,361.391 130.21,360.058 130,358.5C 129.501,353.177 129.334,347.844 129.5,342.5C 130.5,342.5 131.5,342.5 132.5,342.5 Z"/></g>
<g><path style="opacity:0.399" fill="#92c1b7" d="M 154.5,345.5 C 153.608,350.438 153.274,355.438 153.5,360.5C 152.352,356.019 152.185,351.352 153,346.5C 153.383,345.944 153.883,345.611 154.5,345.5 Z"/></g>
<g><path style="opacity:0.414" fill="#a0ccb9" d="M 198.5,347.5 C 199.725,353.159 199.725,358.826 198.5,364.5C 197.167,358.833 197.167,353.167 198.5,347.5 Z"/></g>
<g><path style="opacity:0.183" fill="#d0d1d0" d="M 306.5,351.5 C 306.5,355.833 306.5,360.167 306.5,364.5C 306.167,364.5 305.833,364.5 305.5,364.5C 305.726,361.751 305.393,359.084 304.5,356.5C 305.028,354.664 305.694,352.997 306.5,351.5 Z"/></g>
<g><path style="opacity:0.856" fill="#b8d274" d="M 401.5,342.5 C 402.103,351.751 403.103,361.084 404.5,370.5C 402.166,368.824 401.166,366.491 401.5,363.5C 401.5,356.5 401.5,349.5 401.5,342.5 Z"/></g>
<g><path style="opacity:0.388" fill="#cbd3b8" d="M 416.5,342.5 C 414.81,343.103 413.31,344.103 412,345.5C 411.734,351.705 411.901,357.705 412.5,363.5C 411.778,363.082 411.278,362.416 411,361.5C 410.5,355.175 410.334,348.842 410.5,342.5C 412.5,342.5 414.5,342.5 416.5,342.5 Z"/></g>
<g><path style="opacity:0.355" fill="#a5c7be" d="M 163.5,343.5 C 165.173,344.343 166.34,345.676 167,347.5C 167.667,351.833 167.667,356.167 167,360.5C 166.125,363.215 164.292,364.548 161.5,364.5C 165.255,362.325 166.921,358.991 166.5,354.5C 166.497,350.5 165.497,346.833 163.5,343.5 Z"/></g>
<g><path style="opacity:0.386" fill="#b6d2aa" d="M 316.5,348.5 C 316.5,349.167 316.5,349.833 316.5,350.5C 316.66,354.622 316.66,358.956 316.5,363.5C 316.5,363.833 316.5,364.167 316.5,364.5C 315.167,359.167 315.167,353.833 316.5,348.5 Z"/></g>
<g><path style="opacity:1" fill="#90ca63" d="M 350.5,351.5 C 349.048,352.302 347.382,352.802 345.5,353C 347.211,354.776 349.211,355.942 351.5,356.5C 349.143,356.337 346.81,356.503 344.5,357C 343.944,357.383 343.611,357.883 343.5,358.5C 340.756,359.072 339.923,360.738 341,363.5C 341.671,364.252 342.504,364.586 343.5,364.5C 344.568,365.434 345.901,365.768 347.5,365.5C 347.082,366.222 346.416,366.722 345.5,367C 346.833,368.333 346.833,369.667 345.5,371C 346.094,371.464 346.761,371.631 347.5,371.5C 343.495,372.838 339.495,372.505 335.5,370.5C 334.5,368.833 333.167,367.5 331.5,366.5C 330.167,363.5 330.167,360.5 331.5,357.5C 333.167,356.5 334.5,355.167 335.5,353.5C 340.308,351.758 345.308,351.091 350.5,351.5 Z"/></g>
<g><path style="opacity:0.755" fill="#afcf86" d="M 361.5,341.5 C 362.537,342.93 363.204,344.597 363.5,346.5C 363.5,352.167 363.5,357.833 363.5,363.5C 362.761,356.966 362.094,350.299 361.5,343.5C 361.5,342.833 361.5,342.167 361.5,341.5 Z"/></g>
<g><path style="opacity:0.341" fill="#a2cfcc" d="M 120.5,342.5 C 121.252,351.023 121.919,359.689 122.5,368.5C 121.778,368.082 121.278,367.416 121,366.5C 120.776,359.963 120.276,353.463 119.5,347C 120.148,345.56 120.481,344.06 120.5,342.5 Z"/></g>
<g><path style="opacity:0.445" fill="#accec2" d="M 176.5,345.5 C 177.306,346.997 177.972,348.664 178.5,350.5C 177.732,354.445 177.232,358.445 177,362.5C 176.722,363.416 176.222,364.082 175.5,364.5C 176.372,358.211 176.705,351.878 176.5,345.5 Z"/></g>
<g><path style="opacity:0.796" fill="#b4cbb6" d="M 268.5,334.5 C 264.558,343.182 264.558,351.848 268.5,360.5C 266.39,359.547 265.223,357.881 265,355.5C 264.833,352.833 264.667,350.167 264.5,347.5C 263.728,342.371 265.061,338.038 268.5,334.5 Z"/></g>
<g><path style="opacity:0.179" fill="#c3c9c2" d="M 295.5,355.5 C 290.299,354.427 287.465,356.427 287,361.5C 285.491,363.919 283.325,364.919 280.5,364.5C 281.848,363.399 283.348,362.399 285,361.5C 285.977,358.898 287.144,356.398 288.5,354C 290.5,353.333 292.5,353.333 294.5,354C 295.056,354.383 295.389,354.883 295.5,355.5 Z"/></g>
<g><path style="opacity:0.471" fill="#b2d9c3" d="M 218.5,352.5 C 220.074,354.102 220.741,356.102 220.5,358.5C 219.262,356.786 218.595,354.786 218.5,352.5 Z"/></g>
<g><path style="opacity:0.325" fill="#cae9d3" d="M 243.5,352.5 C 243.598,354.553 242.931,356.22 241.5,357.5C 241.402,355.447 242.069,353.78 243.5,352.5 Z"/></g>
<g><path style="opacity:0.447" fill="#bfccb6" d="M 335.5,353.5 C 334.5,355.167 333.167,356.5 331.5,357.5C 331.833,355.167 333.167,353.833 335.5,353.5 Z"/></g>
<g><path style="opacity:0.999" fill="#77c471" d="M 295.5,355.5 C 295.577,359.215 295.244,362.881 294.5,366.5C 287.507,371.835 279.84,373.502 271.5,371.5C 274.5,371.5 277.5,371.5 280.5,371.5C 280.5,369.833 280.5,368.167 280.5,366.5C 278.585,366.784 276.919,366.451 275.5,365.5C 277.415,365.784 279.081,365.451 280.5,364.5C 283.325,364.919 285.491,363.919 287,361.5C 287.465,356.427 290.299,354.427 295.5,355.5 Z"/></g>
<g><path style="opacity:0.034" fill="#ccd1c7" d="M 351.5,356.5 C 352.117,356.611 352.617,356.944 353,357.5C 353.438,361.585 351.605,364.252 347.5,365.5C 345.901,365.768 344.568,365.434 343.5,364.5C 344.873,364.657 346.207,364.49 347.5,364C 348.833,363 348.833,362 347.5,361C 348.325,359.312 349.325,359.145 350.5,360.5C 351.386,359.675 351.719,358.675 351.5,357.5C 348.873,358.092 346.206,358.425 343.5,358.5C 343.611,357.883 343.944,357.383 344.5,357C 346.81,356.503 349.143,356.337 351.5,356.5 Z"/></g>
<g><path style="opacity:0.286" fill="#b1d2bb" d="M 241.5,357.5 C 241.598,359.553 240.931,361.22 239.5,362.5C 239.402,360.447 240.069,358.78 241.5,357.5 Z"/></g>
<g><path style="opacity:0.227" fill="#bccebf" d="M 254.5,353.5 C 256.009,356.678 257.342,360.011 258.5,363.5C 255.819,360.808 254.486,357.475 254.5,353.5 Z"/></g>
<g><path style="opacity:1" fill="#7ec665" d="M 315.5,335.5 C 315.238,336.978 315.571,338.311 316.5,339.5C 317.522,339.145 318.189,338.478 318.5,337.5C 320.882,335.954 323.549,335.287 326.5,335.5C 326.5,338.167 326.5,340.833 326.5,343.5C 321.686,342.573 318.352,344.24 316.5,348.5C 315.167,353.833 315.167,359.167 316.5,364.5C 317.287,366.104 318.62,366.771 320.5,366.5C 320.5,368.5 320.5,370.5 320.5,372.5C 314.167,372.5 307.833,372.5 301.5,372.5C 300.774,368.693 302.107,366.026 305.5,364.5C 305.833,364.5 306.167,364.5 306.5,364.5C 307.492,357.018 307.825,349.352 307.5,341.5C 306.167,341.5 304.833,341.5 303.5,341.5C 302.391,341.443 301.391,341.11 300.5,340.5C 300.5,338.833 300.5,337.167 300.5,335.5C 305.5,335.5 310.5,335.5 315.5,335.5 Z"/></g>
<g><path style="opacity:0.192" fill="#d4e0ce" d="M 315.5,335.5 C 316.222,336.551 317.222,337.218 318.5,337.5C 318.189,338.478 317.522,339.145 316.5,339.5C 315.571,338.311 315.238,336.978 315.5,335.5 Z"/></g>
<g><path style="opacity:0.663" fill="#c5e0ae" d="M 343.5,358.5 C 342.972,359.721 342.305,360.887 341.5,362C 342.381,362.708 343.047,363.542 343.5,364.5C 342.504,364.586 341.671,364.252 341,363.5C 339.923,360.738 340.756,359.072 343.5,358.5 Z"/></g>
<g><path style="opacity:0.122" fill="#c6cfc4" d="M 295.5,355.5 C 296.641,358.64 296.808,361.973 296,365.5C 295.617,366.056 295.117,366.389 294.5,366.5C 295.244,362.881 295.577,359.215 295.5,355.5 Z"/></g>
<g><path style="opacity:0.314" fill="#ced5c7" d="M 363.5,346.5 C 364.329,353.009 364.995,359.676 365.5,366.5C 363.952,366.179 363.285,365.179 363.5,363.5C 363.5,357.833 363.5,352.167 363.5,346.5 Z"/></g>
<g><path style="opacity:0.725" fill="#95c6c9" d="M 87.5,360.5 C 85.5,360.5 83.5,360.5 81.5,360.5C 81.2641,363.609 81.5975,366.609 82.5,369.5C 81.4138,369.38 80.7472,368.713 80.5,367.5C 78.1742,362.679 79.5075,359.679 84.5,358.5C 85.7387,358.942 86.7387,359.609 87.5,360.5 Z"/></g>
<g><path style="opacity:1" fill="#45b2b9" d="M 87.5,360.5 C 88.4884,361.795 89.4884,363.128 90.5,364.5C 91.1667,365.167 91.8333,365.833 92.5,366.5C 91.8386,367.718 91.1719,369.051 90.5,370.5C 89.0298,364.041 88.3631,364.374 88.5,371.5C 93.5,371.5 98.5,371.5 103.5,371.5C 96.198,374.38 89.198,373.713 82.5,369.5C 81.5975,366.609 81.2641,363.609 81.5,360.5C 83.5,360.5 85.5,360.5 87.5,360.5 Z"/></g>
<g><path style="opacity:0.129" fill="#cbe1e0" d="M 98.5,359.5 C 99.6491,359.791 100.316,360.624 100.5,362C 100.576,364.756 99.2431,365.923 96.5,365.5C 99.3638,364.242 100.03,362.242 98.5,359.5 Z"/></g>
<g><path style="opacity:0.031" fill="#c9d1cb" d="M 258.5,363.5 C 259.5,363.833 260.167,364.5 260.5,365.5C 259.167,365.5 258.5,364.833 258.5,363.5 Z"/></g>
<g><path style="opacity:0.22" fill="#c2d7c3" d="M 268.5,360.5 C 272.002,363.337 276.002,364.67 280.5,364.5C 279.081,365.451 277.415,365.784 275.5,365.5C 272.281,364.931 269.948,363.264 268.5,360.5 Z"/></g>
<g><path style="opacity:0.235" fill="#d7e1bc" d="M 412.5,363.5 C 414.306,364.024 415.972,364.691 417.5,365.5C 415.219,365.923 413.552,365.256 412.5,363.5 Z"/></g>
<g><path style="opacity:0.165" fill="#c6e4e5" d="M 90.5,364.5 C 92.5,364.833 94.5,365.167 96.5,365.5C 95.4324,366.434 94.099,366.768 92.5,366.5C 91.8333,365.833 91.1667,365.167 90.5,364.5 Z"/></g>
<g><path style="opacity:0.051" fill="#d3e7dd" d="M 198.5,364.5 C 200.027,364.427 201.027,365.094 201.5,366.5C 199.973,366.573 198.973,365.906 198.5,364.5 Z"/></g>
<g><path style="opacity:0.247" fill="#b9ccbf" d="M 239.5,363.5 C 238.941,366.943 237.607,369.943 235.5,372.5C 235.5,371.833 235.5,371.167 235.5,370.5C 236.567,368.036 237.9,365.703 239.5,363.5 Z"/></g>
<g><path style="opacity:0.227" fill="#add5ce" d="M 136.5,365.5 C 137.993,366.312 138.66,367.645 138.5,369.5C 138.36,371.03 137.693,372.03 136.5,372.5C 137.686,370.208 137.686,367.874 136.5,365.5 Z"/></g>
<g><path style="opacity:0.125" fill="#b5c3bd" d="M 186.5,364.5 C 185.895,366.026 184.729,367.026 183,367.5C 182.506,369.134 182.34,370.801 182.5,372.5C 180.345,368.137 181.678,365.47 186.5,364.5 Z"/></g>
<g><path style="opacity:0.043" fill="#c3cbbd" d="M 331.5,366.5 C 333.167,367.5 334.5,368.833 335.5,370.5C 333.167,370.167 331.833,368.833 331.5,366.5 Z"/></g>
<g><path style="opacity:0.234" fill="#d3d4d2" d="M 305.5,364.5 C 302.107,366.026 300.774,368.693 301.5,372.5C 300.371,370.372 300.204,368.039 301,365.5C 302.356,364.62 303.856,364.286 305.5,364.5 Z"/></g>
<g><path style="opacity:0.379" fill="#c4c4c3" d="M 374.5,364.5 C 371.294,366.064 369.96,368.731 370.5,372.5C 367.995,370.814 367.162,368.481 368,365.5C 370.072,365.742 372.239,365.409 374.5,364.5 Z"/></g>
<g><path style="opacity:0.604" fill="#afddd9" d="M 122.5,369.5 C 124.544,370.508 126.544,371.508 128.5,372.5C 125.687,372.975 123.687,371.975 122.5,369.5 Z"/></g>
<g><path style="opacity:0.435" fill="#afccba" d="M 222.5,363.5 C 224.296,366.362 225.629,369.529 226.5,373C 226.361,374.301 225.695,375.134 224.5,375.5C 224.414,374.504 224.748,373.671 225.5,373C 223.596,370.123 222.596,366.956 222.5,363.5 Z"/></g>
<g><path style="opacity:0.18" fill="#bac5bb" d="M 260.5,365.5 C 262.5,366.833 264.167,368.5 265.5,370.5C 262.833,369.833 261.167,368.167 260.5,365.5 Z"/></g>
<g><path style="opacity:0.016" fill="#bac0be" d="M 171.5,369.5 C 171.027,370.906 170.027,371.573 168.5,371.5C 168.973,370.094 169.973,369.427 171.5,369.5 Z"/></g>
<g><path style="opacity:0.698" fill="#9fcec3" d="M 150.5,370.5 C 152.117,371.038 153.784,371.371 155.5,371.5C 159.5,371.5 163.5,371.5 167.5,371.5C 162.385,373.96 157.052,374.126 151.5,372C 150.944,371.617 150.611,371.117 150.5,370.5 Z"/></g>
<g><path style="opacity:0.043" fill="#d5decd" d="M 335.5,370.5 C 339.495,372.505 343.495,372.838 347.5,371.5C 348.609,371.443 349.609,371.11 350.5,370.5C 350.423,371.75 349.756,372.583 348.5,373C 345.167,373.667 341.833,373.667 338.5,373C 337.058,372.623 336.058,371.79 335.5,370.5 Z"/></g>
<g><path style="opacity:0.31" fill="#c6d2ab" d="M 404.5,370.5 C 406.153,370.66 407.486,371.326 408.5,372.5C 408.565,372.938 408.399,373.272 408,373.5C 406.482,372.837 405.315,371.837 404.5,370.5 Z"/></g>
<g><path style="opacity:0.302" fill="#c4d2cc" d="M 202.5,366.5 C 203.468,368.607 203.802,370.941 203.5,373.5C 196.313,373.825 189.313,373.491 182.5,372.5C 189.167,372.5 195.833,372.5 202.5,372.5C 202.5,370.5 202.5,368.5 202.5,366.5 Z"/></g>
<g><path style="opacity:0.065" fill="#ccd8cc" d="M 294.5,366.5 C 294.489,368.017 293.823,369.184 292.5,370C 283.401,374.312 274.401,374.479 265.5,370.5C 267.565,370.517 269.565,370.85 271.5,371.5C 279.84,373.502 287.507,371.835 294.5,366.5 Z"/></g>
<g><path style="opacity:0.284" fill="#ccd3c8" d="M 316.5,363.5 C 320.928,365.319 322.595,368.486 321.5,373C 317.247,373.2 313.08,373.7 309,374.5C 306.393,373.877 303.893,373.21 301.5,372.5C 307.833,372.5 314.167,372.5 320.5,372.5C 320.5,370.5 320.5,368.5 320.5,366.5C 318.62,366.771 317.287,366.104 316.5,364.5C 316.5,364.167 316.5,363.833 316.5,363.5 Z"/></g>
<g><path style="opacity:0.279" fill="#cacec4" d="M 366.5,371.5 C 367.043,371.56 367.376,371.893 367.5,372.5C 363.351,373.809 359.351,373.809 355.5,372.5C 359.371,372.815 363.038,372.482 366.5,371.5 Z"/></g>
<g><path style="opacity:0.125" fill="#d5dbcd" d="M 390.5,367.5 C 391.461,369.265 391.795,371.265 391.5,373.5C 384.313,373.825 377.313,373.491 370.5,372.5C 377.167,372.5 383.833,372.5 390.5,372.5C 390.5,370.833 390.5,369.167 390.5,367.5 Z"/></g>
<g><path style="opacity:0.09" fill="#daddd2" d="M 418.5,367.5 C 419.807,369.223 419.807,371.057 418.5,373C 415.304,373.805 412.304,373.638 409.5,372.5C 412.187,372.664 414.854,372.497 417.5,372C 418.38,370.644 418.714,369.144 418.5,367.5 Z"/></g>
<g><path style="opacity:0.051" fill="#bfcdc4" d="M 228.5,384.5 C 228.179,386.048 227.179,386.715 225.5,386.5C 226.29,385.599 227.29,384.932 228.5,384.5 Z"/></g>
<g><path style="opacity:0.02" fill="#d3dbd6" d="M 216.5,382.5 C 216.5,383.833 216.5,385.167 216.5,386.5C 219.5,386.5 222.5,386.5 225.5,386.5C 222.375,387.479 219.042,387.813 215.5,387.5C 215.216,385.585 215.549,383.919 216.5,382.5 Z"/></g>
</svg>
