<?xml version="1.0" encoding="UTF-8"?>
<!DOCTYPE svg PUBLIC "-//W3C//DTD SVG 1.1//EN" "http://www.w3.org/Graphics/SVG/1.1/DTD/svg11.dtd">
<svg xmlns="http://www.w3.org/2000/svg" version="1.1" width="520px" height="480px" style="shape-rendering:geometricPrecision; text-rendering:geometricPrecision; image-rendering:optimizeQuality; fill-rule:evenodd; clip-rule:evenodd" xmlns:xlink="http://www.w3.org/1999/xlink">
<g><path style="opacity:0.816" fill="#8dc1b4" d="M 139.5,80.5 C 139.5,80.8333 139.5,81.1667 139.5,81.5C 132.789,81.287 126.123,81.6204 119.5,82.5C 122.958,80.5675 126.791,79.5675 131,79.5C 134.091,79.9989 136.924,80.3323 139.5,80.5 Z"/></g>
<g><path style="opacity:0.045" fill="#c4c6c6" d="M 139.5,81.5 C 139.5,81.1667 139.5,80.8333 139.5,80.5C 141.179,80.2852 142.179,80.9519 142.5,82.5C 141.609,81.8902 140.609,81.5569 139.5,81.5 Z"/></g>
<g><path style="opacity:1" fill="#9dcb5b" d="M 376.5,81.5 C 377.167,82.1667 377.833,82.8333 378.5,83.5C 377.5,83.5 376.5,83.5 375.5,83.5C 374.669,90.1311 374.336,96.7978 374.5,103.5C 373.441,101.445 371.775,100.111 369.5,99.5C 368.209,99.7373 367.209,99.404 366.5,98.5C 363.061,97.9807 359.728,96.9807 356.5,95.5C 355.962,90.5329 356.629,85.8662 358.5,81.5C 364.355,78.9896 370.355,78.9896 376.5,81.5 Z"/></g>
<g><path style="opacity:0.322" fill="#d6e2c4" d="M 376.5,81.5 C 378.553,81.4021 380.22,82.0687 381.5,83.5C 380.5,83.5 379.5,83.5 378.5,83.5C 377.833,82.8333 377.167,82.1667 376.5,81.5 Z"/></g>
<g><path style="opacity:1" fill="#28b49a" d="M 139.5,81.5 C 140.609,81.5569 141.609,81.8902 142.5,82.5C 143.434,83.5676 143.768,84.901 143.5,86.5C 144.006,90.0071 143.34,93.1737 141.5,96C 136.868,97.0721 132.201,98.0721 127.5,99C 126.748,99.6708 126.414,100.504 126.5,101.5C 126.5,101.833 126.5,102.167 126.5,102.5C 125.778,102.918 125.278,103.584 125,104.5C 124.501,109.155 124.334,113.821 124.5,118.5C 124.5,118.833 124.5,119.167 124.5,119.5C 123.555,137.139 123.222,154.806 123.5,172.5C 122.551,176.657 121.884,180.99 121.5,185.5C 119.801,185.66 118.134,185.494 116.5,185C 117.849,184.228 118.682,183.061 119,181.5C 119.744,174.307 119.577,167.141 118.5,160C 118.615,158.105 119.282,156.438 120.5,155C 117.668,153.092 118.001,152.259 121.5,152.5C 121.649,151.448 121.483,150.448 121,149.5C 119.612,150.554 118.112,150.72 116.5,150C 120.361,149.431 120.361,148.598 116.5,147.5C 117.325,146.614 118.325,146.281 119.5,146.5C 120.116,138.061 119.449,129.894 117.5,122C 118.938,121.781 120.271,121.281 121.5,120.5C 119.535,119.708 117.535,119.041 115.5,118.5C 113.671,119.288 112.004,118.788 110.5,117C 112.167,116.667 113.833,116.333 115.5,116C 114.167,114.667 114.167,113.333 115.5,112C 114.5,111.667 113.5,111.333 112.5,111C 114.473,110.505 116.473,110.338 118.5,110.5C 118.666,103.159 118.5,95.8258 118,88.5C 117.005,87.9341 116.172,87.2674 115.5,86.5C 116.5,85.1667 117.5,83.8333 118.5,82.5C 118.833,82.5 119.167,82.5 119.5,82.5C 126.123,81.6204 132.789,81.287 139.5,81.5 Z"/></g>
<g><path style="opacity:1" fill="#a0cb4c" d="M 378.5,83.5 C 379.5,83.5 380.5,83.5 381.5,83.5C 382.492,83.3284 383.158,83.6618 383.5,84.5C 384.035,86.4456 385.368,87.4456 387.5,87.5C 387.427,89.0269 388.094,90.0269 389.5,90.5C 389.738,92.4044 390.738,93.7377 392.5,94.5C 393.167,94.5 393.5,94.8333 393.5,95.5C 393.298,125.842 393.632,156.176 394.5,186.5C 393.234,187.09 391.901,187.59 390.5,188C 394.19,190.116 394.19,191.949 390.5,193.5C 391.325,194.386 392.325,194.719 393.5,194.5C 393.5,202.167 393.5,209.833 393.5,217.5C 392.167,217.5 390.833,217.5 389.5,217.5C 389.5,218.833 389.5,220.167 389.5,221.5C 388.5,221.5 387.5,221.5 386.5,221.5C 385.833,221.167 385.167,220.833 384.5,220.5C 381.898,214.695 379.898,208.695 378.5,202.5C 378.5,202.167 378.5,201.833 378.5,201.5C 378.218,195.979 377.551,190.646 376.5,185.5C 376.5,183.833 376.5,182.167 376.5,180.5C 376.5,170.167 376.5,159.833 376.5,149.5C 376.904,134.96 376.238,120.627 374.5,106.5C 374.5,105.5 374.5,104.5 374.5,103.5C 374.336,96.7978 374.669,90.1311 375.5,83.5C 376.5,83.5 377.5,83.5 378.5,83.5 Z"/></g>
<g><path style="opacity:0.761" fill="#95bab2" d="M 118.5,82.5 C 117.5,83.8333 116.5,85.1667 115.5,86.5C 114.833,86.5 114.167,86.5 113.5,86.5C 114.585,84.4131 116.251,83.0798 118.5,82.5 Z"/></g>
<g><path style="opacity:0.016" fill="#d8e0c5" d="M 383.5,84.5 C 385.23,85.0256 386.564,86.0256 387.5,87.5C 385.368,87.4456 384.035,86.4456 383.5,84.5 Z"/></g>
<g><path style="opacity:0.42" fill="#cadab7" d="M 358.5,81.5 C 356.629,85.8662 355.962,90.5329 356.5,95.5C 355.353,91.3537 355.186,87.0204 356,82.5C 356.671,81.7476 357.504,81.4142 358.5,81.5 Z"/></g>
<g><path style="opacity:0.439" fill="#c6d1b2" d="M 387.5,87.5 C 388.906,87.9731 389.573,88.9731 389.5,90.5C 388.094,90.0269 387.427,89.0269 387.5,87.5 Z"/></g>
<g><path style="opacity:0.243" fill="#aecbc6" d="M 113.5,86.5 C 111.833,88.8333 109.833,90.8333 107.5,92.5C 108.5,89.5 110.5,87.5 113.5,86.5 Z"/></g>
<g><path style="opacity:0.702" fill="#d5e7b1" d="M 389.5,90.5 C 391.262,91.2623 392.262,92.5956 392.5,94.5C 390.738,93.7377 389.738,92.4044 389.5,90.5 Z"/></g>
<g><path style="opacity:0.647" fill="#a8d0ac" d="M 257.5,95.5 C 257.5,95.8333 257.5,96.1667 257.5,96.5C 254.167,96.5 250.833,96.5 247.5,96.5C 243.833,96.5 240.167,96.5 236.5,96.5C 243.336,94.4182 250.336,94.0849 257.5,95.5 Z"/></g>
<g><path style="opacity:0.122" fill="#cadfce" d="M 235.5,96.5 C 234.432,97.4345 233.099,97.7678 231.5,97.5C 230.5,97.5 229.5,97.5 228.5,97.5C 230.556,96.7839 232.723,96.1172 235,95.5C 235.399,95.7284 235.565,96.0618 235.5,96.5 Z"/></g>
<g><path style="opacity:0.196" fill="#bdccbc" d="M 272.5,98.5 C 271.833,98.5 271.167,98.5 270.5,98.5C 266.206,97.6484 261.873,96.9817 257.5,96.5C 257.5,96.1667 257.5,95.8333 257.5,95.5C 257.435,95.0618 257.601,94.7284 258,94.5C 263.001,95.5737 267.834,96.9071 272.5,98.5 Z"/></g>
<g><path style="opacity:1" fill="#65c179" d="M 235.5,96.5 C 235.833,96.5 236.167,96.5 236.5,96.5C 240.167,96.5 243.833,96.5 247.5,96.5C 248.081,101.975 247.414,107.142 245.5,112C 249.688,112.176 253.688,112.676 257.5,113.5C 249.5,113.5 241.5,113.5 233.5,113.5C 232.432,112.566 231.099,112.232 229.5,112.5C 229.762,107.405 230.428,102.405 231.5,97.5C 233.099,97.7678 234.432,97.4345 235.5,96.5 Z"/></g>
<g><path style="opacity:0.345" fill="#afbc9e" d="M 356.5,95.5 C 359.728,96.9807 363.061,97.9807 366.5,98.5C 363.482,98.6646 360.482,98.498 357.5,98C 356.748,97.3292 356.414,96.4959 356.5,95.5 Z"/></g>
<g><path style="opacity:0.596" fill="#a6bfad" d="M 227.5,97.5 C 225.162,99.0395 222.495,99.7062 219.5,99.5C 221.905,98.2318 224.572,97.5651 227.5,97.5 Z"/></g>
<g><path style="opacity:1" fill="#6bc270" d="M 247.5,96.5 C 250.833,96.5 254.167,96.5 257.5,96.5C 261.873,96.9817 266.206,97.6484 270.5,98.5C 270.324,103.88 270.658,109.213 271.5,114.5C 274.517,114.556 274.85,114.89 272.5,115.5C 267.5,114.833 262.5,114.167 257.5,113.5C 253.688,112.676 249.688,112.176 245.5,112C 247.414,107.142 248.081,101.975 247.5,96.5 Z"/></g>
<g><path style="opacity:0.153" fill="#b2cac6" d="M 106.5,94.5 C 106.032,100.329 105.365,105.996 104.5,111.5C 104.334,106.821 104.501,102.155 105,97.5C 105.232,96.2625 105.732,95.2625 106.5,94.5 Z"/></g>
<g><path style="opacity:0.067" fill="#c2d1cd" d="M 143.5,86.5 C 144.158,87.7933 144.492,89.2933 144.5,91C 144.695,93.3523 144.028,95.3523 142.5,97C 138.954,98.1737 135.287,98.8404 131.5,99C 129.548,99.3661 127.882,100.199 126.5,101.5C 126.414,100.504 126.748,99.6708 127.5,99C 132.201,98.0721 136.868,97.0721 141.5,96C 143.34,93.1737 144.006,90.0071 143.5,86.5 Z"/></g>
<g><path style="opacity:0.796" fill="#b7dfc2" d="M 219.5,99.5 C 218.01,101.28 216.01,101.946 213.5,101.5C 215.302,100.542 217.302,99.8751 219.5,99.5 Z"/></g>
<g><path style="opacity:1" fill="#79c56d" d="M 270.5,98.5 C 271.167,98.5 271.833,98.5 272.5,98.5C 275.152,98.4095 277.485,99.0762 279.5,100.5C 282.95,102.208 286.617,103.541 290.5,104.5C 292.181,106.008 294.181,107.008 296.5,107.5C 298.153,107.66 299.486,108.326 300.5,109.5C 299.624,109.369 298.957,109.702 298.5,110.5C 299.665,111.584 300.998,112.417 302.5,113C 299.5,113.333 296.5,113.667 293.5,114C 293.043,114.414 292.709,114.914 292.5,115.5C 294.423,116.308 296.423,116.808 298.5,117C 297.572,117.388 296.905,118.055 296.5,119C 297.628,120.468 298.294,122.135 298.5,124C 298.316,125.376 297.649,126.209 296.5,126.5C 295.432,125.566 294.099,125.232 292.5,125.5C 291.341,123.75 289.674,122.75 287.5,122.5C 286.365,120.787 284.698,120.12 282.5,120.5C 280.597,120.204 278.93,119.537 277.5,118.5C 276.087,117.065 274.42,116.065 272.5,115.5C 274.85,114.89 274.517,114.556 271.5,114.5C 270.658,109.213 270.324,103.88 270.5,98.5 Z"/></g>
<g><path style="opacity:0.027" fill="#becabb" d="M 279.5,100.5 C 283.673,100.667 287.34,102 290.5,104.5C 286.617,103.541 282.95,102.208 279.5,100.5 Z"/></g>
<g><path style="opacity:0.89" fill="#8cc29f" d="M 213.5,101.5 C 211.824,103.834 209.491,104.834 206.5,104.5C 208.426,102.707 210.759,101.707 213.5,101.5 Z"/></g>
<g><path style="opacity:0.176" fill="#bcc7b9" d="M 290.5,104.5 C 293.089,104.461 295.089,105.461 296.5,107.5C 294.181,107.008 292.181,106.008 290.5,104.5 Z"/></g>
<g><path style="opacity:0.235" fill="#bed1cc" d="M 126.5,102.5 C 126.048,107.998 125.381,113.331 124.5,118.5C 124.334,113.821 124.501,109.155 125,104.5C 125.278,103.584 125.778,102.918 126.5,102.5 Z"/></g>
<g><path style="opacity:0.169" fill="#adc4b7" d="M 206.5,104.5 C 203.485,106.674 200.151,108.341 196.5,109.5C 199.247,106.793 202.58,105.127 206.5,104.5 Z"/></g>
<g><path style="opacity:0.941" fill="#a0d3b7" d="M 196.5,109.5 C 196.19,111.144 195.19,112.144 193.5,112.5C 191.833,113.167 190.167,113.833 188.5,114.5C 190.484,111.836 193.151,110.169 196.5,109.5 Z"/></g>
<g><path style="opacity:0.224" fill="#cbdcc4" d="M 300.5,109.5 C 303.198,109.845 305.198,111.178 306.5,113.5C 304.147,112.66 302.147,111.326 300.5,109.5 Z"/></g>
<g><path style="opacity:1" fill="#81c765" d="M 300.5,109.5 C 302.147,111.326 304.147,112.66 306.5,113.5C 307.492,113.328 308.158,113.662 308.5,114.5C 309.035,116.446 310.368,117.446 312.5,117.5C 313.5,119.167 314.833,120.5 316.5,121.5C 315.57,128.777 315.236,136.11 315.5,143.5C 314.5,142.833 313.5,142.167 312.5,141.5C 310.5,140.167 308.833,138.5 307.5,136.5C 307.167,135.5 306.5,134.833 305.5,134.5C 304.833,134.5 304.5,134.167 304.5,133.5C 303.738,131.738 302.404,130.738 300.5,130.5C 299.473,128.806 298.139,127.473 296.5,126.5C 297.649,126.209 298.316,125.376 298.5,124C 298.294,122.135 297.628,120.468 296.5,119C 296.905,118.055 297.572,117.388 298.5,117C 296.423,116.808 294.423,116.308 292.5,115.5C 292.709,114.914 293.043,114.414 293.5,114C 296.5,113.667 299.5,113.333 302.5,113C 300.998,112.417 299.665,111.584 298.5,110.5C 298.957,109.702 299.624,109.369 300.5,109.5 Z"/></g>
<g><path style="opacity:0.017" fill="#d3d5cf" d="M 369.5,99.5 C 371.775,100.111 373.441,101.445 374.5,103.5C 374.5,104.5 374.5,105.5 374.5,106.5C 374.5,110.833 374.5,115.167 374.5,119.5C 373.674,114.684 373.174,109.684 373,104.5C 372.003,102.677 370.836,101.01 369.5,99.5 Z"/></g>
<g><path style="opacity:1" fill="#49bb88" d="M 193.5,112.5 C 194.429,113.315 195.429,114.148 196.5,115C 194.285,115.17 192.285,115.837 190.5,117C 191.416,117.374 192.25,117.874 193,118.5C 193.176,122.688 193.676,126.688 194.5,130.5C 193.833,131.5 193.167,132.5 192.5,133.5C 191.167,135.5 189.5,137.167 187.5,138.5C 185.833,139.5 184.5,140.833 183.5,142.5C 181.413,143.585 180.08,145.251 179.5,147.5C 178.5,147.5 177.5,147.5 176.5,147.5C 176.795,140.412 176.462,133.412 175.5,126.5C 175.5,126.167 175.5,125.833 175.5,125.5C 176.833,124.833 177.833,123.833 178.5,122.5C 178.5,121.833 178.833,121.5 179.5,121.5C 181.749,120.92 183.415,119.587 184.5,117.5C 186.404,117.262 187.738,116.262 188.5,114.5C 190.167,113.833 191.833,113.167 193.5,112.5 Z"/></g>
<g><path style="opacity:0.486" fill="#b6ddc9" d="M 188.5,114.5 C 187.738,116.262 186.404,117.262 184.5,117.5C 185.262,115.738 186.596,114.738 188.5,114.5 Z"/></g>
<g><path style="opacity:1" fill="#54be81" d="M 227.5,97.5 C 227.833,97.5 228.167,97.5 228.5,97.5C 229.5,97.5 230.5,97.5 231.5,97.5C 230.428,102.405 229.762,107.405 229.5,112.5C 231.099,112.232 232.432,112.566 233.5,113.5C 228.313,114.562 223.313,116.229 218.5,118.5C 215.759,118.707 213.426,119.707 211.5,121.5C 209.819,123.008 207.819,124.008 205.5,124.5C 203.973,124.427 202.973,125.094 202.5,126.5C 201.167,126.5 199.833,126.5 198.5,126.5C 198.657,125.127 198.49,123.793 198,122.5C 196.921,125.063 196.421,127.729 196.5,130.5C 195.833,130.5 195.167,130.5 194.5,130.5C 193.676,126.688 193.176,122.688 193,118.5C 192.25,117.874 191.416,117.374 190.5,117C 192.285,115.837 194.285,115.17 196.5,115C 195.429,114.148 194.429,113.315 193.5,112.5C 195.19,112.144 196.19,111.144 196.5,109.5C 200.151,108.341 203.485,106.674 206.5,104.5C 209.491,104.834 211.824,103.834 213.5,101.5C 216.01,101.946 218.01,101.28 219.5,99.5C 222.495,99.7062 225.162,99.0395 227.5,97.5 Z"/></g>
<g><path style="opacity:0.059" fill="#c1d5c2" d="M 233.5,113.5 C 241.5,113.5 249.5,113.5 257.5,113.5C 262.5,114.167 267.5,114.833 272.5,115.5C 274.42,116.065 276.087,117.065 277.5,118.5C 257.839,113.224 238.172,113.224 218.5,118.5C 223.313,116.229 228.313,114.562 233.5,113.5 Z"/></g>
<g><path style="opacity:0.812" fill="#b7d3a9" d="M 308.5,114.5 C 310.23,115.026 311.564,116.026 312.5,117.5C 310.368,117.446 309.035,116.446 308.5,114.5 Z"/></g>
<g><path style="opacity:0.043" fill="#c8d4c1" d="M 312.5,117.5 C 314.749,118.08 316.415,119.413 317.5,121.5C 317.167,121.5 316.833,121.5 316.5,121.5C 314.833,120.5 313.5,119.167 312.5,117.5 Z"/></g>
<g><path style="opacity:0.176" fill="#b7cabd" d="M 218.5,118.5 C 216.574,120.293 214.241,121.293 211.5,121.5C 213.426,119.707 215.759,118.707 218.5,118.5 Z"/></g>
<g><path style="opacity:0.651" fill="#aadcc4" d="M 184.5,117.5 C 183.415,119.587 181.749,120.92 179.5,121.5C 180.585,119.413 182.251,118.08 184.5,117.5 Z"/></g>
<g><path style="opacity:0.835" fill="#c0e3b8" d="M 282.5,120.5 C 284.698,120.12 286.365,120.787 287.5,122.5C 285.597,122.204 283.93,121.537 282.5,120.5 Z"/></g>
<g><path style="opacity:1" fill="#1fb29f" d="M 113.5,86.5 C 114.167,86.5 114.833,86.5 115.5,86.5C 116.172,87.2674 117.005,87.9341 118,88.5C 118.5,95.8258 118.666,103.159 118.5,110.5C 116.473,110.338 114.473,110.505 112.5,111C 113.5,111.333 114.5,111.667 115.5,112C 114.167,113.333 114.167,114.667 115.5,116C 113.833,116.333 112.167,116.667 110.5,117C 112.004,118.788 113.671,119.288 115.5,118.5C 117.535,119.041 119.535,119.708 121.5,120.5C 120.271,121.281 118.938,121.781 117.5,122C 119.449,129.894 120.116,138.061 119.5,146.5C 118.325,146.281 117.325,146.614 116.5,147.5C 120.361,148.598 120.361,149.431 116.5,150C 118.112,150.72 119.612,150.554 121,149.5C 121.483,150.448 121.649,151.448 121.5,152.5C 118.001,152.259 117.668,153.092 120.5,155C 119.282,156.438 118.615,158.105 118.5,160C 119.577,167.141 119.744,174.307 119,181.5C 118.682,183.061 117.849,184.228 116.5,185C 118.134,185.494 119.801,185.66 121.5,185.5C 121.884,180.99 122.551,176.657 123.5,172.5C 123.88,181.632 123.214,190.632 121.5,199.5C 119.926,202.907 118.926,206.573 118.5,210.5C 117.069,211.78 116.402,213.447 116.5,215.5C 114.755,217.033 113.755,219.033 113.5,221.5C 108.964,221.728 104.964,220.395 101.5,217.5C 100.549,212.23 100.215,206.897 100.5,201.5C 100.5,201.167 100.5,200.833 100.5,200.5C 101.906,200.027 102.573,199.027 102.5,197.5C 102.5,197.167 102.5,196.833 102.5,196.5C 103.319,193.695 103.819,190.695 104,187.5C 104.5,167.169 104.667,146.836 104.5,126.5C 103.28,121.545 103.28,116.545 104.5,111.5C 105.365,105.996 106.032,100.329 106.5,94.5C 106.328,93.5084 106.662,92.8417 107.5,92.5C 109.833,90.8333 111.833,88.8333 113.5,86.5 Z"/></g>
<g><path style="opacity:1" fill="#83caa2" d="M 202.5,126.5 C 200.537,127.82 198.537,129.154 196.5,130.5C 196.421,127.729 196.921,125.063 198,122.5C 198.49,123.793 198.657,125.127 198.5,126.5C 199.833,126.5 201.167,126.5 202.5,126.5 Z"/></g>
<g><path style="opacity:0.016" fill="#bfcdb7" d="M 317.5,121.5 C 320.855,122.855 323.189,125.189 324.5,128.5C 321.785,126.452 319.452,124.118 317.5,121.5 Z"/></g>
<g><path style="opacity:0.118" fill="#bec6bc" d="M 287.5,122.5 C 289.674,122.75 291.341,123.75 292.5,125.5C 290.326,125.25 288.659,124.25 287.5,122.5 Z"/></g>
<g><path style="opacity:0.349" fill="#cceadc" d="M 178.5,122.5 C 177.833,123.833 176.833,124.833 175.5,125.5C 175.5,123.5 176.5,122.5 178.5,122.5 Z"/></g>
<g><path style="opacity:0.031" fill="#c2cac4" d="M 205.5,124.5 C 205.027,125.906 204.027,126.573 202.5,126.5C 202.973,125.094 203.973,124.427 205.5,124.5 Z"/></g>
<g><path style="opacity:0.459" fill="#aed2c2" d="M 175.5,125.5 C 175.5,125.833 175.5,126.167 175.5,126.5C 174.5,127.167 173.5,127.833 172.5,128.5C 172.5,126.5 173.5,125.5 175.5,125.5 Z"/></g>
<g><path style="opacity:0.153" fill="#b7c9b2" d="M 292.5,125.5 C 294.099,125.232 295.432,125.566 296.5,126.5C 298.139,127.473 299.473,128.806 300.5,130.5C 297.489,129.331 294.822,127.664 292.5,125.5 Z"/></g>
<g><path style="opacity:0.02" fill="#c3ccbd" d="M 324.5,128.5 C 326.833,128.833 328.167,130.167 328.5,132.5C 326.833,131.5 325.5,130.167 324.5,128.5 Z"/></g>
<g><path style="opacity:0.051" fill="#b8c3bc" d="M 194.5,130.5 C 195.167,130.5 195.833,130.5 196.5,130.5C 195.738,132.262 194.404,133.262 192.5,133.5C 193.167,132.5 193.833,131.5 194.5,130.5 Z"/></g>
<g><path style="opacity:0.392" fill="#c1d3bb" d="M 300.5,130.5 C 302.404,130.738 303.738,131.738 304.5,133.5C 302.596,133.262 301.262,132.262 300.5,130.5 Z"/></g>
<g><path style="opacity:0.478" fill="#b6e1cf" d="M 168.5,132.5 C 167.92,134.749 166.587,136.415 164.5,137.5C 165.08,135.251 166.413,133.585 168.5,132.5 Z"/></g>
<g><path style="opacity:0.012" fill="#bdc6b9" d="M 305.5,134.5 C 306.5,134.833 307.167,135.5 307.5,136.5C 306.167,136.5 305.5,135.833 305.5,134.5 Z"/></g>
<g><path style="opacity:0.396" fill="#cee2c0" d="M 328.5,132.5 C 330.587,133.585 331.92,135.251 332.5,137.5C 330.413,136.415 329.08,134.749 328.5,132.5 Z"/></g>
<g><path style="opacity:0.624" fill="#abd3c3" d="M 164.5,137.5 C 163.567,140.37 161.9,142.704 159.5,144.5C 160.433,141.63 162.1,139.296 164.5,137.5 Z"/></g>
<g><path style="opacity:0.763" fill="#aed172" d="M 374.5,106.5 C 376.238,120.627 376.904,134.96 376.5,149.5C 375.833,139.5 375.167,129.5 374.5,119.5C 374.5,115.167 374.5,110.833 374.5,106.5 Z"/></g>
<g><path style="opacity:0.024" fill="#bec6c2" d="M 187.5,138.5 C 187.167,140.833 185.833,142.167 183.5,142.5C 184.5,140.833 185.833,139.5 187.5,138.5 Z"/></g>
<g><path style="opacity:0.2" fill="#bcc9af" d="M 332.5,137.5 C 334.587,138.585 335.92,140.251 336.5,142.5C 334.413,141.415 333.08,139.749 332.5,137.5 Z"/></g>
<g><path style="opacity:0.012" fill="#bbc7b4" d="M 312.5,141.5 C 313.5,142.167 314.5,142.833 315.5,143.5C 316.925,144.922 317.925,146.589 318.5,148.5C 315.757,146.761 313.757,144.427 312.5,141.5 Z"/></g>
<g><path style="opacity:0.082" fill="#bacdc3" d="M 183.5,142.5 C 182.92,144.749 181.587,146.415 179.5,147.5C 180.08,145.251 181.413,143.585 183.5,142.5 Z"/></g>
<g><path style="opacity:0.333" fill="#d6ebc5" d="M 337.5,144.5 C 338.906,144.973 339.573,145.973 339.5,147.5C 338.094,147.027 337.427,146.027 337.5,144.5 Z"/></g>
<g><path style="opacity:0.941" fill="#9cd7c0" d="M 159.5,144.5 C 159.408,146.848 158.408,148.514 156.5,149.5C 156.75,147.326 157.75,145.659 159.5,144.5 Z"/></g>
<g><path style="opacity:0.02" fill="#d8e2dd" d="M 178.5,148.5 C 178.573,150.027 177.906,151.027 176.5,151.5C 176.427,149.973 177.094,148.973 178.5,148.5 Z"/></g>
<g><path style="opacity:0.176" fill="#d8e6cb" d="M 339.5,147.5 C 341.25,148.659 342.25,150.326 342.5,152.5C 341.5,152.167 340.833,151.5 340.5,150.5C 339.89,149.609 339.557,148.609 339.5,147.5 Z"/></g>
<g><path style="opacity:1" fill="#43ba92" d="M 175.5,126.5 C 176.462,133.412 176.795,140.412 176.5,147.5C 177.5,147.5 178.5,147.5 179.5,147.5C 179.5,148.167 179.167,148.5 178.5,148.5C 177.094,148.973 176.427,149.973 176.5,151.5C 175.488,152.872 174.488,154.205 173.5,155.5C 172.094,155.973 171.427,156.973 171.5,158.5C 170.094,158.973 169.427,159.973 169.5,161.5C 169.34,163.153 168.674,164.486 167.5,165.5C 166.069,166.78 165.402,168.447 165.5,170.5C 164.883,170.611 164.383,170.944 164,171.5C 162.525,176.063 161.692,180.73 161.5,185.5C 160.637,196.147 160.637,206.814 161.5,217.5C 161.42,220.781 162.087,223.781 163.5,226.5C 163.259,228.898 163.926,230.898 165.5,232.5C 169.225,239.621 172.725,246.954 176,254.5C 177.041,258.41 175.875,261.41 172.5,263.5C 169.167,263.5 165.833,263.5 162.5,263.5C 158.246,259.338 155.246,254.338 153.5,248.5C 153.34,246.847 152.674,245.514 151.5,244.5C 150.596,243.791 150.263,242.791 150.5,241.5C 150.379,238.895 149.379,236.895 147.5,235.5C 146.699,233.958 146.366,232.292 146.5,230.5C 143.286,213.972 142.62,197.305 144.5,180.5C 146.04,178.162 146.706,175.495 146.5,172.5C 148.472,169.916 149.472,166.916 149.5,163.5C 151.834,161.824 152.834,159.491 152.5,156.5C 152.66,154.847 153.326,153.514 154.5,152.5C 155.906,152.027 156.573,151.027 156.5,149.5C 158.408,148.514 159.408,146.848 159.5,144.5C 161.9,142.704 163.567,140.37 164.5,137.5C 166.587,136.415 167.92,134.749 168.5,132.5C 169.402,130.659 170.736,129.326 172.5,128.5C 173.5,127.833 174.5,127.167 175.5,126.5 Z"/></g>
<g><path style="opacity:0.455" fill="#b8ccab" d="M 318.5,148.5 C 320.446,149.035 321.446,150.368 321.5,152.5C 320.026,151.564 319.026,150.23 318.5,148.5 Z"/></g>
<g><path style="opacity:1" fill="#8bc85e" d="M 316.5,121.5 C 316.833,121.5 317.167,121.5 317.5,121.5C 319.452,124.118 321.785,126.452 324.5,128.5C 325.5,130.167 326.833,131.5 328.5,132.5C 329.08,134.749 330.413,136.415 332.5,137.5C 333.08,139.749 334.413,141.415 336.5,142.5C 337.338,142.842 337.672,143.508 337.5,144.5C 337.427,146.027 338.094,147.027 339.5,147.5C 339.557,148.609 339.89,149.609 340.5,150.5C 339.5,150.5 338.5,150.5 337.5,150.5C 337.881,152.942 337.214,153.609 335.5,152.5C 334.289,153.274 334.289,154.107 335.5,155C 332.833,155.667 332.833,156.333 335.5,157C 334.833,157.333 334.167,157.667 333.5,158C 334.808,162.833 334.808,167.666 333.5,172.5C 332.833,171.5 332.167,170.5 331.5,169.5C 329.659,167.151 328.326,164.485 327.5,161.5C 327.34,159.847 326.674,158.514 325.5,157.5C 325.167,156.5 324.5,155.833 323.5,155.5C 323.573,153.973 322.906,152.973 321.5,152.5C 321.446,150.368 320.446,149.035 318.5,148.5C 317.925,146.589 316.925,144.922 315.5,143.5C 315.236,136.11 315.57,128.777 316.5,121.5 Z"/></g>
<g><path style="opacity:0.169" fill="#abc0bb" d="M 124.5,119.5 C 125.152,120.449 125.486,121.615 125.5,123C 124.884,139.656 124.217,156.156 123.5,172.5C 123.222,154.806 123.555,137.139 124.5,119.5 Z"/></g>
<g><path style="opacity:0.247" fill="#adc0b9" d="M 156.5,149.5 C 156.573,151.027 155.906,152.027 154.5,152.5C 154.427,150.973 155.094,149.973 156.5,149.5 Z"/></g>
<g><path style="opacity:0.008" fill="#c0c5bf" d="M 321.5,152.5 C 322.906,152.973 323.573,153.973 323.5,155.5C 322.094,155.027 321.427,154.027 321.5,152.5 Z"/></g>
<g><path style="opacity:0.475" fill="#c8d6b1" d="M 374.5,119.5 C 375.167,129.5 375.833,139.5 376.5,149.5C 376.5,159.833 376.5,170.167 376.5,180.5C 375.151,160.348 374.484,140.014 374.5,119.5 Z"/></g>
<g><path style="opacity:0.035" fill="#c7d4ce" d="M 173.5,155.5 C 173.573,157.027 172.906,158.027 171.5,158.5C 171.427,156.973 172.094,155.973 173.5,155.5 Z"/></g>
<g><path style="opacity:0.012" fill="#c6c9c3" d="M 323.5,155.5 C 324.5,155.833 325.167,156.5 325.5,157.5C 324.167,157.5 323.5,156.833 323.5,155.5 Z"/></g>
<g><path style="opacity:0.208" fill="#bdcab3" d="M 325.5,157.5 C 326.674,158.514 327.34,159.847 327.5,161.5C 325.896,160.713 325.229,159.38 325.5,157.5 Z"/></g>
<g><path style="opacity:0.867" fill="#93c5b3" d="M 152.5,156.5 C 152.834,159.491 151.834,161.824 149.5,163.5C 149.935,160.843 150.935,158.509 152.5,156.5 Z"/></g>
<g><path style="opacity:0.898" fill="#b1c998" d="M 344.5,156.5 C 345.931,157.78 346.598,159.447 346.5,161.5C 344.787,160.365 344.12,158.698 344.5,156.5 Z"/></g>
<g><path style="opacity:0.169" fill="#d0ece0" d="M 171.5,158.5 C 171.573,160.027 170.906,161.027 169.5,161.5C 169.427,159.973 170.094,158.973 171.5,158.5 Z"/></g>
<g><path style="opacity:0.831" fill="#b5ce9b" d="M 346.5,161.5 C 347.931,162.78 348.598,164.447 348.5,166.5C 346.787,165.365 346.12,163.698 346.5,161.5 Z"/></g>
<g><path style="opacity:0.627" fill="#add9ca" d="M 149.5,163.5 C 149.472,166.916 148.472,169.916 146.5,172.5C 146.928,169.215 147.928,166.215 149.5,163.5 Z"/></g>
<g><path style="opacity:0.15" fill="#c5ceb1" d="M 393.5,95.5 C 394.412,129.01 395.412,162.677 396.5,196.5C 395.833,193.167 395.167,189.833 394.5,186.5C 393.632,156.176 393.298,125.842 393.5,95.5 Z"/></g>
<g><path style="opacity:0.2" fill="#bbdccf" d="M 167.5,165.5 C 167.598,167.553 166.931,169.22 165.5,170.5C 165.402,168.447 166.069,166.78 167.5,165.5 Z"/></g>
<g><path style="opacity:0.682" fill="#bcd0a8" d="M 348.5,166.5 C 350.258,169.854 351.258,173.521 351.5,177.5C 349.742,174.146 348.742,170.479 348.5,166.5 Z"/></g>
<g><path style="opacity:0.216" fill="#cad4c1" d="M 331.5,169.5 C 332.167,170.5 332.833,171.5 333.5,172.5C 335.296,178.02 336.296,183.687 336.5,189.5C 336.5,194.167 336.5,198.833 336.5,203.5C 335.939,192.118 334.272,180.785 331.5,169.5 Z"/></g>
<g><path style="opacity:0.208" fill="#c2d3c2" d="M 291.5,178.5 C 279.157,175.573 266.824,174.907 254.5,176.5C 248.383,177.862 242.383,179.529 236.5,181.5C 245.994,176.009 256.328,173.343 267.5,173.5C 272.814,174.178 278.148,174.678 283.5,175C 286.666,175.322 289.333,176.489 291.5,178.5 Z"/></g>
<g><path style="opacity:0.537" fill="#abccc7" d="M 104.5,126.5 C 104.667,146.836 104.5,167.169 104,187.5C 103.819,190.695 103.319,193.695 102.5,196.5C 102.819,173.158 103.486,149.824 104.5,126.5 Z"/></g>
<g><path style="opacity:0.361" fill="#9abbb0" d="M 146.5,172.5 C 146.706,175.495 146.04,178.162 144.5,180.5C 144.294,177.505 144.96,174.838 146.5,172.5 Z"/></g>
<g><path style="opacity:0.137" fill="#adcdc0" d="M 165.5,170.5 C 164.533,175.712 163.2,180.712 161.5,185.5C 161.692,180.73 162.525,176.063 164,171.5C 164.383,170.944 164.883,170.611 165.5,170.5 Z"/></g>
<g><path style="opacity:0.051" fill="#c7cdc5" d="M 292.5,179.5 C 294.741,180.3 295.741,181.966 295.5,184.5C 294.263,183.035 293.263,181.368 292.5,179.5 Z"/></g>
<g><path style="opacity:0.404" fill="#b7c9ba" d="M 236.5,181.5 C 235.833,182.167 235.167,182.833 234.5,183.5C 233.833,183.5 233.167,183.5 232.5,183.5C 233.287,181.896 234.62,181.229 236.5,181.5 Z"/></g>
<g><path style="opacity:1" fill="#5ec07e" d="M 232.5,183.5 C 233.167,183.5 233.833,183.5 234.5,183.5C 236.292,184.309 238.292,184.809 240.5,185C 237.728,185.526 235.062,186.359 232.5,187.5C 234.624,188.149 236.624,188.983 238.5,190C 235.764,190.422 233.098,190.422 230.5,190C 231.167,190.667 231.833,191.333 232.5,192C 231.446,193.388 231.28,194.888 232,196.5C 232.561,195.978 233.228,195.645 234,195.5C 236.448,195.699 238.281,196.699 239.5,198.5C 237.77,199.026 236.436,200.026 235.5,201.5C 235.5,202.167 235.167,202.5 234.5,202.5C 232.973,202.427 231.973,203.094 231.5,204.5C 231.027,205.906 230.027,206.573 228.5,206.5C 226.833,207.5 225.5,208.833 224.5,210.5C 223.833,211.833 222.833,212.833 221.5,213.5C 220.094,213.973 219.427,214.973 219.5,216.5C 219.5,217.167 219.167,217.5 218.5,217.5C 217.5,217.833 216.833,218.5 216.5,219.5C 215.167,219.5 213.833,219.5 212.5,219.5C 212.5,212.5 212.5,205.5 212.5,198.5C 215.659,198.43 217.326,196.763 217.5,193.5C 219.54,191.823 221.54,190.156 223.5,188.5C 226.008,186.076 229.008,184.41 232.5,183.5 Z"/></g>
<g><path style="opacity:1" fill="#75c46a" d="M 291.5,178.5 C 292.167,178.5 292.5,178.833 292.5,179.5C 293.263,181.368 294.263,183.035 295.5,184.5C 295.5,185.167 295.5,185.833 295.5,186.5C 295.5,197.167 295.5,207.833 295.5,218.5C 292.685,220.63 289.351,221.63 285.5,221.5C 282.645,221.497 279.978,221.164 277.5,220.5C 278.91,216.296 279.577,211.963 279.5,207.5C 280.466,202.33 280.466,196.997 279.5,191.5C 273.167,191.5 266.833,191.5 260.5,191.5C 260.36,189.876 261.027,188.71 262.5,188C 260.833,187.667 259.167,187.333 257.5,187C 262.5,186.667 267.5,186.333 272.5,186C 271.213,184.214 269.713,184.047 268,185.5C 263.205,184.746 258.372,184.246 253.5,184C 254.672,183.581 255.672,182.915 256.5,182C 255.756,180.185 255.089,178.352 254.5,176.5C 266.824,174.907 279.157,175.573 291.5,178.5 Z"/></g>
<g><path style="opacity:1" fill="#66c175" d="M 254.5,176.5 C 255.089,178.352 255.756,180.185 256.5,182C 255.672,182.915 254.672,183.581 253.5,184C 258.372,184.246 263.205,184.746 268,185.5C 269.713,184.047 271.213,184.214 272.5,186C 267.5,186.333 262.5,186.667 257.5,187C 259.167,187.333 260.833,187.667 262.5,188C 261.027,188.71 260.36,189.876 260.5,191.5C 259.29,191.932 258.29,192.599 257.5,193.5C 254.505,193.294 251.838,193.96 249.5,195.5C 245.908,195.698 242.574,196.698 239.5,198.5C 238.281,196.699 236.448,195.699 234,195.5C 233.228,195.645 232.561,195.978 232,196.5C 231.28,194.888 231.446,193.388 232.5,192C 231.833,191.333 231.167,190.667 230.5,190C 233.098,190.422 235.764,190.422 238.5,190C 236.624,188.983 234.624,188.149 232.5,187.5C 235.062,186.359 237.728,185.526 240.5,185C 238.292,184.809 236.292,184.309 234.5,183.5C 235.167,182.833 235.833,182.167 236.5,181.5C 242.383,179.529 248.383,177.862 254.5,176.5 Z"/></g>
<g><path style="opacity:1" fill="#8eca58" d="M 340.5,150.5 C 340.833,151.5 341.5,152.167 342.5,152.5C 343.674,153.514 344.34,154.847 344.5,156.5C 344.12,158.698 344.787,160.365 346.5,161.5C 346.12,163.698 346.787,165.365 348.5,166.5C 348.742,170.479 349.742,174.146 351.5,177.5C 352.451,178.919 352.784,180.585 352.5,182.5C 352.467,186.869 352.8,191.202 353.5,195.5C 353.861,204.395 353.194,213.061 351.5,221.5C 346.167,221.5 340.833,221.5 335.5,221.5C 337.491,210.735 337.825,200.069 336.5,189.5C 336.296,183.687 335.296,178.02 333.5,172.5C 334.808,167.666 334.808,162.833 333.5,158C 334.167,157.667 334.833,157.333 335.5,157C 332.833,156.333 332.833,155.667 335.5,155C 334.289,154.107 334.289,153.274 335.5,152.5C 337.214,153.609 337.881,152.942 337.5,150.5C 338.5,150.5 339.5,150.5 340.5,150.5 Z"/></g>
<g><path style="opacity:0.356" fill="#c0d6bd" d="M 260.5,191.5 C 266.833,191.5 273.167,191.5 279.5,191.5C 280.466,196.997 280.466,202.33 279.5,207.5C 279.28,202.566 278.613,197.733 277.5,193C 270.869,193.274 264.203,193.441 257.5,193.5C 258.29,192.599 259.29,191.932 260.5,191.5 Z"/></g>
<g><path style="opacity:0.576" fill="#bcd9c6" d="M 223.5,188.5 C 221.54,190.156 219.54,191.823 217.5,193.5C 217.167,193.5 216.833,193.5 216.5,193.5C 217.992,190.677 220.326,189.01 223.5,188.5 Z"/></g>
<g><path style="opacity:0.133" fill="#dae7cb" d="M 352.5,182.5 C 354.054,186.567 354.72,190.9 354.5,195.5C 354.167,195.5 353.833,195.5 353.5,195.5C 352.8,191.202 352.467,186.869 352.5,182.5 Z"/></g>
<g><path style="opacity:0.165" fill="#c9d5b6" d="M 376.5,185.5 C 377.551,190.646 378.218,195.979 378.5,201.5C 376.822,196.432 376.156,191.098 376.5,185.5 Z"/></g>
<g><path style="opacity:0.043" fill="#cdd1cd" d="M 257.5,193.5 C 255.095,194.768 252.428,195.435 249.5,195.5C 251.838,193.96 254.505,193.294 257.5,193.5 Z"/></g>
<g><path style="opacity:0.29" fill="#bfd9c3" d="M 249.5,195.5 C 244.992,197.676 240.325,199.676 235.5,201.5C 236.436,200.026 237.77,199.026 239.5,198.5C 242.574,196.698 245.908,195.698 249.5,195.5 Z"/></g>
<g><path style="opacity:0.231" fill="#c6e4df" d="M 102.5,197.5 C 102.573,199.027 101.906,200.027 100.5,200.5C 100.427,198.973 101.094,197.973 102.5,197.5 Z"/></g>
<g><path style="opacity:0.545" fill="#b3d1be" d="M 210.5,199.5 C 209.581,202.089 207.914,204.089 205.5,205.5C 206.419,202.911 208.086,200.911 210.5,199.5 Z"/></g>
<g><path style="opacity:0.882" fill="#bacd8e" d="M 397.5,199.5 C 398.674,200.514 399.34,201.847 399.5,203.5C 397.824,202.817 397.157,201.483 397.5,199.5 Z"/></g>
<g><path style="opacity:0.012" fill="#e8f1e9" d="M 234.5,202.5 C 234.027,203.906 233.027,204.573 231.5,204.5C 231.973,203.094 232.973,202.427 234.5,202.5 Z"/></g>
<g><path style="opacity:0.469" fill="#a6d0c3" d="M 144.5,180.5 C 142.62,197.305 143.286,213.972 146.5,230.5C 144.736,226.795 143.569,222.795 143,218.5C 142.655,212.153 142.155,205.82 141.5,199.5C 141.915,192.932 142.915,186.598 144.5,180.5 Z"/></g>
<g><path style="opacity:0.314" fill="#d1dac1" d="M 378.5,202.5 C 379.898,208.695 381.898,214.695 384.5,220.5C 382.864,219.251 381.697,217.584 381,215.5C 379.832,211.494 378.665,207.494 377.5,203.5C 377.624,202.893 377.957,202.56 378.5,202.5 Z"/></g>
<g><path style="opacity:0.078" fill="#b9c7c4" d="M 121.5,199.5 C 121.874,203.647 120.874,207.314 118.5,210.5C 118.926,206.573 119.926,202.907 121.5,199.5 Z"/></g>
<g><path style="opacity:0.345" fill="#c1e0cd" d="M 205.5,205.5 C 205.573,207.027 204.906,208.027 203.5,208.5C 203.427,206.973 204.094,205.973 205.5,205.5 Z"/></g>
<g><path style="opacity:0.043" fill="#cbd4cd" d="M 228.5,206.5 C 228.167,208.833 226.833,210.167 224.5,210.5C 225.5,208.833 226.833,207.5 228.5,206.5 Z"/></g>
<g><path style="opacity:0.439" fill="#b9dad6" d="M 96.5,208.5 C 96.573,210.027 95.9063,211.027 94.5,211.5C 94.427,209.973 95.0937,208.973 96.5,208.5 Z"/></g>
<g><path style="opacity:0.329" fill="#c6cfb1" d="M 401.5,207.5 C 403.262,208.262 404.262,209.596 404.5,211.5C 402.738,210.738 401.738,209.404 401.5,207.5 Z"/></g>
<g><path style="opacity:0.165" fill="#b5cbbd" d="M 203.5,208.5 C 203.262,210.404 202.262,211.738 200.5,212.5C 200.738,210.596 201.738,209.262 203.5,208.5 Z"/></g>
<g><path style="opacity:0.541" fill="#d9e4bf" d="M 404.5,211.5 C 407.279,213.861 409.946,216.194 412.5,218.5C 408.554,217.541 405.887,215.208 404.5,211.5 Z"/></g>
<g><path style="opacity:0.396" fill="#a0c9c5" d="M 94.5,211.5 C 93.4222,214.908 91.0889,216.908 87.5,217.5C 89.8082,215.529 92.1415,213.529 94.5,211.5 Z"/></g>
<g><path style="opacity:0.247" fill="#cce5e0" d="M 118.5,210.5 C 118.598,212.553 117.931,214.22 116.5,215.5C 116.402,213.447 117.069,211.78 118.5,210.5 Z"/></g>
<g><path style="opacity:0.286" fill="#c0d4b0" d="M 336.5,189.5 C 337.825,200.069 337.491,210.735 335.5,221.5C 335.5,222.167 335.167,222.5 334.5,222.5C 334.81,216.082 335.477,209.749 336.5,203.5C 336.5,198.833 336.5,194.167 336.5,189.5 Z"/></g>
<g><path style="opacity:0.016" fill="#dfeee3" d="M 221.5,213.5 C 221.573,215.027 220.906,216.027 219.5,216.5C 219.427,214.973 220.094,213.973 221.5,213.5 Z"/></g>
<g><path style="opacity:0.114" fill="#c2d1bd" d="M 295.5,186.5 C 296.329,192.999 296.995,199.666 297.5,206.5C 297.148,210.694 296.482,214.694 295.5,218.5C 295.5,207.833 295.5,197.167 295.5,186.5 Z"/></g>
<g><path style="opacity:0.392" fill="#c5cec3" d="M 279.5,207.5 C 279.577,211.963 278.91,216.296 277.5,220.5C 277.167,220.5 276.833,220.5 276.5,220.5C 277.34,216.015 278.34,211.681 279.5,207.5 Z"/></g>
<g><path style="opacity:0.008" fill="#dfeee4" d="M 218.5,217.5 C 218.573,219.027 217.906,220.027 216.5,220.5C 216.5,220.167 216.5,219.833 216.5,219.5C 216.833,218.5 217.5,217.833 218.5,217.5 Z"/></g>
<g><path style="opacity:0.004" fill="#abcac4" d="M 116.5,215.5 C 116.245,217.967 115.245,219.967 113.5,221.5C 113.755,219.033 114.755,217.033 116.5,215.5 Z"/></g>
<g><path style="opacity:1" fill="#25b2a3" d="M 100.5,201.5 C 100.215,206.897 100.549,212.23 101.5,217.5C 104.964,220.395 108.964,221.728 113.5,221.5C 113.573,223.027 112.906,224.027 111.5,224.5C 110.094,224.973 109.427,225.973 109.5,227.5C 109.389,228.117 109.056,228.617 108.5,229C 111.226,232.299 113.559,235.799 115.5,239.5C 115.5,240.833 115.5,242.167 115.5,243.5C 114.698,242.048 114.198,240.382 114,238.5C 113.311,237.643 112.478,236.977 111.5,236.5C 110.947,242.761 109.947,248.927 108.5,255C 108.585,256.107 108.919,257.107 109.5,258C 107.125,260.407 106.125,259.907 106.5,256.5C 105.167,256.5 103.833,256.5 102.5,256.5C 102.5,258.167 102.5,259.833 102.5,261.5C 100.119,256.408 97.4522,251.408 94.5,246.5C 93.8645,244.205 92.5311,242.539 90.5,241.5C 88.7162,241.107 87.0495,240.441 85.5,239.5C 85.3338,233.158 85.5005,226.825 86,220.5C 86.5133,219.473 87.0133,218.473 87.5,217.5C 91.0889,216.908 93.4222,214.908 94.5,211.5C 95.9063,211.027 96.573,210.027 96.5,208.5C 97.0787,205.669 98.412,203.336 100.5,201.5 Z"/></g>
<g><path style="opacity:1" fill="#76c56a" d="M 293.5,226.5 C 290.93,231.311 288.597,236.311 286.5,241.5C 285.094,241.973 284.427,242.973 284.5,244.5C 284.167,245.5 283.5,246.167 282.5,246.5C 280.5,248.167 278.5,249.833 276.5,251.5C 275.183,245.654 275.183,239.654 276.5,233.5C 278.931,232.194 278.597,231.194 275.5,230.5C 276.167,230.167 276.833,229.833 277.5,229.5C 277.291,228.914 276.957,228.414 276.5,228C 278.804,227.105 281.138,226.271 283.5,225.5C 281.376,224.851 279.376,224.017 277.5,223C 282.823,222.501 288.156,222.334 293.5,222.5C 293.5,223.833 293.5,225.167 293.5,226.5 Z"/></g>
<g><path style="opacity:0.525" fill="#c5d4b3" d="M 353.5,195.5 C 353.833,195.5 354.167,195.5 354.5,195.5C 355.362,206.75 354.362,217.75 351.5,228.5C 351.5,226.167 351.5,223.833 351.5,221.5C 353.194,213.061 353.861,204.395 353.5,195.5 Z"/></g>
<g><path style="opacity:1" fill="#a8cd4e" d="M 394.5,186.5 C 395.167,189.833 395.833,193.167 396.5,196.5C 397.404,197.209 397.737,198.209 397.5,199.5C 397.157,201.483 397.824,202.817 399.5,203.5C 400.674,204.514 401.34,205.847 401.5,207.5C 401.738,209.404 402.738,210.738 404.5,211.5C 405.887,215.208 408.554,217.541 412.5,218.5C 413.222,218.918 413.722,219.584 414,220.5C 414.667,226.167 414.667,231.833 414,237.5C 413.722,238.416 413.222,239.082 412.5,239.5C 410.62,239.229 409.287,239.896 408.5,241.5C 407.833,242.833 406.833,243.833 405.5,244.5C 404.094,244.973 403.427,245.973 403.5,247.5C 402.094,247.973 401.427,248.973 401.5,250.5C 401.068,251.71 400.401,252.71 399.5,253.5C 397.469,256.422 396.302,259.755 396,263.5C 395.345,272.162 394.845,280.828 394.5,289.5C 393.508,282.352 393.175,275.019 393.5,267.5C 392.167,267.5 390.833,267.5 389.5,267.5C 389.5,266.167 389.5,264.833 389.5,263.5C 389.53,262.503 389.03,261.836 388,261.5C 386.189,262.078 384.355,262.578 382.5,263C 383.016,265.033 382.35,265.033 380.5,263C 383.65,261.929 386.483,259.762 389,256.5C 389.667,257.167 390.333,257.833 391,258.5C 391.333,256.5 391.667,254.5 392,252.5C 392.333,252.833 392.667,253.167 393,253.5C 393.185,246.253 393.685,239.087 394.5,232C 392.219,230.518 392.219,228.851 394.5,227C 392.714,226.215 391.214,225.049 390,223.5C 389.617,224.056 389.117,224.389 388.5,224.5C 387.094,224.027 386.427,223.027 386.5,221.5C 387.5,221.5 388.5,221.5 389.5,221.5C 389.5,220.167 389.5,218.833 389.5,217.5C 390.833,217.5 392.167,217.5 393.5,217.5C 393.5,209.833 393.5,202.167 393.5,194.5C 392.325,194.719 391.325,194.386 390.5,193.5C 394.19,191.949 394.19,190.116 390.5,188C 391.901,187.59 393.234,187.09 394.5,186.5 Z"/></g>
<g><path style="opacity:0.278" fill="#aac5ba" d="M 161.5,217.5 C 162.913,220.219 163.58,223.219 163.5,226.5C 162.087,223.781 161.42,220.781 161.5,217.5 Z"/></g>
<g><path style="opacity:0.129" fill="#d1d9c3" d="M 384.5,220.5 C 385.167,220.833 385.833,221.167 386.5,221.5C 386.427,223.027 387.094,224.027 388.5,224.5C 388.5,225.167 388.5,225.833 388.5,226.5C 386.178,225.198 384.845,223.198 384.5,220.5 Z"/></g>
<g><path style="opacity:0.024" fill="#b5c3c0" d="M 111.5,224.5 C 111.573,226.027 110.906,227.027 109.5,227.5C 109.427,225.973 110.094,224.973 111.5,224.5 Z"/></g>
<g><path style="opacity:0.741" fill="#c6dab5" d="M 334.5,222.5 C 334.946,225.01 334.28,227.01 332.5,228.5C 332.595,226.214 333.262,224.214 334.5,222.5 Z"/></g>
<g><path style="opacity:0.027" fill="#ccd8cf" d="M 213.5,225.5 C 213.34,227.153 212.674,228.486 211.5,229.5C 211.229,227.62 211.896,226.287 213.5,225.5 Z"/></g>
<g><path style="opacity:0.875" fill="#abc7a6" d="M 274.5,225.5 C 274.843,227.483 274.176,228.817 272.5,229.5C 272.66,227.847 273.326,226.514 274.5,225.5 Z"/></g>
<g><path style="opacity:0.145" fill="#e9f2d8" d="M 388.5,226.5 C 391.167,228.5 391.167,230.5 388.5,232.5C 389.833,230.5 389.833,228.5 388.5,226.5 Z"/></g>
<g><path style="opacity:0.602" fill="#7eafab" d="M 87.5,217.5 C 87.0133,218.473 86.5133,219.473 86,220.5C 85.5005,226.825 85.3338,233.158 85.5,239.5C 84.6204,237.863 83.9537,236.03 83.5,234C 84.788,230.508 84.788,227.008 83.5,223.5C 83.8988,221.803 84.3988,220.137 85,218.5C 85.6708,217.748 86.5041,217.414 87.5,217.5 Z"/></g>
<g><path style="opacity:0.553" fill="#b9e3d2" d="M 163.5,226.5 C 164.738,228.214 165.405,230.214 165.5,232.5C 163.926,230.898 163.259,228.898 163.5,226.5 Z"/></g>
<g><path style="opacity:0.565" fill="#b9cba7" d="M 351.5,228.5 C 351.405,230.786 350.738,232.786 349.5,234.5C 349.054,231.99 349.72,229.99 351.5,228.5 Z"/></g>
<g><path style="opacity:1" fill="#8dc95e" d="M 335.5,221.5 C 340.833,221.5 346.167,221.5 351.5,221.5C 351.5,223.833 351.5,226.167 351.5,228.5C 349.72,229.99 349.054,231.99 349.5,234.5C 348.903,239.017 347.237,243.017 344.5,246.5C 342.659,248.849 341.326,251.515 340.5,254.5C 338.412,256.336 337.079,258.669 336.5,261.5C 335.5,261.833 334.833,262.5 334.5,263.5C 334.672,264.492 334.338,265.158 333.5,265.5C 331.738,266.262 330.738,267.596 330.5,269.5C 329.5,271.167 328.167,272.5 326.5,273.5C 324.5,274.833 322.833,276.5 321.5,278.5C 320.5,278.833 319.833,279.5 319.5,280.5C 319.5,281.167 319.167,281.5 318.5,281.5C 317.833,281.833 317.167,282.167 316.5,282.5C 315.433,277.218 315.267,271.885 316,266.5C 317.171,265.107 318.671,264.273 320.5,264C 319.638,261.266 318.805,261.099 318,263.5C 317.623,262.058 316.79,261.058 315.5,260.5C 315.5,259.833 315.5,259.167 315.5,258.5C 317.531,257.461 318.864,255.795 319.5,253.5C 321.262,252.738 322.262,251.404 322.5,249.5C 324.408,248.514 325.408,246.848 325.5,244.5C 327.975,243.313 328.975,241.313 328.5,238.5C 330.969,237.393 331.969,235.393 331.5,232.5C 331.433,231.041 331.766,229.708 332.5,228.5C 334.28,227.01 334.946,225.01 334.5,222.5C 335.167,222.5 335.5,222.167 335.5,221.5 Z"/></g>
<g><path style="opacity:0.145" fill="#bcd4c7" d="M 193.5,227.5 C 193.585,230.649 192.585,233.316 190.5,235.5C 190.733,232.458 191.733,229.792 193.5,227.5 Z"/></g>
<g><path style="opacity:1" fill="#74c472" d="M 295.5,218.5 C 295.435,221.428 294.768,224.095 293.5,226.5C 293.5,225.167 293.5,223.833 293.5,222.5C 288.156,222.334 282.823,222.501 277.5,223C 279.376,224.017 281.376,224.851 283.5,225.5C 281.138,226.271 278.804,227.105 276.5,228C 276.957,228.414 277.291,228.914 277.5,229.5C 276.833,229.833 276.167,230.167 275.5,230.5C 278.597,231.194 278.931,232.194 276.5,233.5C 275.183,239.654 275.183,245.654 276.5,251.5C 276.5,251.833 276.5,252.167 276.5,252.5C 276.167,253.5 275.5,254.167 274.5,254.5C 272.973,254.427 271.973,255.094 271.5,256.5C 271.167,257.5 270.5,258.167 269.5,258.5C 267.973,258.427 266.973,259.094 266.5,260.5C 266.5,261.167 266.167,261.5 265.5,261.5C 263.973,261.427 262.973,262.094 262.5,263.5C 261.391,263.557 260.391,263.89 259.5,264.5C 258.737,263.732 257.737,263.232 256.5,263C 256.833,262.667 257.167,262.333 257.5,262C 256.027,261.29 255.36,260.124 255.5,258.5C 257.924,258.808 260.257,258.474 262.5,257.5C 261.478,256.646 260.645,255.646 260,254.5C 259.819,251.305 259.319,248.305 258.5,245.5C 264.544,241.789 269.211,236.789 272.5,230.5C 272.5,230.167 272.5,229.833 272.5,229.5C 274.176,228.817 274.843,227.483 274.5,225.5C 274.893,223.716 275.559,222.05 276.5,220.5C 276.833,220.5 277.167,220.5 277.5,220.5C 279.978,221.164 282.645,221.497 285.5,221.5C 289.351,221.63 292.685,220.63 295.5,218.5 Z"/></g>
<g><path style="opacity:0.902" fill="#a6c78c" d="M 331.5,232.5 C 331.969,235.393 330.969,237.393 328.5,238.5C 328.992,236.181 329.992,234.181 331.5,232.5 Z"/></g>
<g><path style="opacity:0.965" fill="#bfd592" d="M 388.5,232.5 C 387.702,234.966 386.369,236.966 384.5,238.5C 384.845,235.802 386.178,233.802 388.5,232.5 Z"/></g>
<g><path style="opacity:0.102" fill="#b0c6be" d="M 147.5,235.5 C 149.379,236.895 150.379,238.895 150.5,241.5C 148.755,239.967 147.755,237.967 147.5,235.5 Z"/></g>
<g><path style="opacity:0.224" fill="#aec4b5" d="M 210.5,231.5 C 210.253,234.854 209.253,237.854 207.5,240.5C 207.747,237.146 208.747,234.146 210.5,231.5 Z"/></g>
<g><path style="opacity:0.208" fill="#d0decc" d="M 293.5,226.5 C 292.486,232.192 290.152,237.192 286.5,241.5C 288.597,236.311 290.93,231.311 293.5,226.5 Z"/></g>
<g><path style="opacity:1" fill="#a0cb4d" d="M 389.5,263.5 C 387.866,264.207 386.532,265.373 385.5,267C 386.484,275.749 386.817,284.582 386.5,293.5C 390.588,293.218 391.088,293.885 388,295.5C 385.436,294.423 384.936,295.256 386.5,298C 388.108,298.658 389.275,298.158 390,296.5C 390.741,299.112 389.741,300.778 387,301.5C 386.333,310.5 386.333,319.5 387,328.5C 387.925,329.047 388.758,329.713 389.5,330.5C 386.373,330.98 383.54,331.98 381,333.5C 380.5,336 380,338.5 379.5,341C 380.419,348.801 380.752,356.635 380.5,364.5C 383.127,365.092 385.794,365.425 388.5,365.5C 387.89,366.391 387.557,367.391 387.5,368.5C 386.5,370.167 385.167,371.5 383.5,372.5C 381.973,372.427 380.973,373.094 380.5,374.5C 378.883,375.038 377.216,375.371 375.5,375.5C 375.062,375.565 374.728,375.399 374.5,375C 375.328,374.085 376.328,373.419 377.5,373C 375.981,371.649 374.648,370.149 373.5,368.5C 376.362,367.694 376.862,366.361 375,364.5C 374.502,361.183 374.335,357.85 374.5,354.5C 374.5,353.5 374.5,352.5 374.5,351.5C 374.5,351.167 374.5,350.833 374.5,350.5C 375.309,348.708 375.809,346.708 376,344.5C 376.5,321.169 376.667,297.836 376.5,274.5C 376.98,269.178 377.313,263.845 377.5,258.5C 377.216,256.585 377.549,254.919 378.5,253.5C 380.277,250.495 381.277,247.162 381.5,243.5C 381.328,242.508 381.662,241.842 382.5,241.5C 383.906,241.027 384.573,240.027 384.5,238.5C 386.369,236.966 387.702,234.966 388.5,232.5C 391.167,230.5 391.167,228.5 388.5,226.5C 388.5,225.833 388.5,225.167 388.5,224.5C 389.117,224.389 389.617,224.056 390,223.5C 391.214,225.049 392.714,226.215 394.5,227C 392.219,228.851 392.219,230.518 394.5,232C 393.685,239.087 393.185,246.253 393,253.5C 392.667,253.167 392.333,252.833 392,252.5C 391.667,254.5 391.333,256.5 391,258.5C 390.333,257.833 389.667,257.167 389,256.5C 386.483,259.762 383.65,261.929 380.5,263C 382.35,265.033 383.016,265.033 382.5,263C 384.355,262.578 386.189,262.078 388,261.5C 389.03,261.836 389.53,262.503 389.5,263.5 Z"/></g>
<g><path style="opacity:0.275" fill="#c8d5b2" d="M 384.5,238.5 C 384.573,240.027 383.906,241.027 382.5,241.5C 382.427,239.973 383.094,238.973 384.5,238.5 Z"/></g>
<g><path style="opacity:0.027" fill="#d1d5c6" d="M 412.5,239.5 C 411.486,240.674 410.153,241.34 408.5,241.5C 409.287,239.896 410.62,239.229 412.5,239.5 Z"/></g>
<g><path style="opacity:0.373" fill="#b8cdb7" d="M 272.5,230.5 C 269.211,236.789 264.544,241.789 258.5,245.5C 257.395,246.6 256.062,247.267 254.5,247.5C 261.131,242.537 267.131,236.87 272.5,230.5 Z"/></g>
<g><path style="opacity:0.867" fill="#bdd9a7" d="M 328.5,238.5 C 328.975,241.313 327.975,243.313 325.5,244.5C 326.508,242.456 327.508,240.456 328.5,238.5 Z"/></g>
<g><path style="opacity:0.894" fill="#98d2c7" d="M 115.5,239.5 C 117.065,241.509 118.065,243.843 118.5,246.5C 117.272,245.694 116.272,244.694 115.5,243.5C 115.5,242.167 115.5,240.833 115.5,239.5 Z"/></g>
<g><path style="opacity:0.341" fill="#97beb9" d="M 90.5,241.5 C 92.5311,242.539 93.8645,244.205 94.5,246.5C 92.457,245.421 91.1237,243.754 90.5,241.5 Z"/></g>
<g><path style="opacity:0.125" fill="#e4f3e1" d="M 286.5,241.5 C 286.573,243.027 285.906,244.027 284.5,244.5C 284.427,242.973 285.094,241.973 286.5,241.5 Z"/></g>
<g><path style="opacity:0.114" fill="#bbc7c2" d="M 151.5,244.5 C 152.674,245.514 153.34,246.847 153.5,248.5C 151.896,247.713 151.229,246.38 151.5,244.5 Z"/></g>
<g><path style="opacity:0.027" fill="#eaf2d6" d="M 405.5,244.5 C 405.573,246.027 404.906,247.027 403.5,247.5C 403.427,245.973 404.094,244.973 405.5,244.5 Z"/></g>
<g><path style="opacity:0.827" fill="#c3d4a6" d="M 381.5,243.5 C 381.277,247.162 380.277,250.495 378.5,253.5C 378.59,249.786 379.59,246.452 381.5,243.5 Z"/></g>
<g><path style="opacity:0.616" fill="#aec9b0" d="M 254.5,247.5 C 254.027,248.906 253.027,249.573 251.5,249.5C 251.973,248.094 252.973,247.427 254.5,247.5 Z"/></g>
<g><path style="opacity:0.945" fill="#aecd99" d="M 325.5,244.5 C 325.408,246.848 324.408,248.514 322.5,249.5C 322.75,247.326 323.75,245.659 325.5,244.5 Z"/></g>
<g><path style="opacity:0.631" fill="#aac8c2" d="M 118.5,246.5 C 120.568,249.763 121.568,253.43 121.5,257.5C 119.926,254.093 118.926,250.427 118.5,246.5 Z"/></g>
<g><path style="opacity:0.231" fill="#bdcbb1" d="M 344.5,246.5 C 344.206,249.754 342.873,252.421 340.5,254.5C 341.326,251.515 342.659,248.849 344.5,246.5 Z"/></g>
<g><path style="opacity:0.094" fill="#bec4b0" d="M 403.5,247.5 C 403.573,249.027 402.906,250.027 401.5,250.5C 401.427,248.973 402.094,247.973 403.5,247.5 Z"/></g>
<g><path style="opacity:0.502" fill="#bad8bd" d="M 251.5,249.5 C 250.738,251.262 249.404,252.262 247.5,252.5C 248.262,250.738 249.596,249.738 251.5,249.5 Z"/></g>
<g><path style="opacity:0.039" fill="#d8e3d6" d="M 282.5,246.5 C 281.5,249.5 279.5,251.5 276.5,252.5C 276.5,252.167 276.5,251.833 276.5,251.5C 278.5,249.833 280.5,248.167 282.5,246.5 Z"/></g>
<g><path style="opacity:0.061" fill="#d7dbd8" d="M 189.5,240.5 C 188.89,246.815 188.557,253.149 188.5,259.5C 187.837,257.359 187.503,255.025 187.5,252.5C 187.411,248.239 188.078,244.239 189.5,240.5 Z"/></g>
<g><path style="opacity:0.467" fill="#cfe6c2" d="M 322.5,249.5 C 322.262,251.404 321.262,252.738 319.5,253.5C 319.738,251.596 320.738,250.262 322.5,249.5 Z"/></g>
<g><path style="opacity:0.447" fill="#c3e6c7" d="M 247.5,252.5 C 246.738,254.262 245.404,255.262 243.5,255.5C 244.262,253.738 245.596,252.738 247.5,252.5 Z"/></g>
<g><path style="opacity:0.533" fill="#c3e0b2" d="M 319.5,253.5 C 318.864,255.795 317.531,257.461 315.5,258.5C 316.124,256.246 317.457,254.579 319.5,253.5 Z"/></g>
<g><path style="opacity:0.063" fill="#cfdecd" d="M 274.5,254.5 C 274.027,255.906 273.027,256.573 271.5,256.5C 271.973,255.094 272.973,254.427 274.5,254.5 Z"/></g>
<g><path style="opacity:0.059" fill="#c8ded1" d="M 207.5,240.5 C 206.752,247.809 206.418,255.142 206.5,262.5C 205.835,259.686 205.502,256.686 205.5,253.5C 205.316,248.893 205.983,244.56 207.5,240.5 Z"/></g>
<g><path style="opacity:0.49" fill="#b9ddbe" d="M 243.5,255.5 C 242.738,257.262 241.404,258.262 239.5,258.5C 240.262,256.738 241.596,255.738 243.5,255.5 Z"/></g>
<g><path style="opacity:0.345" fill="#bac8af" d="M 340.5,254.5 C 340.002,257.326 338.669,259.66 336.5,261.5C 337.079,258.669 338.412,256.336 340.5,254.5 Z"/></g>
<g><path style="opacity:1" fill="#54bd84" d="M 216.5,193.5 C 216.833,193.5 217.167,193.5 217.5,193.5C 217.326,196.763 215.659,198.43 212.5,198.5C 212.5,205.5 212.5,212.5 212.5,219.5C 213.833,219.5 215.167,219.5 216.5,219.5C 216.5,219.833 216.5,220.167 216.5,220.5C 215.737,222.368 214.737,224.035 213.5,225.5C 211.896,226.287 211.229,227.62 211.5,229.5C 211.672,230.492 211.338,231.158 210.5,231.5C 208.747,234.146 207.747,237.146 207.5,240.5C 205.983,244.56 205.316,248.893 205.5,253.5C 205.502,256.686 205.835,259.686 206.5,262.5C 207.673,267.522 209.006,272.522 210.5,277.5C 210.581,280.513 211.914,282.513 214.5,283.5C 212.951,285.829 212.117,288.496 212,291.5C 211.111,290.112 210.611,290.278 210.5,292C 212.612,296.478 211.945,300.645 208.5,304.5C 207.833,304.5 207.167,304.5 206.5,304.5C 206.167,303.833 205.833,303.167 205.5,302.5C 205.25,300.326 204.25,298.659 202.5,297.5C 202.573,295.973 201.906,294.973 200.5,294.5C 199.674,291.515 198.341,288.849 196.5,286.5C 196.34,284.847 195.674,283.514 194.5,282.5C 194.88,280.302 194.213,278.635 192.5,277.5C 192.5,277.167 192.5,276.833 192.5,276.5C 192.074,272.573 191.074,268.907 189.5,265.5C 188.85,263.565 188.517,261.565 188.5,259.5C 188.557,253.149 188.89,246.815 189.5,240.5C 189.216,238.585 189.549,236.919 190.5,235.5C 192.585,233.316 193.585,230.649 193.5,227.5C 195.044,222.081 197.378,217.081 200.5,212.5C 202.262,211.738 203.262,210.404 203.5,208.5C 204.906,208.027 205.573,207.027 205.5,205.5C 207.914,204.089 209.581,202.089 210.5,199.5C 211.833,196.833 213.833,194.833 216.5,193.5 Z"/></g>
<g><path style="opacity:0.525" fill="#bde5c4" d="M 239.5,258.5 C 238.738,260.262 237.404,261.262 235.5,261.5C 236.262,259.738 237.596,258.738 239.5,258.5 Z"/></g>
<g><path style="opacity:0.004" fill="#eff8ee" d="M 269.5,258.5 C 269.027,259.906 268.027,260.573 266.5,260.5C 266.973,259.094 267.973,258.427 269.5,258.5 Z"/></g>
<g><path style="opacity:1" fill="#7fc661" d="M 315.5,260.5 C 316.79,261.058 317.623,262.058 318,263.5C 318.805,261.099 319.638,261.266 320.5,264C 318.671,264.273 317.171,265.107 316,266.5C 315.267,271.885 315.433,277.218 316.5,282.5C 314.833,283.5 313.5,284.833 312.5,286.5C 310.251,287.08 308.585,288.413 307.5,290.5C 305.833,291.167 304.167,291.833 302.5,292.5C 300.789,287.18 299.789,281.514 299.5,275.5C 300.5,274.167 301.5,272.833 302.5,271.5C 305.764,269.906 308.431,267.573 310.5,264.5C 312.167,263.167 313.833,261.833 315.5,260.5 Z"/></g>
<g><path style="opacity:0.639" fill="#c2e1b1" d="M 315.5,258.5 C 315.5,259.167 315.5,259.833 315.5,260.5C 313.833,261.833 312.167,263.167 310.5,264.5C 311.419,261.911 313.086,259.911 315.5,258.5 Z"/></g>
<g><path style="opacity:0.039" fill="#cbd3cb" d="M 265.5,261.5 C 265.027,262.906 264.027,263.573 262.5,263.5C 262.973,262.094 263.973,261.427 265.5,261.5 Z"/></g>
<g><path style="opacity:0.031" fill="#cfd3cb" d="M 336.5,261.5 C 336.5,262.833 335.833,263.5 334.5,263.5C 334.833,262.5 335.5,261.833 336.5,261.5 Z"/></g>
<g><path style="opacity:0.773" fill="#a4d5c0" d="M 162.5,263.5 C 165.833,263.5 169.167,263.5 172.5,263.5C 169.132,266.046 165.799,266.046 162.5,263.5 Z"/></g>
<g><path style="opacity:0.604" fill="#abd6b5" d="M 235.5,261.5 C 234.089,263.914 232.089,265.581 229.5,266.5C 230.911,264.086 232.911,262.419 235.5,261.5 Z"/></g>
<g><path style="opacity:0.012" fill="#ebf4eb" d="M 262.5,263.5 C 262.027,264.906 261.027,265.573 259.5,265.5C 259.5,265.167 259.5,264.833 259.5,264.5C 260.391,263.89 261.391,263.557 262.5,263.5 Z"/></g>
<g><path style="opacity:0.031" fill="#dde6dc" d="M 259.5,265.5 C 259.027,266.906 258.027,267.573 256.5,267.5C 256.973,266.094 257.973,265.427 259.5,265.5 Z"/></g>
<g><path style="opacity:1" fill="#63c178" d="M 258.5,245.5 C 259.319,248.305 259.819,251.305 260,254.5C 260.645,255.646 261.478,256.646 262.5,257.5C 260.257,258.474 257.924,258.808 255.5,258.5C 255.36,260.124 256.027,261.29 257.5,262C 257.167,262.333 256.833,262.667 256.5,263C 257.737,263.232 258.737,263.732 259.5,264.5C 259.5,264.833 259.5,265.167 259.5,265.5C 257.973,265.427 256.973,266.094 256.5,267.5C 253.109,268.529 250.443,270.529 248.5,273.5C 248.5,274.167 248.167,274.5 247.5,274.5C 245.596,274.738 244.262,275.738 243.5,277.5C 243.5,278.167 243.167,278.5 242.5,278.5C 239.573,279.757 237.239,281.757 235.5,284.5C 235.5,285.167 235.167,285.5 234.5,285.5C 233.167,286.5 231.833,287.5 230.5,288.5C 230.825,281.313 230.491,274.313 229.5,267.5C 229.5,267.167 229.5,266.833 229.5,266.5C 232.089,265.581 234.089,263.914 235.5,261.5C 237.404,261.262 238.738,260.262 239.5,258.5C 241.404,258.262 242.738,257.262 243.5,255.5C 245.404,255.262 246.738,254.262 247.5,252.5C 249.404,252.262 250.738,251.262 251.5,249.5C 253.027,249.573 254.027,248.906 254.5,247.5C 256.062,247.267 257.395,246.6 258.5,245.5 Z"/></g>
<g><path style="opacity:0.102" fill="#bfc5ba" d="M 333.5,265.5 C 333.262,267.404 332.262,268.738 330.5,269.5C 330.738,267.596 331.738,266.262 333.5,265.5 Z"/></g>
<g><path style="opacity:0.141" fill="#c4d2ca" d="M 189.5,265.5 C 191.074,268.907 192.074,272.573 192.5,276.5C 190.517,273.201 189.517,269.534 189.5,265.5 Z"/></g>
<g><path style="opacity:0.624" fill="#c3e3b5" d="M 310.5,264.5 C 308.431,267.573 305.764,269.906 302.5,271.5C 304.569,268.427 307.236,266.094 310.5,264.5 Z"/></g>
<g><path style="opacity:0.145" fill="#d0d8be" d="M 399.5,253.5 C 398.363,257.417 397.53,261.417 397,265.5C 396.075,294.336 394.908,323.002 393.5,351.5C 393.951,330.836 394.284,310.169 394.5,289.5C 394.845,280.828 395.345,272.162 396,263.5C 396.302,259.755 397.469,256.422 399.5,253.5 Z"/></g>
<g><path style="opacity:1" fill="#57bf7c" d="M 229.5,267.5 C 230.491,274.313 230.825,281.313 230.5,288.5C 228.975,290.216 227.975,292.216 227.5,294.5C 226.073,296.148 225.24,298.148 225,300.5C 224.182,306.349 224.348,312.015 225.5,317.5C 225.281,318.675 225.614,319.675 226.5,320.5C 227.107,320.376 227.44,320.043 227.5,319.5C 228.5,319.5 229.5,319.5 230.5,319.5C 229.989,323.03 230.656,326.196 232.5,329C 231.552,329.483 230.552,329.649 229.5,329.5C 229.5,331.167 229.5,332.833 229.5,334.5C 227.901,334.232 226.568,334.566 225.5,335.5C 223.833,336.167 222.167,336.833 220.5,337.5C 216.818,337.665 213.152,337.499 209.5,337C 208.594,335.301 208.261,333.467 208.5,331.5C 208.5,322.5 208.5,313.5 208.5,304.5C 211.945,300.645 212.612,296.478 210.5,292C 210.611,290.278 211.111,290.112 212,291.5C 212.117,288.496 212.951,285.829 214.5,283.5C 214.5,283.167 214.5,282.833 214.5,282.5C 216.262,281.738 217.262,280.404 217.5,278.5C 221.5,274.833 225.5,271.167 229.5,267.5 Z"/></g>
<g><path style="opacity:0.031" fill="#c8d4c8" d="M 256.5,267.5 C 254.2,269.984 251.533,271.984 248.5,273.5C 250.443,270.529 253.109,268.529 256.5,267.5 Z"/></g>
<g><path style="opacity:0.388" fill="#cce6c2" d="M 302.5,271.5 C 301.5,272.833 300.5,274.167 299.5,275.5C 298.833,275.5 298.167,275.5 297.5,275.5C 298.585,273.413 300.251,272.08 302.5,271.5 Z"/></g>
<g><path style="opacity:0.369" fill="#9fc9bf" d="M 121.5,259.5 C 122.748,265.159 123.748,270.992 124.5,277C 124.43,277.765 124.097,278.265 123.5,278.5C 122.578,274.005 121.911,269.338 121.5,264.5C 121.5,262.833 121.5,261.167 121.5,259.5 Z"/></g>
<g><path style="opacity:0.145" fill="#d4dcc7" d="M 377.5,258.5 C 377.313,263.845 376.98,269.178 376.5,274.5C 376.167,274.5 375.833,274.5 375.5,274.5C 375.376,268.931 376.043,263.598 377.5,258.5 Z"/></g>
<g><path style="opacity:0.137" fill="#c5d4d1" d="M 102.5,262.5 C 103.36,266.434 103.693,270.434 103.5,274.5C 103.5,278.5 103.5,282.5 103.5,286.5C 102.787,279.143 102.12,271.643 101.5,264C 101.57,263.235 101.903,262.735 102.5,262.5 Z"/></g>
<g><path style="opacity:0.502" fill="#b5d6be" d="M 229.5,266.5 C 229.5,266.833 229.5,267.167 229.5,267.5C 225.5,271.167 221.5,274.833 217.5,278.5C 220.5,273.5 224.5,269.5 229.5,266.5 Z"/></g>
<g><path style="opacity:0.039" fill="#bac3ba" d="M 247.5,274.5 C 246.738,276.262 245.404,277.262 243.5,277.5C 244.262,275.738 245.596,274.738 247.5,274.5 Z"/></g>
<g><path style="opacity:0.086" fill="#c4cdbf" d="M 326.5,273.5 C 325.833,276.167 324.167,277.833 321.5,278.5C 322.833,276.5 324.5,274.833 326.5,273.5 Z"/></g>
<g><path style="opacity:0.341" fill="#a5bcaf" d="M 192.5,277.5 C 194.213,278.635 194.88,280.302 194.5,282.5C 193.463,281.07 192.796,279.403 192.5,277.5 Z"/></g>
<g><path style="opacity:0.533" fill="#c6e7d0" d="M 217.5,278.5 C 217.262,280.404 216.262,281.738 214.5,282.5C 214.738,280.596 215.738,279.262 217.5,278.5 Z"/></g>
<g><path style="opacity:0.871" fill="#b1d6a7" d="M 297.5,275.5 C 295.049,278.277 292.049,280.277 288.5,281.5C 288.5,281.167 288.5,280.833 288.5,280.5C 291.22,278.473 294.22,276.807 297.5,275.5 Z"/></g>
<g><path style="opacity:0.004" fill="#eaf4e5" d="M 321.5,278.5 C 321.5,279.833 320.833,280.5 319.5,280.5C 319.833,279.5 320.5,278.833 321.5,278.5 Z"/></g>
<g><path style="opacity:0.157" fill="#bbc8b9" d="M 288.5,280.5 C 288.5,280.833 288.5,281.167 288.5,281.5C 284.817,283.341 281.484,285.674 278.5,288.5C 280.618,284.426 283.951,281.759 288.5,280.5 Z"/></g>
<g><path style="opacity:0.506" fill="#b5d9c1" d="M 210.5,277.5 C 211.833,279.167 213.167,280.833 214.5,282.5C 214.5,282.833 214.5,283.167 214.5,283.5C 211.914,282.513 210.581,280.513 210.5,277.5 Z"/></g>
<g><path style="opacity:0.031" fill="#b7c4b9" d="M 242.5,278.5 C 240.761,281.243 238.427,283.243 235.5,284.5C 237.239,281.757 239.573,279.757 242.5,278.5 Z"/></g>
<g><path style="opacity:0.114" fill="#b5c6bd" d="M 194.5,282.5 C 195.674,283.514 196.34,284.847 196.5,286.5C 194.896,285.713 194.229,284.38 194.5,282.5 Z"/></g>
<g><path style="opacity:1" fill="#79c56c" d="M 297.5,275.5 C 298.167,275.5 298.833,275.5 299.5,275.5C 299.789,281.514 300.789,287.18 302.5,292.5C 302.167,293.167 301.833,293.833 301.5,294.5C 299.973,294.427 298.973,295.094 298.5,296.5C 296.973,296.427 295.973,297.094 295.5,298.5C 295.666,306.84 295.5,315.173 295,323.5C 294.411,325.863 292.911,326.863 290.5,326.5C 287.167,326.833 283.833,327.167 280.5,327.5C 278.833,327.5 277.167,327.5 275.5,327.5C 276.026,322.193 275.36,317.193 273.5,312.5C 274.959,312.567 276.292,312.234 277.5,311.5C 278.492,304.018 278.825,296.352 278.5,288.5C 281.484,285.674 284.817,283.341 288.5,281.5C 292.049,280.277 295.049,278.277 297.5,275.5 Z"/></g>
<g><path style="opacity:0.173" fill="#c1cbbc" d="M 318.5,281.5 C 317.362,284.086 315.362,285.753 312.5,286.5C 313.5,284.833 314.833,283.5 316.5,282.5C 317.167,282.167 317.833,281.833 318.5,281.5 Z"/></g>
<g><path style="opacity:0.469" fill="#9bcac3" d="M 103.5,274.5 C 104.496,290.325 104.83,306.325 104.5,322.5C 103.809,313.295 103.142,303.962 102.5,294.5C 103.393,291.916 103.726,289.249 103.5,286.5C 103.5,282.5 103.5,278.5 103.5,274.5 Z"/></g>
<g><path style="opacity:0.039" fill="#b9c7bc" d="M 234.5,285.5 C 232.542,288.792 230.209,291.792 227.5,294.5C 227.975,292.216 228.975,290.216 230.5,288.5C 231.833,287.5 233.167,286.5 234.5,285.5 Z"/></g>
<g><path style="opacity:0.122" fill="#c3cfbe" d="M 312.5,286.5 C 311.415,288.587 309.749,289.92 307.5,290.5C 308.585,288.413 310.251,287.08 312.5,286.5 Z"/></g>
<g><path style="opacity:0.043" fill="#bccbc2" d="M 196.5,286.5 C 198.341,288.849 199.674,291.515 200.5,294.5C 198.127,292.421 196.794,289.754 196.5,286.5 Z"/></g>
<g><path style="opacity:0.016" fill="#c6cbc3" d="M 307.5,290.5 C 306.198,292.822 304.198,294.155 301.5,294.5C 301.833,293.833 302.167,293.167 302.5,292.5C 304.167,291.833 305.833,291.167 307.5,290.5 Z"/></g>
<g><path style="opacity:0.039" fill="#c2c5c0" d="M 301.5,294.5 C 301.027,295.906 300.027,296.573 298.5,296.5C 298.973,295.094 299.973,294.427 301.5,294.5 Z"/></g>
<g><path style="opacity:0.122" fill="#d8eee0" d="M 200.5,294.5 C 201.906,294.973 202.573,295.973 202.5,297.5C 201.094,297.027 200.427,296.027 200.5,294.5 Z"/></g>
<g><path style="opacity:0.035" fill="#c2c5c1" d="M 298.5,296.5 C 298.027,297.906 297.027,298.573 295.5,298.5C 295.973,297.094 296.973,296.427 298.5,296.5 Z"/></g>
<g><path style="opacity:0.043" fill="#d7eade" d="M 202.5,297.5 C 204.25,298.659 205.25,300.326 205.5,302.5C 203.75,301.341 202.75,299.674 202.5,297.5 Z"/></g>
<g><path style="opacity:1" fill="#29b49a" d="M 121.5,264.5 C 121.911,269.338 122.578,274.005 123.5,278.5C 123.5,278.833 123.5,279.167 123.5,279.5C 123.333,301.836 123.5,324.169 124,346.5C 124.183,349.365 124.683,352.031 125.5,354.5C 125.5,356.5 126.5,357.5 128.5,357.5C 131.149,359.109 134.149,359.943 137.5,360C 138.035,362.109 139.035,362.609 140.5,361.5C 141.518,362.193 142.518,362.859 143.5,363.5C 144.457,367.67 144.457,372.003 143.5,376.5C 137.925,377.452 132.259,377.786 126.5,377.5C 122.703,377.128 119.37,375.794 116.5,373.5C 115.415,371.413 113.749,370.08 111.5,369.5C 111.911,367.228 113.078,366.895 115,368.5C 118.974,366.883 123.141,366.05 127.5,366C 123.916,364.927 120.25,364.26 116.5,364C 117.448,363.517 118.448,363.351 119.5,363.5C 119.666,356.492 119.5,349.492 119,342.5C 118.16,339.536 117.16,339.203 116,341.5C 115.308,340.975 114.808,340.308 114.5,339.5C 116.125,338.821 117.458,337.655 118.5,336C 117.863,334.287 116.863,334.121 115.5,335.5C 113.885,334.846 112.218,334.346 110.5,334C 113.44,332.848 116.44,331.848 119.5,331C 116.99,330.624 114.657,329.79 112.5,328.5C 112.808,327.692 113.308,327.025 114,326.5C 115.11,328.037 116.61,328.703 118.5,328.5C 120.135,319.876 119.802,311.376 117.5,303C 118.623,301.956 119.956,301.29 121.5,301C 119.537,290.423 118.87,279.59 119.5,268.5C 117.5,268.5 115.5,268.5 113.5,268.5C 113.5,267.5 113.5,266.5 113.5,265.5C 116.127,264.908 118.794,264.575 121.5,264.5 Z"/></g>
<g><path style="opacity:0.855" fill="#9cbe97" d="M 278.5,288.5 C 278.825,296.352 278.492,304.018 277.5,311.5C 277.5,310.833 277.5,310.167 277.5,309.5C 277.163,303.574 276.83,297.907 276.5,292.5C 276.994,290.974 277.661,289.641 278.5,288.5 Z"/></g>
<g><path style="opacity:0.707" fill="#c5d9a1" d="M 375.5,274.5 C 375.833,274.5 376.167,274.5 376.5,274.5C 376.667,297.836 376.5,321.169 376,344.5C 375.809,346.708 375.309,348.708 374.5,350.5C 374.624,325.209 374.957,299.876 375.5,274.5 Z"/></g>
<g><path style="opacity:1" fill="#a2cb4b" d="M 389.5,263.5 C 389.5,264.833 389.5,266.167 389.5,267.5C 390.833,267.5 392.167,267.5 393.5,267.5C 393.175,275.019 393.508,282.352 394.5,289.5C 394.284,310.169 393.951,330.836 393.5,351.5C 392.262,355.329 391.262,359.329 390.5,363.5C 390.672,364.492 390.338,365.158 389.5,365.5C 389.167,365.5 388.833,365.5 388.5,365.5C 385.794,365.425 383.127,365.092 380.5,364.5C 380.752,356.635 380.419,348.801 379.5,341C 380,338.5 380.5,336 381,333.5C 383.54,331.98 386.373,330.98 389.5,330.5C 388.758,329.713 387.925,329.047 387,328.5C 386.333,319.5 386.333,310.5 387,301.5C 389.741,300.778 390.741,299.112 390,296.5C 389.275,298.158 388.108,298.658 386.5,298C 384.936,295.256 385.436,294.423 388,295.5C 391.088,293.885 390.588,293.218 386.5,293.5C 386.817,284.582 386.484,275.749 385.5,267C 386.532,265.373 387.866,264.207 389.5,263.5 Z"/></g>
<g><path style="opacity:0.154" fill="#b9c8bd" d="M 227.5,294.5 C 225.798,302.046 225.132,309.713 225.5,317.5C 224.348,312.015 224.182,306.349 225,300.5C 225.24,298.148 226.073,296.148 227.5,294.5 Z"/></g>
<g><path style="opacity:0.659" fill="#bcd3b8" d="M 277.5,309.5 C 277.5,310.167 277.5,310.833 277.5,311.5C 276.292,312.234 274.959,312.567 273.5,312.5C 271.833,312.5 270.167,312.5 268.5,312.5C 271.606,311.953 274.606,310.953 277.5,309.5 Z"/></g>
<g><path style="opacity:1" fill="#6dc270" d="M 268.5,312.5 C 270.167,312.5 271.833,312.5 273.5,312.5C 275.36,317.193 276.026,322.193 275.5,327.5C 277.167,327.5 278.833,327.5 280.5,327.5C 277.833,328.167 275.167,328.833 272.5,329.5C 268.881,330.244 265.215,330.577 261.5,330.5C 257.164,329.916 252.831,329.249 248.5,328.5C 247.558,328.608 246.725,328.941 246,329.5C 245.957,325.783 246.457,322.116 247.5,318.5C 246.127,318.657 244.793,318.49 243.5,318C 245.473,317.505 247.473,317.338 249.5,317.5C 249.338,319.527 249.505,321.527 250,323.5C 250.497,321.19 250.663,318.857 250.5,316.5C 252.099,316.768 253.432,316.434 254.5,315.5C 259.383,314.983 264.05,313.983 268.5,312.5 Z"/></g>
<g><path style="opacity:0.306" fill="#b4cbb5" d="M 268.5,312.5 C 264.05,313.983 259.383,314.983 254.5,315.5C 252.833,315.5 251.167,315.5 249.5,315.5C 255.603,313.864 261.936,312.864 268.5,312.5 Z"/></g>
<g><path style="opacity:0.349" fill="#cee2d1" d="M 249.5,315.5 C 246.026,316.525 242.36,317.192 238.5,317.5C 241.845,315.783 245.511,315.116 249.5,315.5 Z"/></g>
<g><path style="opacity:0.529" fill="#a9c4b3" d="M 206.5,304.5 C 207.167,304.5 207.833,304.5 208.5,304.5C 208.5,313.5 208.5,322.5 208.5,331.5C 208.167,331.5 207.833,331.5 207.5,331.5C 207.79,322.756 207.457,313.756 206.5,304.5 Z"/></g>
<g><path style="opacity:0.525" fill="#adccb3" d="M 238.5,317.5 C 236.095,318.768 233.428,319.435 230.5,319.5C 229.5,319.5 228.5,319.5 227.5,319.5C 227.918,318.778 228.584,318.278 229.5,318C 232.482,317.502 235.482,317.335 238.5,317.5 Z"/></g>
<g><path style="opacity:0.486" fill="#b4debf" d="M 225.5,317.5 C 226.167,318.167 226.833,318.833 227.5,319.5C 227.44,320.043 227.107,320.376 226.5,320.5C 225.614,319.675 225.281,318.675 225.5,317.5 Z"/></g>
<g><path style="opacity:1" fill="#62c078" d="M 249.5,315.5 C 251.167,315.5 252.833,315.5 254.5,315.5C 253.432,316.434 252.099,316.768 250.5,316.5C 250.663,318.857 250.497,321.19 250,323.5C 249.505,321.527 249.338,319.527 249.5,317.5C 247.473,317.338 245.473,317.505 243.5,318C 244.793,318.49 246.127,318.657 247.5,318.5C 246.457,322.116 245.957,325.783 246,329.5C 246.725,328.941 247.558,328.608 248.5,328.5C 252.831,329.249 257.164,329.916 261.5,330.5C 249.737,332.879 237.737,334.546 225.5,335.5C 226.568,334.566 227.901,334.232 229.5,334.5C 229.5,332.833 229.5,331.167 229.5,329.5C 230.552,329.649 231.552,329.483 232.5,329C 230.656,326.196 229.989,323.03 230.5,319.5C 233.428,319.435 236.095,318.768 238.5,317.5C 242.36,317.192 246.026,316.525 249.5,315.5 Z"/></g>
<g><path style="opacity:0.063" fill="#ccd4ca" d="M 290.5,326.5 C 289.192,327.232 287.858,328.066 286.5,329C 281.845,329.499 277.179,329.666 272.5,329.5C 275.167,328.833 277.833,328.167 280.5,327.5C 283.833,327.167 287.167,326.833 290.5,326.5 Z"/></g>
<g><path style="opacity:0.071" fill="#c2d2c5" d="M 272.5,329.5 C 272.389,330.117 272.056,330.617 271.5,331C 254.772,333.967 237.772,336.133 220.5,337.5C 222.167,336.833 223.833,336.167 225.5,335.5C 237.737,334.546 249.737,332.879 261.5,330.5C 265.215,330.577 268.881,330.244 272.5,329.5 Z"/></g>
<g><path style="opacity:0.039" fill="#c7c8c6" d="M 295.5,338.5 C 294.728,337.306 293.728,336.306 292.5,335.5C 291.081,334.549 289.415,334.216 287.5,334.5C 287.5,333.5 287.5,332.5 287.5,331.5C 292.076,331.747 294.743,334.081 295.5,338.5 Z"/></g>
<g><path style="opacity:0.05" fill="#c9c8c9" d="M 280.5,335.5 C 279.209,335.263 278.209,335.596 277.5,336.5C 275.833,336.5 274.167,336.5 272.5,336.5C 273.392,334.286 275.058,333.286 277.5,333.5C 279.03,333.64 280.03,334.307 280.5,335.5 Z"/></g>
<g><path style="opacity:0.016" fill="#d3e0d8" d="M 207.5,331.5 C 207.833,331.5 208.167,331.5 208.5,331.5C 208.261,333.467 208.594,335.301 209.5,337C 213.152,337.499 216.818,337.665 220.5,337.5C 216.325,339.931 212.158,339.931 208,337.5C 207.505,335.527 207.338,333.527 207.5,331.5 Z"/></g>
<g><path style="opacity:0.902" fill="#9dd093" d="M 287.5,334.5 C 289.415,334.216 291.081,334.549 292.5,335.5C 288.481,335.646 284.481,335.979 280.5,336.5C 279.5,336.5 278.5,336.5 277.5,336.5C 278.209,335.596 279.209,335.263 280.5,335.5C 282.717,334.631 285.05,334.298 287.5,334.5 Z"/></g>
<g><path style="opacity:1" fill="#75c469" d="M 292.5,335.5 C 293.728,336.306 294.728,337.306 295.5,338.5C 295.5,341.5 295.5,344.5 295.5,347.5C 294.167,348.167 293.167,349.167 292.5,350.5C 287.114,350.777 281.781,351.444 276.5,352.5C 275.761,352.631 275.094,352.464 274.5,352C 275.464,347.934 275.797,343.767 275.5,339.5C 278.034,339.741 279.7,338.741 280.5,336.5C 284.481,335.979 288.481,335.646 292.5,335.5 Z"/></g>
<g><path style="opacity:0.251" fill="#c0cebf" d="M 272.5,336.5 C 270.786,337.738 268.786,338.405 266.5,338.5C 260.489,339.073 254.489,339.74 248.5,340.5C 253.44,338.884 258.607,337.551 264,336.5C 266.735,337.006 269.569,337.006 272.5,336.5 Z"/></g>
<g><path style="opacity:1" fill="#6cc26e" d="M 272.5,336.5 C 274.167,336.5 275.833,336.5 277.5,336.5C 278.5,336.5 279.5,336.5 280.5,336.5C 279.7,338.741 278.034,339.741 275.5,339.5C 275.797,343.767 275.464,347.934 274.5,352C 275.094,352.464 275.761,352.631 276.5,352.5C 267.035,354.607 257.368,356.274 247.5,357.5C 249.37,352.468 250.037,347.135 249.5,341.5C 255.407,341.137 261.073,340.137 266.5,338.5C 268.786,338.405 270.786,337.738 272.5,336.5 Z"/></g>
<g><path style="opacity:0.431" fill="#a6cec8" d="M 104.5,331.5 C 105.493,339.65 105.826,347.983 105.5,356.5C 104.133,348.269 103.799,339.936 104.5,331.5 Z"/></g>
<g><path style="opacity:1" fill="#1db29e" d="M 115.5,243.5 C 116.272,244.694 117.272,245.694 118.5,246.5C 118.926,250.427 119.926,254.093 121.5,257.5C 121.5,258.167 121.5,258.833 121.5,259.5C 121.5,261.167 121.5,262.833 121.5,264.5C 118.794,264.575 116.127,264.908 113.5,265.5C 113.5,266.5 113.5,267.5 113.5,268.5C 115.5,268.5 117.5,268.5 119.5,268.5C 118.87,279.59 119.537,290.423 121.5,301C 119.956,301.29 118.623,301.956 117.5,303C 119.802,311.376 120.135,319.876 118.5,328.5C 116.61,328.703 115.11,328.037 114,326.5C 113.308,327.025 112.808,327.692 112.5,328.5C 114.657,329.79 116.99,330.624 119.5,331C 116.44,331.848 113.44,332.848 110.5,334C 112.218,334.346 113.885,334.846 115.5,335.5C 116.863,334.121 117.863,334.287 118.5,336C 117.458,337.655 116.125,338.821 114.5,339.5C 114.808,340.308 115.308,340.975 116,341.5C 117.16,339.203 118.16,339.536 119,342.5C 119.5,349.492 119.666,356.492 119.5,363.5C 118.448,363.351 117.448,363.517 116.5,364C 120.25,364.26 123.916,364.927 127.5,366C 123.141,366.05 118.974,366.883 115,368.5C 113.078,366.895 111.911,367.228 111.5,369.5C 107.268,366.307 105.268,361.974 105.5,356.5C 105.826,347.983 105.493,339.65 104.5,331.5C 103.225,328.604 103.225,325.604 104.5,322.5C 104.83,306.325 104.496,290.325 103.5,274.5C 103.693,270.434 103.36,266.434 102.5,262.5C 102.5,262.167 102.5,261.833 102.5,261.5C 102.5,259.833 102.5,258.167 102.5,256.5C 103.833,256.5 105.167,256.5 106.5,256.5C 106.125,259.907 107.125,260.407 109.5,258C 108.919,257.107 108.585,256.107 108.5,255C 109.947,248.927 110.947,242.761 111.5,236.5C 112.478,236.977 113.311,237.643 114,238.5C 114.198,240.382 114.698,242.048 115.5,243.5 Z"/></g>
<g><path style="opacity:0.578" fill="#9bc3b9" d="M 123.5,279.5 C 125.068,304.421 125.735,329.421 125.5,354.5C 124.683,352.031 124.183,349.365 124,346.5C 123.5,324.169 123.333,301.836 123.5,279.5 Z"/></g>
<g><path style="opacity:0.067" fill="#cad2cb" d="M 248.5,340.5 C 244.036,341.644 239.37,342.31 234.5,342.5C 238.881,340.789 243.547,340.123 248.5,340.5 Z"/></g>
<g><path style="opacity:1" fill="#65c178" d="M 266.5,338.5 C 261.073,340.137 255.407,341.137 249.5,341.5C 250.037,347.135 249.37,352.468 247.5,357.5C 243.093,358.139 238.759,359.139 234.5,360.5C 234.167,360.5 233.833,360.5 233.5,360.5C 231.801,360.66 230.134,360.494 228.5,360C 229.766,357.617 230.432,354.95 230.5,352C 230.497,349.31 230.164,346.81 229.5,344.5C 231.167,343.833 232.833,343.167 234.5,342.5C 239.37,342.31 244.036,341.644 248.5,340.5C 254.489,339.74 260.489,339.073 266.5,338.5 Z"/></g>
<g><path style="opacity:0.651" fill="#acbea7" d="M 295.5,338.5 C 297.769,341.579 297.769,344.579 295.5,347.5C 295.5,344.5 295.5,341.5 295.5,338.5 Z"/></g>
<g><path style="opacity:0.106" fill="#cad7ce" d="M 234.5,342.5 C 232.833,343.167 231.167,343.833 229.5,344.5C 222.764,345.067 216.098,346.067 209.5,347.5C 209.611,346.883 209.944,346.383 210.5,346C 218.433,344.319 226.433,343.152 234.5,342.5 Z"/></g>
<g><path style="opacity:1" fill="#5cc07f" d="M 229.5,344.5 C 230.164,346.81 230.497,349.31 230.5,352C 230.432,354.95 229.766,357.617 228.5,360C 230.134,360.494 231.801,360.66 233.5,360.5C 230.772,361.205 227.939,361.872 225,362.5C 224.329,361.748 223.496,361.414 222.5,361.5C 218.846,361.942 215.179,362.276 211.5,362.5C 210.833,362.5 210.167,362.5 209.5,362.5C 208.617,357.897 208.283,353.23 208.5,348.5C 208.5,347.833 208.833,347.5 209.5,347.5C 216.098,346.067 222.764,345.067 229.5,344.5 Z"/></g>
<g><path style="opacity:0.106" fill="#bbc7b7" d="M 295.5,347.5 C 295.5,349.5 294.5,350.5 292.5,350.5C 293.167,349.167 294.167,348.167 295.5,347.5 Z"/></g>
<g><path style="opacity:0.482" fill="#bce0d6" d="M 125.5,354.5 C 126.833,355.167 127.833,356.167 128.5,357.5C 126.5,357.5 125.5,356.5 125.5,354.5 Z"/></g>
<g><path style="opacity:0.612" fill="#c0d2a7" d="M 374.5,351.5 C 374.5,352.5 374.5,353.5 374.5,354.5C 373.441,356.555 371.775,357.889 369.5,358.5C 371.424,356.305 373.091,353.972 374.5,351.5 Z"/></g>
<g><path style="opacity:0.065" fill="#c3d3c2" d="M 292.5,350.5 C 273.219,355.295 253.886,358.628 234.5,360.5C 238.759,359.139 243.093,358.139 247.5,357.5C 257.368,356.274 267.035,354.607 276.5,352.5C 281.781,351.444 287.114,350.777 292.5,350.5 Z"/></g>
<g><path style="opacity:0.545" fill="#b9caa3" d="M 368.5,358.5 C 368.082,359.222 367.416,359.722 366.5,360C 363.183,360.498 359.85,360.665 356.5,360.5C 358.137,359.62 359.97,358.954 362,358.5C 364.112,359.386 366.278,359.386 368.5,358.5 Z"/></g>
<g><path style="opacity:0.329" fill="#becba6" d="M 393.5,351.5 C 393.664,354.187 393.497,356.854 393,359.5C 392.8,361.32 391.966,362.653 390.5,363.5C 391.262,359.329 392.262,355.329 393.5,351.5 Z"/></g>
<g><path style="opacity:0.994" fill="#9fcbbd" d="M 128.5,357.5 C 132.891,358.008 137.225,358.842 141.5,360C 142.823,360.816 143.489,361.983 143.5,363.5C 142.518,362.859 141.518,362.193 140.5,361.5C 139.035,362.609 138.035,362.109 137.5,360C 134.149,359.943 131.149,359.109 128.5,357.5 Z"/></g>
<g><path style="opacity:0.051" fill="#bccbc1" d="M 208.5,348.5 C 208.283,353.23 208.617,357.897 209.5,362.5C 207.657,360.841 206.657,358.675 206.5,356C 206.867,353.292 207.534,350.792 208.5,348.5 Z"/></g>
<g><path style="opacity:0.035" fill="#c4c8c5" d="M 222.5,361.5 C 218.931,363.441 215.265,363.774 211.5,362.5C 215.179,362.276 218.846,361.942 222.5,361.5 Z"/></g>
<g><path style="opacity:0.059" fill="#eaf3d8" d="M 388.5,365.5 C 388.833,365.5 389.167,365.5 389.5,365.5C 389.573,367.027 388.906,368.027 387.5,368.5C 387.557,367.391 387.89,366.391 388.5,365.5 Z"/></g>
<g><path style="opacity:0.651" fill="#9fcbc3" d="M 111.5,369.5 C 113.749,370.08 115.415,371.413 116.5,373.5C 114.251,372.92 112.585,371.587 111.5,369.5 Z"/></g>
<g><path style="opacity:1" fill="#98ca53" d="M 374.5,354.5 C 374.335,357.85 374.502,361.183 375,364.5C 376.862,366.361 376.362,367.694 373.5,368.5C 374.648,370.149 375.981,371.649 377.5,373C 376.328,373.419 375.328,374.085 374.5,375C 374.728,375.399 375.062,375.565 375.5,375.5C 374.5,376.167 373.5,376.833 372.5,377.5C 368.5,377.5 364.5,377.5 360.5,377.5C 358.983,377.489 357.816,376.823 357,375.5C 356.501,370.511 356.334,365.511 356.5,360.5C 359.85,360.665 363.183,360.498 366.5,360C 367.416,359.722 368.082,359.222 368.5,358.5C 368.833,358.5 369.167,358.5 369.5,358.5C 371.775,357.889 373.441,356.555 374.5,354.5 Z"/></g>
<g><path style="opacity:0.043" fill="#ecf1e2" d="M 383.5,372.5 C 383.027,373.906 382.027,374.573 380.5,374.5C 380.973,373.094 381.973,372.427 383.5,372.5 Z"/></g>
<g><path style="opacity:0.067" fill="#dbe0d4" d="M 356.5,360.5 C 356.334,365.511 356.501,370.511 357,375.5C 357.816,376.823 358.983,377.489 360.5,377.5C 360.5,377.833 360.5,378.167 360.5,378.5C 358.61,378.703 357.11,378.037 356,376.5C 355.183,370.984 355.349,365.65 356.5,360.5 Z"/></g>
<g><path style="opacity:0.008" fill="#e4eadb" d="M 380.5,374.5 C 378.383,376.655 375.716,377.655 372.5,377.5C 373.5,376.833 374.5,376.167 375.5,375.5C 377.216,375.371 378.883,375.038 380.5,374.5 Z"/></g>
<g><path style="opacity:0.082" fill="#c5c8c7" d="M 143.5,376.5 C 141.085,377.814 138.252,378.481 135,378.5C 131.979,378.498 129.146,378.164 126.5,377.5C 132.259,377.786 137.925,377.452 143.5,376.5 Z"/></g>
<g><path style="opacity:0.549" fill="#bdcda9" d="M 360.5,378.5 C 360.5,378.167 360.5,377.833 360.5,377.5C 364.5,377.5 368.5,377.5 372.5,377.5C 368.667,379.134 364.667,379.468 360.5,378.5 Z"/></g>
</svg>
