<?xml version="1.0" standalone="no"?>
<!DOCTYPE svg PUBLIC "-//W3C//DTD SVG 20010904//EN"
 "http://www.w3.org/TR/2001/REC-SVG-20010904/DTD/svg10.dtd">
<svg version="1.0" xmlns="http://www.w3.org/2000/svg"
 width="3" height="3" viewBox="0 0 492.000000 481.000000"
 preserveAspectRatio="xMidYMid meet">

<g transform="translate(0.000000,481.000000) scale(0.100000,-0.100000)"
fill="#fff" stroke="none">
<path d="M1644 3561 c-48 -12 -97 -46 -119 -83 -19 -31 -20 -56 -25 -384 l-5
-351 -35 -68 c-25 -49 -44 -73 -67 -84 -32 -16 -33 -17 -33 -88 0 -55 3 -73
14 -73 23 0 68 -52 95 -110 25 -55 25 -57 31 -395 6 -374 8 -387 69 -438 41
-34 93 -49 156 -45 l50 3 3 48 c4 60 -9 77 -59 77 -26 0 -46 7 -59 20 -19 19
-20 33 -20 304 0 368 -20 489 -96 579 -25 29 -25 30 -6 51 31 33 58 95 78 176
14 62 18 131 22 390 4 350 4 350 69 350 54 0 73 15 73 58 0 20 -4 43 -9 51
-10 16 -84 23 -127 12z"/>
<path d="M3323 3560 c-19 -8 -23 -17 -23 -59 0 -54 8 -61 64 -61 21 0 40 -8
52 -21 18 -19 19 -45 25 -348 6 -363 17 -436 79 -527 l30 -45 -25 -33 c-71
-93 -85 -183 -85 -545 0 -285 -1 -299 -20 -324 -16 -20 -31 -27 -68 -29 l-47
-3 -3 -55 c-4 -70 7 -79 88 -69 73 8 124 43 156 106 19 38 21 63 27 375 5 263
10 343 22 380 18 50 78 128 101 128 11 0 14 17 14 73 0 68 -2 75 -24 85 -30
13 -67 63 -92 122 -16 40 -19 84 -24 396 l-5 351 -27 35 c-15 19 -42 42 -60
51 -43 20 -127 29 -155 17z"/>
<path d="M2435 3449 c-448 -59 -747 -497 -638 -934 16 -66 70 -189 103 -235
25 -35 68 -40 93 -12 24 27 22 42 -23 129 -52 104 -73 187 -73 303 -1 179 56
313 188 446 64 66 96 89 165 122 103 49 163 62 280 62 117 0 177 -13 280 -62
69 -33 100 -56 170 -127 131 -132 184 -257 183 -436 0 -119 -19 -200 -70 -297
-48 -91 -162 -213 -242 -258 -114 -64 -111 -60 -111 -154 l0 -82 -176 -28
c-96 -15 -182 -30 -190 -33 -21 -8 -20 137 2 183 21 45 125 139 239 216 113
76 159 119 195 183 44 78 61 148 60 255 -1 129 -9 162 -45 179 -40 19 -197 26
-268 11 -75 -15 -201 -79 -260 -130 -97 -86 -173 -232 -192 -367 -14 -105 25
-254 95 -362 l40 -62 0 -115 c0 -99 2 -116 17 -121 16 -6 575 81 594 93 5 3 9
48 9 99 l0 94 58 37 c256 163 392 434 362 724 -16 161 -69 290 -167 407 -125
150 -297 246 -487 272 -85 12 -103 12 -191 0z m318 -716 c15 -88 -19 -212 -77
-280 -15 -18 -64 -58 -109 -89 -131 -91 -207 -154 -248 -206 l-38 -49 -20 38
c-64 127 -47 300 43 428 86 123 218 193 367 194 l76 1 6 -37z"/>
<path d="M2538 1705 c-152 -24 -281 -46 -287 -50 -15 -9 -14 -90 2 -102 20
-16 588 72 605 94 26 35 4 105 -31 102 -7 -1 -137 -21 -289 -44z"/>
</g>
</svg>
